<svg id="圖層_1" data-name="圖層 1" xmlns="http://www.w3.org/2000/svg" viewBox="0 0 250 250"><defs><style>.cls-1{fill:#f0ba9a;}</style></defs><path class="cls-1" d="M125,39.49A85.51,85.51,0,1,0,210.51,125,85.5,85.5,0,0,0,125,39.49ZM156.22,149a2,2,0,0,1-.46,1.55h0l-28.45,27.93a3.58,3.58,0,0,1-2.56,1H124a3.47,3.47,0,0,1-2.1-1.14l-27.54-29a2.35,2.35,0,0,1-.55-1.92l0-43.57a2.12,2.12,0,0,1,.71-1.44l27.7-30.81a3.11,3.11,0,0,1,4.65,0c1.15,1.28,28.28,31.45,28.51,31.72a2.74,2.74,0,0,1,.82,2Z"/><polygon class="cls-1" points="98.32 146.44 113.02 156.76 113.04 119.61 98.33 109.3 98.32 146.44"/><polygon class="cls-1" points="150.66 105.71 125.87 77.31 118.24 115.18 150.66 105.71"/><polygon class="cls-1" points="98.96 104.23 113.75 114.63 120.72 80.02 98.96 104.23"/><polygon class="cls-1" points="125.12 174.28 145.39 154.54 118.64 162.45 125.12 174.28"/><polygon class="cls-1" points="117.53 158.07 151.7 147.97 151.71 110.1 117.55 120.12 117.53 158.07"/></svg>