<svg id="圖層_1" data-name="圖層 1" xmlns="http://www.w3.org/2000/svg" viewBox="0 0 250 250"><defs><style>.cls-1{font-size:34px;font-family:MKaiHK-Medium-B5pc-H, MKaiHK;}</style></defs><text class="cls-1" transform="translate(98.44 36.47) rotate(-11.14)">B</text><text class="cls-1" transform="translate(114.78 33.26) rotate(-1.52)">a</text><text class="cls-1" transform="translate(129.35 32.87) rotate(6.86)">c</text><text class="cls-1" transform="translate(141.95 34.25) rotate(15.35)">k</text><text class="cls-1" transform="matrix(0.91, 0.42, -0.42, 0.91, 155.91, 37.89)">T</text><text class="cls-1" transform="translate(171.01 44.97) rotate(34.75)">o</text><text class="cls-1" transform="translate(183 53.06) rotate(44.38)">T</text><text class="cls-1" transform="translate(194.9 64.71) rotate(53.98)">o</text><text class="cls-1" transform="translate(203.48 76.39) rotate(62.99)">p</text><text class="cls-1" transform="translate(210.03 89.49) rotate(70.49)"> </text><text class="cls-1" transform="matrix(0.2, 0.98, -0.98, 0.2, 213.43, 98.1)">B</text><text class="cls-1" transform="translate(216.7 114.45) rotate(88.28)">a</text><text class="cls-1" transform="translate(217.14 128.99) rotate(96.63)">c</text><text class="cls-1" transform="translate(215.82 141.59) rotate(105.12)">k</text><text class="cls-1" transform="translate(212.23 155.58) rotate(114.85)">T</text><text class="cls-1" transform="translate(205.21 170.71) rotate(124.54)">o</text><text class="cls-1" transform="translate(197.18 182.7) rotate(134.15)">T</text><text class="cls-1" transform="matrix(-0.81, 0.59, -0.59, -0.81, 185.55, 194.67)">o</text><text class="cls-1" transform="translate(173.91 203.3) rotate(152.77)">p</text><text class="cls-1" transform="translate(160.86 209.88) rotate(160.24)"> </text><text class="cls-1" transform="translate(152.25 213.32) rotate(168.41)">B</text><text class="cls-1" transform="translate(135.92 216.66) rotate(178.05)">a</text><text class="cls-1" transform="matrix(-0.99, -0.11, 0.11, -0.99, 121.38, 217.16)">c</text><text class="cls-1" transform="translate(108.77 215.88) rotate(-165.1)">k</text><text class="cls-1" transform="matrix(-0.91, -0.42, 0.42, -0.91, 94.75, 212.34)">T</text><text class="cls-1" transform="translate(79.62 205.4) rotate(-145.7)">o</text><text class="cls-1" transform="translate(67.58 197.4) rotate(-136.08)">T</text><text class="cls-1" transform="translate(55.58 185.84) rotate(-126.47)">o</text><text class="cls-1" transform="matrix(-0.46, -0.89, 0.89, -0.46, 46.91, 174.23)">p</text><text class="cls-1" transform="matrix(-0.34, -0.94, 0.94, -0.34, 40.26, 161.19)"> </text><text class="cls-1" transform="matrix(-0.2, -0.98, 0.98, -0.2, 36.78, 152.59)">B</text><text class="cls-1" transform="matrix(-0.04, -1, 1, -0.04, 33.38, 136.28)">a</text><text class="cls-1" transform="matrix(0.11, -0.99, 0.99, 0.11, 32.83, 121.74)">c</text><text class="cls-1" transform="translate(34.06 109.12) rotate(-75.33)">k</text><text class="cls-1" transform="translate(37.53 95.12) rotate(-65.61)">T</text><text class="cls-1" transform="matrix(0.56, -0.83, 0.83, 0.56, 44.43, 79.92)">o</text><text class="cls-1" transform="translate(52.37 67.87) rotate(-46.3)">T</text><text class="cls-1" transform="translate(63.9 55.81) rotate(-36.68)">o</text><text class="cls-1" transform="matrix(0.89, -0.46, 0.46, 0.89, 75.47, 47.09)">p</text><text class="cls-1" transform="translate(88.49 40.4) rotate(-20.2)"> </text><text class="cls-1" transform="translate(97.35 37.1) rotate(-14.27)"> </text></svg>