<svg width="85" height="61" viewBox="0 0 85 61" fill="none" xmlns="http://www.w3.org/2000/svg">
<path d="M42.1875 20.2578C42.1875 25.3672 41.1797 30.7578 39.1641 36.4297C37.1953 42.0547 34.5703 46.8594 31.2891 50.8438C26.1328 57.0781 20.6719 60.1953 14.9062 60.1953C10.4531 60.1953 6.84375 58.4141 4.07812 54.8516C1.35937 51.2422 0 46.4375 0 40.4375C0 35 1.125 29.3516 3.375 23.4922C5.67188 17.6328 8.74219 12.5469 12.5859 8.23438C16.8984 3.40625 21.6797 0.992188 26.9297 0.992188C31.4297 0.992188 35.0859 2.77344 37.8984 6.33594C40.7578 9.85156 42.1875 14.4922 42.1875 20.2578ZM36.0703 16.3906C36.0703 11.9844 35.25 8.58594 33.6094 6.19531C32.0156 3.80469 29.7656 2.60938 26.8594 2.60938C20.8125 2.60938 15.6562 8 11.3906 18.7812C9.65625 23.2344 8.29688 27.8047 7.3125 32.4922C6.32812 37.1328 5.83594 41.1875 5.83594 44.6562C5.83594 49.0625 6.65625 52.4844 8.29688 54.9219C9.9375 57.3594 12.2109 58.5781 15.1172 58.5781C17.9297 58.5781 20.5078 57.4062 22.8516 55.0625C25.1953 52.7188 27.4922 49.0391 29.7422 44.0234C31.7109 39.7109 33.2578 35.0703 34.3828 30.1016C35.5078 25.0859 36.0703 20.5156 36.0703 16.3906ZM82.125 46.1328L77.8359 58.9297C75.6797 59.3516 73.3828 59.5625 70.9453 59.5625C68.6016 59.5625 65.9766 59.3984 63.0703 59.0703C57.8203 58.5078 53.9766 58.2266 51.5391 58.2266C48.3047 58.2266 44.8828 58.6719 41.2734 59.5625V57.5938C44.3203 55.5312 47.625 53.1172 51.1875 50.3516C54.75 47.5859 58.5 44.4922 62.4375 41.0703C66.375 37.5547 69.4688 34.4141 71.7188 31.6484C74.0156 28.8828 75.6797 26.2109 76.7109 23.6328C77.7891 21.0078 78.3281 18.3125 78.3281 15.5469C78.3281 11.75 77.3438 8.72656 75.375 6.47656C73.4531 4.17969 70.875 3.03125 67.6406 3.03125C64.4531 3.03125 61.6641 4.08594 59.2734 6.19531C56.8828 8.30469 55.6875 10.7891 55.6875 13.6484C55.6875 15.0547 56.0625 16.3203 56.8125 17.4453C57.6094 18.5234 58.6172 19.25 59.8359 19.625C59.0859 20.9375 57.9141 21.5938 56.3203 21.5938C54.7734 21.5938 53.4844 21.0547 52.4531 19.9766C51.4688 18.8984 50.9766 17.5391 50.9766 15.8984C50.9766 12.1953 52.9219 8.77344 56.8125 5.63281C60.7031 2.49219 64.9219 0.921875 69.4688 0.921875C73.9688 0.921875 77.5781 2.23438 80.2969 4.85938C83.0625 7.48438 84.4453 10.9531 84.4453 15.2656C84.4453 18.5938 83.6484 21.7109 82.0547 24.6172C80.5078 27.5234 77.8828 30.7578 74.1797 34.3203C70.8516 37.5547 65.2266 42.0781 57.3047 47.8906C53.6953 50.6094 51.375 52.3672 50.3438 53.1641C52.3125 52.8359 54.3516 52.6719 56.4609 52.6719C58.1484 52.6719 59.7656 52.7422 61.3125 52.8828L67.0078 53.3047C68.6016 53.3984 69.7734 53.4453 70.5234 53.4453C73.1016 53.4453 75.1875 52.8828 76.7812 51.7578C78.375 50.6328 79.8047 48.7578 81.0703 46.1328H82.125Z" fill="black"/>
</svg>
