<svg width="87" height="61" viewBox="0 0 87 61" fill="none" xmlns="http://www.w3.org/2000/svg">
<path d="M42.1875 20.2578C42.1875 25.3672 41.1797 30.7578 39.1641 36.4297C37.1953 42.0547 34.5703 46.8594 31.2891 50.8438C26.1328 57.0781 20.6719 60.1953 14.9062 60.1953C10.4531 60.1953 6.84375 58.4141 4.07812 54.8516C1.35937 51.2422 0 46.4375 0 40.4375C0 35 1.125 29.3516 3.375 23.4922C5.67188 17.6328 8.74219 12.5469 12.5859 8.23438C16.8984 3.40625 21.6797 0.992188 26.9297 0.992188C31.4297 0.992188 35.0859 2.77344 37.8984 6.33594C40.7578 9.85156 42.1875 14.4922 42.1875 20.2578ZM36.0703 16.3906C36.0703 11.9844 35.25 8.58594 33.6094 6.19531C32.0156 3.80469 29.7656 2.60938 26.8594 2.60938C20.8125 2.60938 15.6562 8 11.3906 18.7812C9.65625 23.2344 8.29688 27.8047 7.3125 32.4922C6.32812 37.1328 5.83594 41.1875 5.83594 44.6562C5.83594 49.0625 6.65625 52.4844 8.29688 54.9219C9.9375 57.3594 12.2109 58.5781 15.1172 58.5781C17.9297 58.5781 20.5078 57.4062 22.8516 55.0625C25.1953 52.7188 27.4922 49.0391 29.7422 44.0234C31.7109 39.7109 33.2578 35.0703 34.3828 30.1016C35.5078 25.0859 36.0703 20.5156 36.0703 16.3906ZM86.625 4.15625L69.9609 22.1562C72.6797 22.8594 75 23.9844 76.9219 25.5312C78.8438 27.0781 80.3203 29 81.3516 31.2969C82.4297 33.5469 82.9688 35.9844 82.9688 38.6094C82.9688 42.4531 81.9375 46.0391 79.875 49.3672C77.8125 52.6953 75.0234 55.3672 71.5078 57.3828C68.0391 59.3516 64.3359 60.3359 60.3984 60.3359C56.0391 60.3359 52.3125 59.1875 49.2188 56.8906C46.125 54.5469 44.5781 51.7109 44.5781 48.3828C44.5781 46.6016 45.0703 45.1016 46.0547 43.8828C46.9922 42.6641 48.2578 41.9844 49.8516 41.8438C49.6172 42.7812 49.5 43.6719 49.5 44.5156C49.5 47 50.0859 49.2969 51.2578 51.4062C52.4297 53.4688 54.0234 55.1094 56.0391 56.3281C58.0547 57.5469 60.3047 58.1562 62.7891 58.1562C65.4141 58.1562 67.9453 57.4297 70.3828 55.9766C72.8672 54.5234 74.8359 52.5781 76.2891 50.1406C77.7422 47.6562 78.4688 45.1016 78.4688 42.4766C78.4688 39.8516 77.8359 37.3906 76.5703 35.0938C75.3516 32.7969 73.6406 30.875 71.4375 29.3281C69.2812 27.7344 66.8203 26.6562 64.0547 26.0938L80.5781 7.88281H68.5547H65.0391C62.0391 7.88281 59.9062 8.28125 58.6406 9.07812C57.375 9.875 56.0859 11.5859 54.7734 14.2109H53.2969L58.5703 1.0625C59.7891 1.57812 61.1016 1.88281 62.5078 1.97656C64.4297 2.16406 66.9141 2.25781 69.9609 2.25781H86.1328L86.625 4.15625Z" fill="black"/>
</svg>
