<svg width="70" height="61" viewBox="0 0 70 61" fill="none" xmlns="http://www.w3.org/2000/svg">
<path d="M42.1875 20.2578C42.1875 25.3672 41.1797 30.7578 39.1641 36.4297C37.1953 42.0547 34.5703 46.8594 31.2891 50.8438C26.1328 57.0781 20.6719 60.1953 14.9062 60.1953C10.4531 60.1953 6.84375 58.4141 4.07812 54.8516C1.35937 51.2422 0 46.4375 0 40.4375C0 35 1.125 29.3516 3.375 23.4922C5.67188 17.6328 8.74219 12.5469 12.5859 8.23438C16.8984 3.40625 21.6797 0.992188 26.9297 0.992188C31.4297 0.992188 35.0859 2.77344 37.8984 6.33594C40.7578 9.85156 42.1875 14.4922 42.1875 20.2578ZM36.0703 16.3906C36.0703 11.9844 35.25 8.58594 33.6094 6.19531C32.0156 3.80469 29.7656 2.60938 26.8594 2.60938C20.8125 2.60938 15.6562 8 11.3906 18.7812C9.65625 23.2344 8.29688 27.8047 7.3125 32.4922C6.32812 37.1328 5.83594 41.1875 5.83594 44.6562C5.83594 49.0625 6.65625 52.4844 8.29688 54.9219C9.9375 57.3594 12.2109 58.5781 15.1172 58.5781C17.9297 58.5781 20.5078 57.4062 22.8516 55.0625C25.1953 52.7188 27.4922 49.0391 29.7422 44.0234C31.7109 39.7109 33.2578 35.0703 34.3828 30.1016C35.5078 25.0859 36.0703 20.5156 36.0703 16.3906ZM65.5312 59H44.1562L44.5078 57.1719H46.4766C48.7734 57.1719 50.3672 56.8203 51.2578 56.1172C52.1484 55.3672 52.8047 53.9141 53.2266 51.7578L53.7891 49.1562L59.8359 19.7656L60.2578 17.3047C60.5391 16.0859 60.6797 15.1484 60.6797 14.4922C60.6797 13.2734 60.1875 12.6641 59.2031 12.6641C58.4531 12.6641 57.3516 13.0391 55.8984 13.7891L50.0625 16.9531L49.7109 15.4062L51.0469 14.4219L58.9219 8.9375C62.3906 6.5 65.3672 4.27344 67.8516 2.25781H69.6797C68.5078 6.10156 67.1719 11.7266 65.6719 19.1328L59.4844 49.1562C59.0156 51.5938 58.7812 53.3047 58.7812 54.2891C58.7812 55.4609 59.0625 56.2344 59.625 56.6094C60.2344 56.9844 61.4766 57.1719 63.3516 57.1719H65.8828L65.5312 59Z" fill="black"/>
</svg>
