<svg id="圖層_1" data-name="圖層 1" xmlns="http://www.w3.org/2000/svg" viewBox="0 0 353 353"><defs><style>.cls-1{fill:#c6a87a;}.cls-2{fill:#352103;}.cls-3{fill:#e2b258;}</style></defs><g id="圖層_1-2" data-name="圖層 1"><path class="cls-1" d="M176.42,78.36c-56,0-101.55,42.6-101.55,95.14a91.07,91.07,0,0,0,2.78,22.39,18.75,18.75,0,0,0,18,14H256.91a18.75,18.75,0,0,0,18-14,90.59,90.59,0,0,0,2.78-22.39c.25-52.66-45.27-95.14-101.31-95.14Z"/><path class="cls-2" d="M105.13,260.53c-15-.85-18.88,10.77-19.25,14.16s1.7,11.74,11.74,13.31,21.67-3.87,22.88-10.89C121.59,270.57,120.14,261.37,105.13,260.53ZM99.2,283c-7.51-.12-6.66-8.35-5.81-10.05s4.11-6.65,10-6.65,8.72,1.69,9.08,5.81C113.12,279.65,108.88,283.16,99.2,283Z"/><path class="cls-2" d="M76.68,230.27s11.14-6.78,23.49-6.18c0,0,4.23.61,4.35,3s-6.17,2.54-8.59,2.54-13.56,3-17.92,5.57S73.66,234,73.66,234,73.29,231.84,76.68,230.27Z"/><path class="cls-2" d="M84.91,220.7s2.42,12.35,2.42,16.71.61,15.37-3,17.31a3.2,3.2,0,0,1-4.72-1.34,1.92,1.92,0,0,0-1.21-1,1.24,1.24,0,0,0-1.45,1c-.61,1.82,1.57,6.18,8,6.18,7.39,0,9.2-3.75,10.53-9.93,1.7-8.71-1.57-27.35-5-31.47C88.06,215.14,84.31,217,84.91,220.7Z"/><path class="cls-2" d="M78.5,243.22s-2.42.6-1.82,2.42,3,1.81,6.78.6,14.16-3,16.71-2.42,3-1.21,3-1.81S104.4,234,78.5,243.22Z"/><path class="cls-2" d="M111.54,219.49a9.16,9.16,0,0,0-4.48,3.75c-1.33,2.43-2.78,6.54-2.3,12.84.85,11.49.49,12.46,2.18,13.79s6.06,2.67,5.45-3.51-1.21-8.59,0-9.92,5.57-1.82,5.57-1.82,0,9.2-.61,14.77,1,7.75,4.36,7.38c4-.36,3.75-19.12,3.75-22.87,0,0,3.76,1.81,4.36-.61s0-3.75-5-4.36-11.74,1-11.74,1-.73-6.41,4.23-7.38a10.8,10.8,0,0,0,3.15-1,1.68,1.68,0,0,0,0-3C119.05,217.92,116.51,217.68,111.54,219.49Z"/><path class="cls-2" d="M230.29,238.25s-8.6,9.93-6.18,13,6.18,0,7.39-1.82l-1.21,27.11s-.61,5,4.35,5,4.36-8,4.36-11.14,1.82-25.9.61-29c0,0,3.75-6.17,3.75-8.59s-.61-3.76-2.42-3.76S234,233.41,230.29,238.25Z"/><path class="cls-2" d="M251.59,226.27s-3.75.61-3.75,3.75,5.81,1.21,8.47,0,11.86,1.82,13.07-.6,0-4.36-5-4.36S253.4,225.67,251.59,226.27Z"/><path class="cls-2" d="M245.42,243s-1.21,9.2-1.21,11.75,1.81,6.17,5.56,4.35,1-14.16,2.06-16.1,8.47-6.77,14.65-3-1.21,13-2.42,13.56-1.82,2.42-1.82,3.75,3,2.42,9.2,0,6.78-11.14,5.57-16.1-9.44-8-18-6.17S247.23,238,245.42,243Z"/><path class="cls-2" d="M249.17,266.94s-3,.61-3,2.42,1.82,1.82,5.57,1.82S270.83,270,270.83,270s6.66.12,6.66-3.63-14-1.94-19.61-1.34A39.1,39.1,0,0,0,249.17,266.94Z"/><path class="cls-2" d="M267.69,262.7s0,18.52-3.75,22.28-8.6,5-11.14,1.81-3.75-3.75-5.57-3-2.42,3.75,1.82,6.77,6.78,5,13.55,3.76,11.75-12.35,11.75-20.94-.61-11.74-3-11.74S268.29,260.77,267.69,262.7Z"/><path class="cls-2" d="M252.8,278.2a2.46,2.46,0,0,1,2.06-1.82,6,6,0,0,1,3.39.49c2.66,1.21,4.35,2.18,3.87,5s-4.36,3.75-6.78,1.21C253.77,281.47,252.32,280,252.8,278.2Z"/><path class="cls-2" d="M256.79,221.07l-1.93,38.49s.72,2.42,1.93,2.42,2.42-.73,2.42-4.48,1.46-35.59,1.46-35.59-.24-2-1.46-2A1.92,1.92,0,0,0,256.79,221.07Z"/><path class="cls-2" d="M267.69,218.89s7.26-.37,9.8,1.93,1.94,4.24,1.33,6.06-4.35,1.21-5.32-.61-5.21-5.08-5.81-6.17S267.69,218.89,267.69,218.89Z"/><path class="cls-2" d="M253.4,244.79l11.14-2.42s1.82,0,1.82,1.21-.61,1.82-3,2.42-9.2,1.21-9.2,1.21-1.81,0-1.81-1.21A1,1,0,0,1,253.4,244.79Z"/><path class="cls-2" d="M253.4,251.57l9.93-1.82s1.57,0,1.45,1,.49,1.58-2,2.18-9.2,1.21-9.2,1.21-1.21,0-1.21-.6S252,252.17,253.4,251.57Z"/><path class="cls-2" d="M177.27,233.41s-3,.61-3,3,5.57,1.81,8,1.81,20.58-1.81,22.64-2.42,1.45-2.54,1.45-3.14,0-4.36-6.78-3.76S177.27,233.41,177.27,233.41Z"/><path class="cls-2" d="M181.26,276.26s-5,0-5-5,.24-15.86,1.21-17.92c1.82-3.75,7.38-5.56,13-6.77s13.56-2.42,16.71,1.81,2.42,13.56,1.21,16.1-3.76,5.57-6.78,3.75c-2.54-1.57-1.21-8.47-.12-10.89a13.34,13.34,0,0,0,.6-2.06c.24-1.94.24-5.32-2.9-5-4.36.6-14.16,3-14.77,6.78s0,13.55,0,13.55S185.62,276.26,181.26,276.26Z"/><path class="cls-2" d="M188.77,236.08s-2.54,41.76-3,47,.85,7,3.88,7.63,5.56-3,5.56-7.39.85-49.63.85-49.63Z"/><path class="cls-2" d="M167.34,263.55c-5-3-14.76,0-16.7,1.21l.24-5.2s16.34,1.57,18.88-6.54-1.21-12.34-4.35-13a61.48,61.48,0,0,0-11.5-.12c-.24,0-.37-.24-.24-.49,1.81-1.69,7-6.41,8-7.38a3.58,3.58,0,0,0,.61-3.39,2.89,2.89,0,0,0-1-1.09c-1-.6-3.75-.6-6.78,1.09-5.56,3.15-7.14,4.6-7.14,4.6s-5.57,3.75-5.57,15.37.37,25.54.37,25.54-.37,10.78,7.74,11.38,16.1-5,18.52-8C171.1,274.69,172.31,266.7,167.34,263.55Zm-14.52-18c2.3-.37,7.62-1.46,9,0s.12,5.81-2.43,7-6.77,2.42-7.38,1.81-.6-3.75-.6-3.75S150.52,245.88,152.82,245.52Zm8.35,30.38c-2.42,1.21-10.53,4.36-10.53,2.42s.48-6.9.48-6.9,9.69-5.21,11.14-3.51S163.71,274.69,161.17,275.9Z"/><path class="cls-2" d="M176.42,84.29a102,102,0,0,1,37.28,7,94.63,94.63,0,0,1,30.38,19.24,88,88,0,0,1,20.34,28.33,83.28,83.28,0,0,1,7.5,34.62,81.25,81.25,0,0,1-2.66,20.94A12.79,12.79,0,0,1,257,204H95.81a12.55,12.55,0,0,1-12.23-9.56,81,81,0,0,1-2.66-20.94,83.69,83.69,0,0,1,7.5-34.62,90,90,0,0,1,20.34-28.33,96.73,96.73,0,0,1,30.38-19.24,99.56,99.56,0,0,1,37.28-7"/><path class="cls-2" d="M112.51,87.68c-.12.12-.24,0-.36-.12l-.49-1c-.12-.12-.12-.36-.24-.49a.72.72,0,0,1-.12-.48.91.91,0,0,1,.24-.48,2.46,2.46,0,0,1,.61-.49l5-3c.12,0,.12-.13.24,0s.12,0,.25.12l.48,1a1.83,1.83,0,0,1,.24,1.09c0,.37-.36.61-.85,1Z"/><path class="cls-2" d="M125.1,85.5c-.12.12-.24,0-.36-.12l-.37-1.09c0-.12-.12-.24-.12-.49s-.12-.36,0-.48a9.51,9.51,0,0,1,.24-1.69c.13-.61.25-1.34.37-2.18s.24-1.94.48-3.15.37-2.66.49-4.36l-4.36,1.94h-.24a.42.42,0,0,1-.12-.24l-.49-1.09a.75.75,0,0,1-.12-.49v-.48a1,1,0,0,1,.24-.49,2.7,2.7,0,0,1,.61-.48l7.38-3.39H129c.12,0,.12.12.25.12l.36,1.09a2.7,2.7,0,0,1,.12,1,7.13,7.13,0,0,1-.12,1.21c-.12.73-.24,1.57-.36,2.66s-.25,2.3-.49,3.63-.36,2.67-.48,4l4.84-2.18h.24c.12,0,.12.12.24.12l.49,1.21a1.72,1.72,0,0,1,.12,1.09c-.12.36-.37.61-1,.85Z"/><path class="cls-2" d="M145.43,74.85a6.18,6.18,0,0,1-.24-1.46,6,6,0,0,1-.24-1.45,5.35,5.35,0,0,1-.24-1.21c-.12-.36-.12-.6-.24-.72a1.93,1.93,0,0,0-.49-.85c-.24-.24-.6-.24-1.09-.12a2.07,2.07,0,0,0-1.33,1.33,5,5,0,0,0,0,2.66,7,7,0,0,0,.24,1.21c.12.49.25,1.09.37,1.58l.36,1.45a2.57,2.57,0,0,1,.12.72v.37c0,.12-.12.12-.36.24l-.73.24a2.17,2.17,0,0,1-1.81-.12.92.92,0,0,1-.49-.48,6.58,6.58,0,0,1-.36-.85,3.07,3.07,0,0,1-.24-1.21c-.12-.61-.25-1.33-.49-2.3s-.48-2.18-.84-3.63-.85-3.39-1.34-5.57a.55.55,0,0,1,0-.61.54.54,0,0,1,.37-.12l.84-.24a3.41,3.41,0,0,1,1.09-.12,1.29,1.29,0,0,1,.73.24.92.92,0,0,1,.48.49c.12.24.25.36.25.6s.12.61.24,1.33.36,1.46.48,2.42a3.25,3.25,0,0,1,1-1.81,4.2,4.2,0,0,1,1.82-1,8.35,8.35,0,0,1,1.57-.24A2.06,2.06,0,0,1,146,66a2.51,2.51,0,0,1,1,1,11.88,11.88,0,0,1,.72,1.69,6.68,6.68,0,0,1,.25,1.09c.12.49.24,1.21.36,1.82a14.19,14.19,0,0,0,.48,2.18c.13.72.37,1.45.49,2.06a.44.44,0,0,0,.12.36v.24l-.12.12c-.12,0-.12.12-.24.12l-.61.24a5.54,5.54,0,0,1-1.09.25,1.52,1.52,0,0,1-.72-.12,1,1,0,0,1-.49-.49l-.36-.72c0-.13-.12-.25-.12-.37C145.43,75.09,145.43,75,145.43,74.85Z"/><path class="cls-2" d="M159.84,74.6a4.3,4.3,0,0,1-1.82,0,4.07,4.07,0,0,1-1.69-.6,7,7,0,0,1-1.45-1.33,5.61,5.61,0,0,1-.85-2.3c0-.36-.12-.73-.12-1.21a7.56,7.56,0,0,1,.12-1.58,12.83,12.83,0,0,1,.48-1.69,4.35,4.35,0,0,1,1-1.57,4.06,4.06,0,0,1,1.58-1.21,6.56,6.56,0,0,1,2.17-.61,5.26,5.26,0,0,1,1.94,0,4.36,4.36,0,0,1,1.33.48,2.87,2.87,0,0,1,.85.85,2.08,2.08,0,0,1,.36,1.21,3.94,3.94,0,0,1-.12,1.7,4.8,4.8,0,0,1-.85,1.33,8.72,8.72,0,0,1-1.21,1,7.18,7.18,0,0,1-1.45.6c-.48.12-1,.24-1.33.37a3,3,0,0,1-1,.12,1.71,1.71,0,0,0,.24.72,1.24,1.24,0,0,0,.49.61,4,4,0,0,0,.72.36,1.34,1.34,0,0,0,1,0,1.1,1.1,0,0,0,.85-.36c.24-.12.36-.37.48-.49a.93.93,0,0,0,.25-.48c.12-.12.24-.24.36-.24h.36a1.34,1.34,0,0,1,.61.12c.24.12.36.24.6.36a2.07,2.07,0,0,1,.37.73,1.23,1.23,0,0,1-.25,1.09,2.8,2.8,0,0,1-.84.84,5.5,5.5,0,0,1-1.21.61A15.64,15.64,0,0,1,159.84,74.6Zm-1-9.19a.75.75,0,0,0-.73.36,2.42,2.42,0,0,0-.48.73c-.12.24-.12.6-.24,1v1a4.63,4.63,0,0,0,2.06-.72,1.31,1.31,0,0,0,.6-1.34,1,1,0,0,0-.36-.72A.69.69,0,0,0,158.87,65.41Z"/><path class="cls-2" d="M184.29,70.37a5,5,0,0,0,1.45-.12c.37-.12.73-.37,1.09-.49a3.05,3.05,0,0,1,.85-.48,1.71,1.71,0,0,1,.72-.24c.25,0,.37.24.37.6s-.12.49-.12.85a5.38,5.38,0,0,1-.37,1.09,2.69,2.69,0,0,1-.48.73,6.79,6.79,0,0,1-1,.72,4.31,4.31,0,0,1-1.45.49,9.91,9.91,0,0,1-1.94.12,7.21,7.21,0,0,1-2.18-.49,4.69,4.69,0,0,1-1.81-1.21,5.26,5.26,0,0,1-1.21-2.18A8.77,8.77,0,0,1,178,66.5a8.45,8.45,0,0,1,.24-1.58,10.1,10.1,0,0,1,.48-1.81,12.39,12.39,0,0,1,.85-1.82A6,6,0,0,1,181,59.72,6,6,0,0,1,183,58.63a6.5,6.5,0,0,1,2.78-.24,5.79,5.79,0,0,1,2.18.48,4.14,4.14,0,0,1,1.45,1,4.8,4.8,0,0,1,.85,1.33,3,3,0,0,1,.12,1.45,2.5,2.5,0,0,1-1,1.94,4.34,4.34,0,0,1-2.3.48c-.36,0-.48,0-.6-.12s-.12-.12-.12-.36V63.35a1.8,1.8,0,0,0-.12-.85,1.66,1.66,0,0,0-.37-.48,1,1,0,0,0-.72-.25,1.92,1.92,0,0,0-1.21.25,1.6,1.6,0,0,0-.85.72,2.67,2.67,0,0,0-.61,1l-.36,1.09c-.12.36-.12.73-.24,1.09s-.12.73-.12,1a3.75,3.75,0,0,0,.48,2.78A3.79,3.79,0,0,0,184.29,70.37Z"/><path class="cls-2" d="M201.24,73.52a6.93,6.93,0,0,1,.48-1.46c.12-.48.36-1,.48-1.45s.25-.85.37-1.21.12-.61.24-.73a1.31,1.31,0,0,0,0-1c-.12-.37-.36-.49-.85-.61a1.87,1.87,0,0,0-1.81.61,4.13,4.13,0,0,0-1.21,2.3,6.35,6.35,0,0,0-.37,1.21c-.12.48-.36,1-.48,1.57s-.36,1-.49,1.45l-.24.73c0,.12-.12.24-.12.36h-.36l-.73-.12a4.37,4.37,0,0,1-1-.36,2.63,2.63,0,0,1-.6-.49,1.71,1.71,0,0,1-.24-.72,2.37,2.37,0,0,1,.12-.85c.12-.36.24-.73.36-1.21a20.2,20.2,0,0,1,.73-2.18c.24-1,.72-2.18,1.09-3.63s1-3.27,1.57-5.45c.12-.24.12-.48.24-.48h.36l.85.12a7.84,7.84,0,0,1,1,.36,3,3,0,0,1,.61.49c.12.24.24.36.24.6v.73c0,.24-.24.72-.37,1.33s-.48,1.45-.72,2.3a3.32,3.32,0,0,1,1.69-1.09,5.89,5.89,0,0,1,2.06,0,9.78,9.78,0,0,1,1.45.48,3.32,3.32,0,0,1,1,.85,2.45,2.45,0,0,1,.36,1.33,5.41,5.41,0,0,1-.24,1.82,2.85,2.85,0,0,1-.36,1.09c-.12.48-.36,1.09-.61,1.81s-.48,1.33-.72,2.18a19,19,0,0,0-.61,2.06c0,.12-.12.24-.12.36a.12.12,0,0,1-.12.12h-.36l-.61-.12a5.72,5.72,0,0,1-1.09-.36,2.62,2.62,0,0,1-.6-.48c-.12-.25-.24-.37-.24-.61a2.42,2.42,0,0,1,.12-.85c0-.12.12-.24.12-.36C201.24,73.76,201.24,73.64,201.24,73.52Z"/><path class="cls-2" d="M214.07,80.41a11.16,11.16,0,0,1-1.7-.84A4.81,4.81,0,0,1,211,78.24a4.21,4.21,0,0,1-.61-1.82A4.5,4.5,0,0,1,210.8,74a8.34,8.34,0,0,1,.48-1.21,8.22,8.22,0,0,1,.85-1.33,5.55,5.55,0,0,1,1.21-1.21,6.57,6.57,0,0,1,1.57-1,5.08,5.08,0,0,1,1.94-.36,5.65,5.65,0,0,1,2.3.48,10.56,10.56,0,0,1,1.69.85,2.65,2.65,0,0,1,1,1.09,2,2,0,0,1,.24,1.21,4.4,4.4,0,0,1-.24,1.21,3,3,0,0,1-1,1.45,2.86,2.86,0,0,1-1.33.73,6.16,6.16,0,0,1-1.57.24c-.48,0-1.09-.12-1.57-.12s-1-.24-1.34-.37a8.27,8.27,0,0,1-1-.36,1.46,1.46,0,0,0-.13.73,1.42,1.42,0,0,0,.13.72l.36.73a1.91,1.91,0,0,0,.85.48,2.18,2.18,0,0,0,.84.13.93.93,0,0,0,.61-.25.91.91,0,0,1,.48-.24.24.24,0,0,1,.37,0c.12,0,.12.12.36.12a1.86,1.86,0,0,0,.48.37.92.92,0,0,1,.25.6c.12.24,0,.48-.13.85a1.27,1.27,0,0,1-.72.84,3.37,3.37,0,0,1-1.21.37,5.88,5.88,0,0,1-1.45-.12A8.08,8.08,0,0,1,214.07,80.41Zm3.63-8.59a1,1,0,0,0-.85,0,2.52,2.52,0,0,0-.73.49,3.18,3.18,0,0,0-.6.72,3.38,3.38,0,0,0-.49.85,8.26,8.26,0,0,0,2.18.36,1.51,1.51,0,0,0,1.21-.85,1,1,0,0,0,0-.84C218.18,72.18,218.06,71.94,217.7,71.82Z"/><path class="cls-2" d="M230.41,79.33a8.78,8.78,0,0,0-.73,1.21c-.24.48-.48.84-.73,1.33a11.73,11.73,0,0,1-.72,1.21,4.76,4.76,0,0,0-.61,1.09,7.11,7.11,0,0,1-.48.72,1.44,1.44,0,0,1-.24.37c-.12.12-.12.24-.25.24a.44.44,0,0,1-.36-.12l-.73-.37c-.72-.36-1.08-.72-1.21-1.21a2.38,2.38,0,0,1,.37-1.69c0-.12.12-.24.36-.61s.36-.6.61-1.09.48-.84.84-1.33.61-1,.85-1.45l-.85-.48c-.12-.12-.12-.12-.12-.37s.12-.24.24-.48.25-.36.37-.61a.62.62,0,0,0,.24-.48l.36-.36a.75.75,0,0,1,.49-.12,1.52,1.52,0,0,1,.72.12l.49-.73a7.73,7.73,0,0,1,1.45-1.81,3.31,3.31,0,0,1,1.57-.85,4.06,4.06,0,0,1,1.7,0,10.66,10.66,0,0,1,1.81.6c.61.37,1.09.61,1.58,1a5.24,5.24,0,0,1,.84,1,3.46,3.46,0,0,1,.25,1,2.2,2.2,0,0,1-.25,1A2,2,0,0,1,236.94,77a3.29,3.29,0,0,1-1.81-.37c-.24-.12-.37-.12-.37-.24v-.24a1.91,1.91,0,0,0,.37-1.09.87.87,0,0,0-.49-.73,1.52,1.52,0,0,0-.72-.12l-.73.36-.73.73c-.24.24-.36.61-.6.85L234,77.27c.24.12.24.24.12.36l-.61,1a2.17,2.17,0,0,1-.72.73,1.47,1.47,0,0,1-1.33-.25Z"/><path class="cls-2" d="M236.82,86a.44.44,0,0,1-.12-.36l.61-1,.36-.36a.62.62,0,0,1,.48-.24.55.55,0,0,1,.61,0,1.71,1.71,0,0,1,.72.24l5,3c.12,0,.12.13.12.25v.24l-.73,1a1.61,1.61,0,0,1-.84.72c-.37.12-.73,0-1.34-.36Z"/><path class="cls-3" d="M100.17,144.45a6.07,6.07,0,0,1-1.09-6.9,12.18,12.18,0,0,1,11.25-7.39c.12.37.12.73.24,1.09a2.8,2.8,0,1,0,5.33-1.69h0a13.85,13.85,0,0,1,4.24-14.41,16.13,16.13,0,0,1,13.19-4.47,17,17,0,0,0-.12,6A2.75,2.75,0,0,0,136,119h.49a2.71,2.71,0,0,0,2.18-3.27h0c-1.09-6.05,3.39-10.65,8-13.07s10.89-3.27,15.25-.73a20.69,20.69,0,0,0-2.79,5.93,2.76,2.76,0,0,0,5.33,1.45v-.12a14.2,14.2,0,0,1,11.5-10.29,15,15,0,0,1,12.47,2.91,18.1,18.1,0,0,0-3,3,2.76,2.76,0,1,0,4.36,3.38h0a14.28,14.28,0,0,1,14.52-5,14.87,14.87,0,0,1,10.53,8,16.87,16.87,0,0,0-5.44,3.75,2.74,2.74,0,0,0,3.87,3.88,14,14,0,0,1,15-2.91,15.12,15.12,0,0,1,9.2,8.84,21,21,0,0,0-6.05,1.57,2.8,2.8,0,1,0,2.05,5.21h.12a16.78,16.78,0,0,1,19.61,5.44c1.21,1.7,2.91,5.09.24,8a116.07,116.07,0,0,0-7.38,9,52.15,52.15,0,0,0-19.73-20.94,96.46,96.46,0,0,0-49.87-14.16,97.94,97.94,0,0,0-49.87,14.16,53.06,53.06,0,0,0-19.12,19.61,33.9,33.9,0,0,0-7.26-8.23Z"/><path class="cls-3" d="M192.4,147.23a5.84,5.84,0,0,0-3.51,0,4.09,4.09,0,0,1-4.84-2.3,8,8,0,0,0-14.89,0,3.92,3.92,0,0,1-4.84,2.3,9.61,9.61,0,0,0-1.7-.24,9.18,9.18,0,0,0-1.81.12,6.16,6.16,0,0,0-4.12,4.48,6,6,0,0,0,4.6,7.14,4,4,0,0,1,3.27,4v9.08h4v-4a2.06,2.06,0,1,1,4.12,0v4h8v-4a2.06,2.06,0,1,1,4.11,0v4.11h4v-9.08a4,4,0,0,1,3.27-4h0a5.94,5.94,0,0,0,4.47-4.12A6.15,6.15,0,0,0,192.4,147.23Z"/><rect class="cls-3" x="164.56" y="175.68" width="23.97" height="3.99"/><path class="cls-3" d="M223.27,137.91a92.09,92.09,0,0,0-47-13.44,90.79,90.79,0,0,0-46.84,13.44c-13.68,8.35-18.64,19.73-18.64,21.42,0,6.3,4.72,17.31,9.32,22.28,12.59,13.31,44.18,13.31,56.16,13.31s43.7,0,56.29-13.31c4.72-5,9.32-16,9.32-22.28C241.91,157.52,236.94,146.26,223.27,137.91Zm-30.63,24.81c-.12,4.72-.12,17.07-.12,17.07a4,4,0,0,1-4,4h-24a4,4,0,0,1-4-4V162.72a10.15,10.15,0,0,1-7.51-6.77,10,10,0,0,1,6.54-12.59,9.84,9.84,0,0,1,5.93,0,11.49,11.49,0,0,1,11-7.63,11.77,11.77,0,0,1,11.14,7.75,9.08,9.08,0,0,1,5.69-.12,9.9,9.9,0,0,1,6.9,7.5h0A9.74,9.74,0,0,1,192.64,162.72Z"/></g></svg>