<svg id="圖層_1" data-name="圖層 1" xmlns="http://www.w3.org/2000/svg" viewBox="0 0 353 353"><defs><style>.cls-1{fill:#a8d6db;}.cls-2{fill:none;}.cls-3{fill:#3c81b9;}</style></defs><path class="cls-1" d="M209.38,143.28l.14-.21a1.19,1.19,0,0,0-.27-1.61,35.62,35.62,0,0,0-7.68-4.29,1.18,1.18,0,0,0-1.38.37,1.2,1.2,0,0,0,.42,1.82,44,44,0,0,1,7.07,4.21A1.18,1.18,0,0,0,209.38,143.28Z"/><path class="cls-1" d="M209.8,152.61a1.25,1.25,0,0,0-1.87.57c-2.11,5.33-4.82,11.27-6.88,15.26a1.24,1.24,0,0,0,.44,1.63l.2.13a1.26,1.26,0,0,0,1.8-.5c2.24-4.54,4.81-10.52,6.77-15.61A1.26,1.26,0,0,0,209.8,152.61Z"/><path class="cls-1" d="M211.38,128.68l.14-.18a1.19,1.19,0,0,0-.17-1.63,39.24,39.24,0,0,0-7.12-4.7,1.19,1.19,0,0,0-1.15,2.09,38.29,38.29,0,0,1,6.55,4.59A1.19,1.19,0,0,0,211.38,128.68Z"/><path class="cls-1" d="M228.73,163V148a1.2,1.2,0,0,0-1.2-1.2h-3.85a1.19,1.19,0,0,1-1.19-1.2v-8.64a1.19,1.19,0,0,1,1.19-1.2h5.69a1.19,1.19,0,0,0,1.2-1.19v-.12a1.19,1.19,0,0,0-1.2-1.19h-5.69a1.19,1.19,0,0,1-1.19-1.2V123.6a1.2,1.2,0,0,0-1.2-1.2h-.11a1.2,1.2,0,0,0-1.2,1.2V132a1.2,1.2,0,0,1-1.2,1.2h-6.69a1.19,1.19,0,0,0-1.2,1.19v.12a1.19,1.19,0,0,0,1.2,1.19h6.69a1.2,1.2,0,0,1,1.2,1.2v8.64a1.2,1.2,0,0,1-1.2,1.2h-4.46a1.2,1.2,0,0,0-1.2,1.2V167.8a1.2,1.2,0,0,0,2.4,0v-2.45a1.2,1.2,0,0,1,1.2-1.2h10.81A1.2,1.2,0,0,0,228.73,163Zm-2.51-6.12a5.35,5.35,0,0,1-10.7,0v-2.29a5.35,5.35,0,0,1,10.7,0Z"/><path class="cls-1" d="M246.61,123.41H234.48a1.24,1.24,0,0,0-1.24,1.23v21.45c0,7.42-.55,16.41-6.12,23a1.23,1.23,0,0,0,.16,1.74l0,0a1.25,1.25,0,0,0,1.74-.16c3.85-4.55,5.52-10.43,6.21-16.13a7.73,7.73,0,0,0,7.13-.64c4-2.65,2.16-6,2.16-6a3,3,0,0,0-3.47-1.44c-2.16.61-1.64,3.21-1.68,3.77a3.68,3.68,0,0,1-1.22,2.64,5.2,5.2,0,0,1-2.91,1.5,71.71,71.71,0,0,0,.44-8.34v-19a1.23,1.23,0,0,1,1.23-1.23h7.17a1.23,1.23,0,0,1,1.24,1.23v38a3.6,3.6,0,0,1-.31,1.18,1.37,1.37,0,0,1-.68.64,3.11,3.11,0,0,1-.84.19c-.5.07-2.84-.23-3.25,1.73a2.69,2.69,0,0,0,1.48,3s3.08,1.4,5.19-2.28a6.7,6.7,0,0,0,.68-1.71h0a.58.58,0,0,0,0-.13v-.05c0-.1,0-.27.08-.47,0,0,0-.08,0-.12a12.69,12.69,0,0,0,.1-1.58V124.64A1.24,1.24,0,0,0,246.61,123.41Z"/><path class="cls-1" d="M238.08,135.19a2.9,2.9,0,0,0-1.61,3.23c.44,2.11,3,1.79,3.5,1.87a3.51,3.51,0,0,1,2.45,1.34,5.12,5.12,0,0,1,1.27,3.14,7.47,7.47,0,0,0,0-7.12C241.4,133.68,238.08,135.19,238.08,135.19Z"/><path class="cls-1" d="M137.81,144.21a56.57,56.57,0,0,0-6.54-4.64,1.22,1.22,0,0,1-.35-1.75h0a1.21,1.21,0,0,1,1.57-.35,54.65,54.65,0,0,1,7,4.71,1.24,1.24,0,0,1,.22,1.64l-.1.13A1.18,1.18,0,0,1,137.81,144.21Z"/><path class="cls-1" d="M131.76,167.74c2.25-4,5.18-10.06,7.5-15.45a1.18,1.18,0,0,1,1.88-.42h0a1.21,1.21,0,0,1,.32,1.35c-2.12,5.17-4.91,11.28-7.37,15.86a1.18,1.18,0,0,1-1.78.37l-.27-.21A1.19,1.19,0,0,1,131.76,167.74Z"/><path class="cls-1" d="M139.87,129.27a55.88,55.88,0,0,0-6.14-4.65,1.19,1.19,0,0,1-.27-1.76h0a1.19,1.19,0,0,1,1.53-.27,54.18,54.18,0,0,1,6.61,4.71,1.19,1.19,0,0,1,.18,1.6l-.12.18A1.21,1.21,0,0,1,139.87,129.27Z"/><path class="cls-1" d="M149,162.55a33.45,33.45,0,0,0-2.15-6.37,1.19,1.19,0,0,1,.69-1.61h0a1.19,1.19,0,0,1,1.45.6,33.44,33.44,0,0,1,2.41,6.84,1.2,1.2,0,0,1-.76,1.37l-.08,0A1.19,1.19,0,0,1,149,162.55Z"/><path class="cls-1" d="M179.67,155.71a38.68,38.68,0,0,1-14.73,15.38,1.26,1.26,0,0,1-1.57-.24h0a1.26,1.26,0,0,1,.32-1.95,35.44,35.44,0,0,0,13.64-14.36,1.27,1.27,0,0,1,1.53-.63l.09,0A1.26,1.26,0,0,1,179.67,155.71Z"/><path class="cls-1" d="M178.59,140.08A41.3,41.3,0,0,1,167.9,152a1.27,1.27,0,0,1-1.66-.12l0,0a1.29,1.29,0,0,1,.14-2,36.87,36.87,0,0,0,10-11.09,1.29,1.29,0,0,1,1.54-.59h0A1.29,1.29,0,0,1,178.59,140.08Z"/><path class="cls-1" d="M165.15,162.87l-6.66,1.38a8.85,8.85,0,0,0,2.67-2.18c3.7-4.45.44-7.71.44-7.71a3.68,3.68,0,0,0-4.54-.48c-2.3,1.46-.8,4.31-.65,5a4.47,4.47,0,0,1-.51,3.49,7,7,0,0,1-3.16,3h0l-9.22,1.86a1.15,1.15,0,0,0-.86,1.48l.36,1.21c5.91-1.22,14.33-3,22.35-4.73Z"/><path class="cls-1" d="M165.69,123.29a2.56,2.56,0,0,0-2.85-1.41c-1.85.39-1.57,2.61-1.63,3.09a2.83,2.83,0,0,1-.19.79,1.31,1.31,0,0,1-.6.66,3.51,3.51,0,0,1-1.18.29h-1.18l-.14,0h-1.69a1.17,1.17,0,0,1-1.17-1.17v-3.17a1.17,1.17,0,0,0-1.17-1.17h-.22a1.17,1.17,0,0,0-1.17,1.17v3.17a1.17,1.17,0,0,1-1.17,1.17h-6.64a1.18,1.18,0,0,0-1.17,1.17v.06a1.17,1.17,0,0,0,1.17,1.17h6.64a1.17,1.17,0,0,1,1.17,1.17v3.18a1.17,1.17,0,0,1-1.17,1.17h-5.69a1.17,1.17,0,0,0,0,2.34H161.7a1.17,1.17,0,1,0,0-2.34h-5.47a1.17,1.17,0,0,1-1.17-1.17v-3.18a1.17,1.17,0,0,1,1.17-1.17h3.44a13.51,13.51,0,0,0,1.5-.09l.12,0,.45-.08h0l.13,0h0a6.49,6.49,0,0,0,1.62-.64C167,126.21,165.69,123.29,165.69,123.29Z"/><path class="cls-1" d="M178.05,124.27a51.39,51.39,0,0,1-10.61,12.42,1.25,1.25,0,0,1-1.63-.05l-.12-.11a1.23,1.23,0,0,1,.08-1.88A45.58,45.58,0,0,0,175.91,123a1.25,1.25,0,0,1,1.48-.55h0A1.25,1.25,0,0,1,178.05,124.27Z"/><path class="cls-1" d="M161.08,140.85H146.59a1.39,1.39,0,0,0-1.39,1.39v8.93a1.39,1.39,0,0,0,1.39,1.39h14.49a1.4,1.4,0,0,0,1.4-1.39v-8.93A1.4,1.4,0,0,0,161.08,140.85Zm-.78,5.89a3.59,3.59,0,0,1-3.57,3.58H151a3.58,3.58,0,0,1-3.57-3.58v-.43a3.57,3.57,0,0,1,3.57-3.57h5.78a3.58,3.58,0,0,1,3.57,3.57Z"/><path class="cls-1" d="M234.5,196.34a6.86,6.86,0,0,1-6.06-2.41c-2.63-3.27-.23-5.59-.23-5.59a2.67,2.67,0,0,1,3.3-.29c1.65,1.08.53,3.13.41,3.61a3.22,3.22,0,0,0,.32,2.54A4.73,4.73,0,0,0,234.5,196.34Z"/><path class="cls-1" d="M238.58,196.34a6.88,6.88,0,0,0,6.07-2.41c2.62-3.27.23-5.59.23-5.59a2.67,2.67,0,0,0-3.3-.29c-1.65,1.08-.53,3.13-.42,3.61a3.22,3.22,0,0,1-.32,2.54A4.73,4.73,0,0,1,238.58,196.34Z"/><path class="cls-1" d="M248.28,220.63h-9.8a1.23,1.23,0,0,1-1.22-1.23v-6.81a1.22,1.22,0,0,1,1.22-1.22h7.46a1.22,1.22,0,0,0,1.22-1.22h0a1.22,1.22,0,0,0-1.22-1.22h-7.46a1.22,1.22,0,0,1-1.22-1.22v-6.2a1.22,1.22,0,0,1,1.22-1.22H247a1.22,1.22,0,0,0,1.22-1.22h0a1.22,1.22,0,0,0-1.22-1.22H225.14a1.22,1.22,0,0,0-1.22,1.22h0a1.23,1.23,0,0,0,1.22,1.23l7.86,0a1.23,1.23,0,0,1,1.22,1.23v6.19A1.22,1.22,0,0,1,233,209l-6.6,0a1.21,1.21,0,0,0-1.23,1.22h0a1.22,1.22,0,0,0,1.21,1.22l6.64.05a1.22,1.22,0,0,1,1.22,1.22v6.81a1.23,1.23,0,0,1-1.23,1.22l-8.62-.05a1.23,1.23,0,0,0,0,2.45H233a1.22,1.22,0,0,1,1.23,1.22v3.54h0v3a6.45,6.45,0,0,1-.19,1.24,1.19,1.19,0,0,1-.61.72,3.42,3.42,0,0,1-.88.2c-.52.07-3-.24-3.4,1.8a2.82,2.82,0,0,0,1.56,3.14s3.34,1.57,5.55-2.28a7.39,7.39,0,0,0,.6-1.38,10.76,10.76,0,0,0,.32-1.32,10.34,10.34,0,0,0,.11-1.65v-3.49h0V224.3a1.22,1.22,0,0,1,1.22-1.22h9.8a1.23,1.23,0,0,0,1.23-1.23h0A1.22,1.22,0,0,0,248.28,220.63Z"/><path class="cls-1" d="M166.15,189.07v0a1,1,0,0,0,.11,1.25,52.67,52.67,0,0,0,13.94,9,1,1,0,0,1,.46,1.32c-.1.2-.19.41-.28.61a1,1,0,0,1-1.31.49A61.85,61.85,0,0,1,165,192.2a1,1,0,0,0-1.37.07,49.86,49.86,0,0,1-13.48,10.07,1,1,0,0,1-1.24-.33c-.12-.19-.26-.39-.4-.59a1,1,0,0,1,.38-1.44c5.9-2.82,11.74-7.09,15.22-12.17a1,1,0,0,1,1.13-.38l.44.16A1,1,0,0,1,166.15,189.07Z"/><path class="cls-1" d="M153.39,204.91a1.3,1.3,0,0,0-1.3,1.29v8.68c0,5.94-.64,14.05-5.05,20.24a1.29,1.29,0,0,0,.31,1.8l0,0a1.31,1.31,0,0,0,1.85-.29c3.29-4.69,4.67-10.58,5.17-15.92a1.3,1.3,0,0,1,1.29-1.16h19.59a1.3,1.3,0,0,0,1.29-1.3V206.2a1.29,1.29,0,0,0-1.29-1.29Zm19.42,12.43H156a1.3,1.3,0,0,1-1.3-1.31c0-.39,0-.77,0-1.15v-.31a1.3,1.3,0,0,1,1.3-1.3h16.85a1.3,1.3,0,0,1,1.3,1.3V216A1.3,1.3,0,0,1,172.81,217.34Zm0-6.19H156a1.3,1.3,0,0,1-1.3-1.3v-1.42a1.3,1.3,0,0,1,1.3-1.29h16.85a1.3,1.3,0,0,1,1.3,1.29v1.42A1.3,1.3,0,0,1,172.81,211.15Z"/><rect class="cls-1" x="157.56" y="198.89" width="13.88" height="2.17" rx="1.09"/><path class="cls-1" d="M138.28,227.8v3a6.67,6.67,0,0,1-.19,1.25,1.19,1.19,0,0,1-.61.72,3.36,3.36,0,0,1-.87.2c-.53.07-3-.24-3.41,1.8a2.83,2.83,0,0,0,1.56,3.14s3.35,1.57,5.55-2.28a7.59,7.59,0,0,0,.61-1.38c.12-.34.27-1.11.32-1.32a9.42,9.42,0,0,0,.1-1.65V227.8Z"/><path class="cls-1" d="M147,212.49h0l-5.86,1.78h0V201.45h5.35v-2.56h-5.35V187.24h-2.62v11.65H131.3v2.56h7.19v13.66h0c-3,.89-5.63,1.67-7.8,2.23h0a2.81,2.81,0,0,0,3.51,1.78l.42-.13a2.81,2.81,0,0,1,3.67,2.68v9.23a2,2,0,0,1-.12,1.25,1.43,1.43,0,0,1-.72.67,3.42,3.42,0,0,1-.88.2c-.52.07-3-.24-3.4,1.8a2.82,2.82,0,0,0,1.56,3.14s3.22,1.47,5.42-2.38a9.45,9.45,0,0,0,.63-1.52,2.4,2.4,0,0,0,.12-.53c.07-.53.21-1.69.21-2.2l.22-3.31a1.15,1.15,0,0,0,0-.19v-8.9a2.83,2.83,0,0,1,1.95-2.69l4.07-1.3h0Z"/><path class="cls-1" d="M177,223.19h-21a.92.92,0,0,0-.92.92v12.71a.92.92,0,0,0,.92.92h.56a.92.92,0,0,0,.92-.92v-.17a.92.92,0,0,1,.92-.92h16.05a.92.92,0,0,1,.92.92.92.92,0,0,0,.92.92H177a.92.92,0,0,0,.92-.92V224.11A.92.92,0,0,0,177,223.19Zm-1.9,6.34a4.26,4.26,0,0,1-4.25,4.24h-8.43a4.26,4.26,0,0,1-4.24-4.24v-.27a4.26,4.26,0,0,1,4.24-4.25h8.43a4.26,4.26,0,0,1,4.25,4.25Z"/><path class="cls-1" d="M269.21,193.48v26.14a4.12,4.12,0,0,0,4.12,4.13h6.75a4.13,4.13,0,0,0,4.12-4.13V193.48a4.13,4.13,0,0,0-4.12-4.13h-6.75A4.12,4.12,0,0,0,269.21,193.48ZM277,221.4h-.65a4.12,4.12,0,0,1-4.13-4.12v-.22a4.13,4.13,0,0,1,4.13-4.13H277a4.12,4.12,0,0,1,4.12,4.13v.22A4.11,4.11,0,0,1,277,221.4Zm0-10.75h-.65a4.13,4.13,0,0,1-4.13-4.13v-.05a4.13,4.13,0,0,1,4.13-4.13H277a4.12,4.12,0,0,1,4.12,4.13v.05A4.12,4.12,0,0,1,277,210.65ZM277,200h-.65a4.13,4.13,0,0,1-4.13-4.12h0a4.13,4.13,0,0,1,4.13-4.13H277a4.12,4.12,0,0,1,4.12,4.13h0A4.12,4.12,0,0,1,277,200Z"/><path class="cls-1" d="M275.33,225.89a8.61,8.61,0,0,0-7.09,4.14c-2.65,4.57.77,7,.77,7a3.36,3.36,0,0,0,4.16-.27c1.85-1.66.07-4-.17-4.58a4.11,4.11,0,0,1-.08-3.22A6,6,0,0,1,275.33,225.89Z"/><path class="cls-1" d="M278.45,225.89a5.36,5.36,0,0,1,4.42,2.58c1.65,2.85-.48,4.37-.48,4.37a2.1,2.1,0,0,1-2.6-.17c-1.15-1,0-2.49.11-2.85a2.56,2.56,0,0,0,.05-2A3.68,3.68,0,0,0,278.45,225.89Z"/><rect class="cls-2" x="296.64" y="194.59" width="9.29" height="4.18" rx="1.11"/><rect class="cls-2" x="296.64" y="201" width="9.29" height="4.57" rx="1.11"/><path class="cls-1" d="M316.42,226.14h-1.51A1.11,1.11,0,0,1,313.8,225V212.88a1.12,1.12,0,0,0-1.12-1.12h-9.14a1.11,1.11,0,0,1-1.11-1.11v-1.73a1.12,1.12,0,0,1,1.11-1.12h12.6a1.12,1.12,0,0,0,0-2.23h-6.05a1.11,1.11,0,0,1-1.12-1.11v-2.34a1.12,1.12,0,0,1,1.12-1.12h3.82a1.12,1.12,0,0,0,0-2.23h-3.82a1.12,1.12,0,0,1-1.12-1.11v-1.95a1.12,1.12,0,0,1,1.12-1.12h4.77a1.12,1.12,0,0,0,0-2.23h-4.77a1.12,1.12,0,0,1-1.12-1.11v-2.84a1.12,1.12,0,0,0-1.11-1.12H307a1.12,1.12,0,0,0-1.11,1.12v2.84a1.12,1.12,0,0,1-1.12,1.11h-7.06a1.11,1.11,0,0,1-1.11-1.11v-2.84a1.12,1.12,0,0,0-1.12-1.12h-.81a1.12,1.12,0,0,0-1.12,1.12v2.84a1.11,1.11,0,0,1-1.11,1.11h-4.6a1.12,1.12,0,1,0,0,2.23h4.6a1.12,1.12,0,0,1,1.11,1.12v1.95a1.11,1.11,0,0,1-1.11,1.11h-3a1.12,1.12,0,1,0,0,2.23h3a1.12,1.12,0,0,1,1.11,1.12v2.34a1.11,1.11,0,0,1-1.11,1.11h-6.05a1.12,1.12,0,1,0,0,2.23h12.43a1.11,1.11,0,0,1,1.11,1.12v1.73a1.11,1.11,0,0,1-1.11,1.11h-8.75a1.12,1.12,0,0,0-1.12,1.12V225a1.11,1.11,0,0,1-1.11,1.11h-1.67a1.12,1.12,0,0,0-1.12,1.12h0a1.12,1.12,0,0,0,1.12,1.11h1.67a1.12,1.12,0,0,1,1.11,1.12v7.13a1.12,1.12,0,0,0,1.12,1.12h.28a1.12,1.12,0,0,0,1.11-1.12v-7.13a1.12,1.12,0,0,1,1.12-1.12h17.55a1.12,1.12,0,0,1,1.12,1.12v2.4a3.31,3.31,0,0,1-.31,1.24,1.35,1.35,0,0,1-.69.64,3.11,3.11,0,0,1-.84.19c-.5.07-2.84-.23-3.25,1.73a2.69,2.69,0,0,0,1.49,3s3.08,1.4,5.19-2.28a6.35,6.35,0,0,0,.68-1.71h0a.42.42,0,0,0,0-.13,5.67,5.67,0,0,0,.11-.66,11.84,11.84,0,0,0,.1-1.76v-2.66a1.12,1.12,0,0,1,1.11-1.12h1.51a1.11,1.11,0,0,0,1.11-1.11h0A1.12,1.12,0,0,0,316.42,226.14Zm-19-.58h-3.11a2.17,2.17,0,1,1,0-4.34h3.11a2.17,2.17,0,1,1,0,4.34Zm0-6.68h-3.11a2.17,2.17,0,0,1,0-4.34h3.11a2.17,2.17,0,1,1,0,4.34Zm-.79-23.17a1.12,1.12,0,0,1,1.11-1.12h7.06a1.12,1.12,0,0,1,1.12,1.12v1.95a1.12,1.12,0,0,1-1.12,1.11h-7.06a1.11,1.11,0,0,1-1.11-1.11Zm1.11,9.86a1.11,1.11,0,0,1-1.11-1.11v-2.34a1.12,1.12,0,0,1,1.11-1.12h7.06a1.12,1.12,0,0,1,1.12,1.12v2.34a1.11,1.11,0,0,1-1.12,1.11Zm10.55,20h-3.11a2.17,2.17,0,1,1,0-4.34h3.11a2.17,2.17,0,1,1,0,4.34Zm0-6.68h-3.11a2.17,2.17,0,0,1,0-4.34h3.11a2.17,2.17,0,0,1,0,4.34Z"/><path class="cls-1" d="M231.37,221.57a5.75,5.75,0,0,1-4.94,2.11,20.82,20.82,0,0,1-8.84-2.4,1.4,1.4,0,0,1-.58-1,9.06,9.06,0,0,0,2.55-1.36s1.31-.76-.42-11.67c-.23-1.4-.41-2.58-.58-3.75,1-.4,5.83-2.57,5-5.61-.92-3.26-6.23-7.09-6.68-7.41-.45-2.26-1.14-4.18-2.29-4.18-.39,0-1.87.54-3.29,4.16h0a77.38,77.38,0,0,0-6.81,6.59c-1.06,2.37,3.37,5.16,4.28,5.7-.92,6.29-.67,3.14-1.4,14.67a1.38,1.38,0,0,0,.56,1.2c.2.15.46.32.76.5,0,.18-.1.38-.16.59-1,3.48-2.19,3.39-2.49,5.07s-1.29,3-2.11,3c-.45,0-1.43-.29-2.86-3.33s-3.19-1.63-3.35-1.07-.15,1.14.09,1.25.34-.26.47-.76.54-.62.94-.1.61,2.79,1.55,4.4,2.84,2.75,4.58,1.1l1.74-1.66s-.62,1.59-1.3,2.95-4.12,3-4.72,4.26a4.48,4.48,0,0,0-.65,2.41c0,.69.47.36.57-.69a3.2,3.2,0,0,1,1.89-2.27,11.2,11.2,0,0,0,4-2.86,7.34,7.34,0,0,0,1.25-3.6,20.5,20.5,0,0,1-.65,4.48,11.71,11.71,0,0,0-1.36,4.12c0,1.61.47,2.19.58,2.24s.49.07.1-.91.46-3.19,1.32-4.8a19.39,19.39,0,0,0,1.62-4.61,9,9,0,0,1,.11,5c-.75,2.81-1.79,3-1.18,5.42,0,0,.48.82.42-.39s.55-2,1.74-3.35,2.08-5.14,1.58-8.16a27.43,27.43,0,0,0,3.82,5.8s1.87,1.42,1.35,2.87-2.58,2.75-2.84,3.33.41.2.41.2,2.66-1.29,3.25-2.56,1.39-2.42-.17-5.19-2.24-4.4-2.23-4.92a21.6,21.6,0,0,0,3.43,3.76,2.61,2.61,0,0,1,1.26,2.7c-.18.57.29.07.29.07a2.44,2.44,0,0,0,0-1.78,7.87,7.87,0,0,0-2.14-2.82c-.66-.58-2.87-4-2.79-5.31a16,16,0,0,0,9.46,2.16c5.42-.5,6.33-3.6,6.33-3.6S232,221,231.37,221.57Z"/><path class="cls-3" d="M229.55,219.77a5.82,5.82,0,0,1-5,2.11,21.11,21.11,0,0,1-8.83-2.4,1.42,1.42,0,0,1-.58-1,9.32,9.32,0,0,0,2.55-1.36s1.31-.76-.42-11.67c-.23-1.4-.41-2.59-.58-3.76,1-.39,5.83-2.57,5-5.61-.92-3.25-6.23-7.09-6.68-7.4-.45-2.27-1.14-4.19-2.29-4.19-.39,0-1.87.54-3.29,4.16h0a79.26,79.26,0,0,0-6.81,6.59c-1.06,2.38,3.37,5.16,4.28,5.7-.92,6.29-.67,3.15-1.4,14.67a1.4,1.4,0,0,0,.56,1.21c.2.15.46.32.76.5l-.16.58c-1,3.48-2.19,3.4-2.49,5.07s-1.29,3-2.11,3c-.45,0-1.43-.3-2.86-3.33s-3.19-1.64-3.35-1.07-.15,1.13.09,1.24.34-.26.47-.75.54-.62.94-.11.61,2.79,1.55,4.41,2.84,2.75,4.58,1.09l1.74-1.65s-.62,1.59-1.3,2.94-4.12,3-4.72,4.27a4.45,4.45,0,0,0-.65,2.4c0,.69.47.37.56-.68a3.22,3.22,0,0,1,1.9-2.27,11.45,11.45,0,0,0,4-2.86,7.39,7.39,0,0,0,1.25-3.61,20.65,20.65,0,0,1-.65,4.49,11.64,11.64,0,0,0-1.36,4.12c0,1.61.47,2.19.58,2.23s.49.08.1-.9.46-3.2,1.32-4.8a19.54,19.54,0,0,0,1.62-4.61,9,9,0,0,1,.11,5c-.75,2.8-1.79,3-1.18,5.41,0,0,.48.82.42-.38s.55-1.95,1.74-3.36,2.08-5.14,1.58-8.16a27.43,27.43,0,0,0,3.82,5.8s1.87,1.42,1.35,2.87-2.58,2.76-2.84,3.34.41.19.41.19,2.66-1.29,3.25-2.56,1.39-2.42-.17-5.19-2.24-4.4-2.23-4.91a21.64,21.64,0,0,0,3.43,3.75,2.62,2.62,0,0,1,1.26,2.71c-.18.56.29.06.29.06a2.42,2.42,0,0,0,0-1.77,7.87,7.87,0,0,0-2.14-2.82c-.66-.58-2.87-4.05-2.79-5.32a16,16,0,0,0,9.46,2.16c5.42-.5,6.33-3.59,6.33-3.59S230.15,219.22,229.55,219.77Z"/><path class="cls-1" d="M122.71,199.58c-1.38,1.27-3.91,5-11.44,4.88s-17.59-3.5-20.42-5.55a3.27,3.27,0,0,1-1.36-2.33,21,21,0,0,0,5.9-3.15s3-1.75-1-27c-.51-3.23-.94-6-1.32-8.68,2.2-.91,13.47-5.94,11.48-13-2.13-7.53-14.41-16.4-15.44-17.13-1-5.24-2.64-9.68-5.3-9.68-.9,0-4.33,1.26-7.61,9.63h0a178.66,178.66,0,0,0-15.74,15.24C58,148.34,68.28,154.79,70.38,156c-2.13,14.54-1.56,7.28-3.23,33.93a3.2,3.2,0,0,0,1.29,2.78c.46.35,1.06.74,1.75,1.16-.1.42-.23.86-.37,1.35-2.39,8.05-5.07,7.85-5.76,11.72s-3,7-4.87,6.91c-1,0-3.3-.69-6.61-7.7-3.44-7.3-7.39-3.79-7.76-2.48s-.34,2.63.2,2.88.8-.6,1.1-1.74,1.24-1.44,2.18-.25,1.4,6.46,3.58,10.19,6.56,6.36,10.59,2.53l4-3.83s-1.44,3.68-3,6.81-9.52,7-10.91,9.87-1.55,4-1.5,5.56,1.07.84,1.3-1.59a7.44,7.44,0,0,1,4.38-5.25c2.94-1,8.16-4.85,9.28-6.61a17.29,17.29,0,0,0,2.89-8.34c.19-.35-.61,8.26-1.51,10.37-.74,1.76-3,5.8-3.15,9.53s1.09,5.07,1.34,5.17,1.14.17.23-2.09,1.06-7.39,3.06-11.1a44.55,44.55,0,0,0,3.74-10.67,20.81,20.81,0,0,1,.25,11.66c-1.72,6.49-4.14,6.9-2.72,12.52,0,0,1.12,1.9,1-.89s1.26-4.51,4-7.75S80,218.8,78.81,211.81c0,0,4.62,9.31,8.84,13.41,0,0,4.32,3.28,3.13,6.64s-6,6.37-6.56,7.71.93.45.93.45,6.15-3,7.53-5.93,3.2-5.59-.41-12-5.18-10.17-5.15-11.36c0,0,5.07,6.85,7.94,8.68A6.09,6.09,0,0,1,98,225.67c-.41,1.3.67.15.67.15a5.68,5.68,0,0,0,0-4.1c-.82-2.46-3.43-5.18-5-6.52s-6.63-9.36-6.44-12.3a37,37,0,0,0,21.87,5c12.52-1.15,14.65-8.31,14.65-8.31S124.09,198.32,122.71,199.58Z"/><path class="cls-3" d="M113.61,194.28c-1.38,1.27-3.92,5-11.45,4.89s-17.58-3.51-20.42-5.56a3.3,3.3,0,0,1-1.36-2.33,21,21,0,0,0,5.9-3.15s3-1.75-1-27c-.51-3.23-.93-6-1.32-8.68,2.2-.91,13.48-5.94,11.48-13C93.34,132,81.06,123.1,80,122.37c-1-5.24-2.64-9.68-5.29-9.68-.91,0-4.34,1.26-7.61,9.63h0a178.13,178.13,0,0,0-15.75,15.24c-2.45,5.48,7.8,11.93,9.89,13.18C59.14,165.27,59.72,158,58,184.66a3.21,3.21,0,0,0,1.3,2.79c.46.34,1,.73,1.75,1.15-.11.42-.23.86-.38,1.35C58.33,198,55.64,197.8,55,201.68s-3,7-4.87,6.9c-1,0-3.3-.69-6.61-7.7-3.44-7.29-7.38-3.79-7.76-2.48s-.34,2.63.21,2.88.79-.6,1.09-1.74,1.24-1.44,2.19-.25,1.39,6.46,3.57,10.19,6.56,6.36,10.59,2.53l4-3.83s-1.43,3.69-3,6.82-9.52,7-10.91,9.86-1.55,4-1.5,5.56,1.07.84,1.3-1.59a7.46,7.46,0,0,1,4.38-5.25c2.94-1,8.17-4.85,9.28-6.61a17.29,17.29,0,0,0,2.89-8.34c.2-.35-.61,8.26-1.5,10.37-.75,1.76-3.06,5.8-3.16,9.53s1.1,5.07,1.34,5.17,1.15.17.23-2.09,1.06-7.39,3.06-11.1a44.55,44.55,0,0,0,3.74-10.67,20.7,20.7,0,0,1,.25,11.66c-1.71,6.49-4.14,6.9-2.72,12.52,0,0,1.12,1.91,1-.89s1.27-4.51,4-7.75,4.81-11.88,3.66-18.87c0,0,4.62,9.31,8.83,13.41,0,0,4.32,3.28,3.13,6.64s-6,6.37-6.56,7.71.93.45.93.45,6.15-3,7.53-5.93,3.2-5.59-.41-12S78,206.62,78,205.43c0,0,5.06,6.85,7.93,8.68a6.09,6.09,0,0,1,2.91,6.26c-.41,1.3.67.15.67.15a5.68,5.68,0,0,0,0-4.1c-.82-2.46-3.43-5.18-5-6.52s-6.64-9.36-6.45-12.3a37,37,0,0,0,21.87,5c12.52-1.15,14.65-8.31,14.65-8.31S115,193,113.61,194.28Z"/></svg>