<svg id="圖層_1" data-name="圖層 1" xmlns="http://www.w3.org/2000/svg" viewBox="0 0 200 200"><defs><style>.cls-1{fill:none;}.cls-2{fill:#dd5f2e;}</style></defs><polygon class="cls-1" points="51.55 138.93 78.25 157.66 78.28 90.22 51.57 71.49 51.55 138.93"/><polygon class="cls-1" points="146.58 64.98 101.57 13.4 87.73 82.18 146.58 64.98"/><polygon class="cls-1" points="52.72 62.3 79.58 81.17 92.22 18.34 52.72 62.3"/><polygon class="cls-1" points="100.21 189.48 137.02 153.64 88.45 167.99 100.21 189.48"/><polygon class="cls-1" points="86.45 160.04 148.48 141.7 148.49 72.95 86.47 91.14 86.45 160.04"/><path class="cls-2" d="M156.68,64.23a5,5,0,0,0-1.48-3.55c-.42-.49-49.68-55.28-51.77-57.6A5.64,5.64,0,0,0,95,3L44.69,59a3.87,3.87,0,0,0-1.29,2.63l0,79.1a4.33,4.33,0,0,0,1,3.49l50,52.58a6.31,6.31,0,0,0,3.81,2.06c.12,0,.49,0,.87,0h.5a6.45,6.45,0,0,0,4.65-1.8l51.66-50.71h0a3.68,3.68,0,0,0,.83-2.8ZM101.57,13.4l45,51.58L87.73,82.18ZM78.25,157.66l-26.7-18.73,0-67.44L78.28,90.22ZM52.72,62.3l39.5-44L79.58,81.17Zm47.49,127.18L88.46,168,137,153.64Zm48.27-47.78L86.45,160l0-68.9,62-18.19Z"/></svg>