<svg id="圖層_1" data-name="圖層 1" xmlns="http://www.w3.org/2000/svg" viewBox="0 0 353 353"><defs><style>.cls-1{fill:#63a7b1;}.cls-2{fill:#db5b10;}.cls-3{fill:#f5b419;}.cls-4{fill:#eecda1;}.cls-5{fill:#eed9b3;}.cls-6{fill:#f09e19;}</style></defs><circle class="cls-1" cx="30.53" cy="141.25" r="7.84"/><path class="cls-2" d="M30.53,211.43a5.84,5.84,0,0,1-5.83-5.83V156.94a5.83,5.83,0,0,1,11.66,0v39.6L93,170.74a5.83,5.83,0,1,1,4.83,10.61L33,210.91A5.86,5.86,0,0,1,30.53,211.43Z"/><path class="cls-3" d="M145.87,210.21a5.76,5.76,0,0,1-3.15-.93,5.82,5.82,0,0,1-2.68-4.9V166.2a5.83,5.83,0,1,1,11.66,0v29.12l83.09-37.85a5.82,5.82,0,1,1,4.83,10.6l-91.33,41.61A5.71,5.71,0,0,1,145.87,210.21Z"/><path class="cls-3" d="M64.54,221.76a5.83,5.83,0,0,1-2.42-11.13L94.33,196a5.82,5.82,0,1,1,4.83,10.6L67,221.24A5.72,5.72,0,0,1,64.54,221.76Z"/><path class="cls-1" d="M114.24,157.82a5.83,5.83,0,0,1-1.84-11.36L155.86,132A5.83,5.83,0,0,1,159.54,143l-43.45,14.48A5.7,5.7,0,0,1,114.24,157.82Z"/><path class="cls-4" d="M107.44,184.84a5.82,5.82,0,0,1-1.85-11.35l58.85-19.62a5.83,5.83,0,1,1,3.69,11.06l-58.85,19.61A5.63,5.63,0,0,1,107.44,184.84Z"/><path class="cls-2" d="M106.16,224.65a5.83,5.83,0,0,1-1.55-11.45c13.1-3.62,19.82-33,21.14-43a5.83,5.83,0,0,1,11.56,1.52c-.62,4.73-6.71,46.37-29.59,52.69A5.65,5.65,0,0,1,106.16,224.65Z"/><path class="cls-4" d="M204,216.59a5.83,5.83,0,0,1-5.83-5.83V150.49a5.83,5.83,0,1,1,11.66,0v60.27A5.83,5.83,0,0,1,204,216.59Z"/><path class="cls-2" d="M236.6,156.32a5.83,5.83,0,0,1-5.83-5.83,10.48,10.48,0,0,0-21,0,5.83,5.83,0,1,1-11.66,0,22.14,22.14,0,0,1,44.28,0A5.83,5.83,0,0,1,236.6,156.32Z"/><path class="cls-3" d="M261.43,215.4c-6.22,0-11.29-2-15.07-5.87-8-8.2-7.5-22.39-7.18-32.75.06-1.77.11-3.44.11-4.85a5.83,5.83,0,1,1,11.66,0c0,1.6-.06,3.35-.11,5.21-.25,7.81-.62,19.62,3.89,24.28,1,1,2.72,2.33,6.7,2.33s5.56-1.31,6.51-2.29c4.6-4.72,4.28-16.72,4.06-24.66-.05-1.73-.09-3.37-.09-4.87a5.83,5.83,0,1,1,11.66,0c0,1.34,0,2.9.08,4.56.29,10.49.68,24.85-7.35,33.1C272.54,213.45,267.54,215.4,261.43,215.4Z"/><path class="cls-1" d="M324.28,214.46a5.83,5.83,0,0,1-5.83-5.83c0-1.5.05-3.14.1-4.88.21-7.93.54-19.93-4.06-24.65-1-1-2.67-2.29-6.52-2.29s-5.73,1.33-6.69,2.33c-4.52,4.66-4.15,16.46-3.9,24.27.06,1.87.11,3.62.11,5.22a5.83,5.83,0,1,1-11.65,0c0-1.41-.06-3.08-.11-4.85-.33-10.36-.78-24.55,7.18-32.75,3.77-3.9,8.84-5.87,15.06-5.87s11.12,2,14.87,5.81c8,8.25,7.64,22.61,7.36,33.1-.05,1.66-.09,3.22-.09,4.56A5.83,5.83,0,0,1,324.28,214.46Z"/><path class="cls-1" d="M79.13,215.07a5.83,5.83,0,0,1-5.83-5.83V152A5.83,5.83,0,1,1,85,152v57.25A5.83,5.83,0,0,1,79.13,215.07Z"/><path class="cls-4" d="M65.09,164.21a5.83,5.83,0,0,1-2.42-11.13L93,139.26a5.83,5.83,0,0,1,4.83,10.61L67.5,163.69A5.88,5.88,0,0,1,65.09,164.21Z"/><circle class="cls-1" cx="213.4" cy="252.92" r="9.7"/><circle class="cls-5" cx="239.78" cy="252.92" r="9.7"/><circle class="cls-3" cx="266.15" cy="252.92" r="9.7"/><circle class="cls-6" cx="292.52" cy="252.92" r="9.7"/><circle class="cls-2" cx="318.89" cy="252.92" r="9.7"/></svg>