<svg id="圖層_1" data-name="圖層 1" xmlns="http://www.w3.org/2000/svg" viewBox="0 0 353 353"><defs><style>.cls-1{fill:#008062;}.cls-2{fill:none;}.cls-3{fill:#fff;}.cls-4{fill:#ed2525;}.cls-5{fill:#ff6000;}</style></defs><g id="圖層_1-2" data-name="圖層 1"><path class="cls-1" d="M290.43,198.28a56.67,56.67,0,0,1-5.71.71,40,40,0,0,1-19.48-3,1,1,0,0,0-1.22.38l-.94,1.46a1,1,0,0,0,.3,1.37l.13.07a43.72,43.72,0,0,0,21.42,3.4,61.16,61.16,0,0,0,6.21-.77c2.89-.5,5.4-1,7.69-1.63,1.21-.32,2.39-.65,3.55-1a1,1,0,0,0,.67-1.2l-.05-.14-.67-1.55a1,1,0,0,0-1.21-.55A84.59,84.59,0,0,1,290.43,198.28Z"/><path class="cls-2" d="M253.68,165.22h5.17a2.48,2.48,0,0,0,2.6-2.1c.41-1.57,0-2.35-1.27-2.35h-5.25a2.53,2.53,0,0,0-2.62,2.18C251.91,164.46,252.37,165.22,253.68,165.22Z"/><path class="cls-2" d="M268.85,178.74h6.48c1.36,0,2.25-.78,2.66-2.35s0-2.44-1.33-2.44h-6.48c-1.36,0-2.25.79-2.66,2.35S267.54,178.74,268.85,178.74Z"/><path class="cls-2" d="M272.39,165.22h6.48a2.5,2.5,0,0,0,2.6-2.1c.41-1.57,0-2.35-1.27-2.35h-6.57A2.54,2.54,0,0,0,271,163C270.61,164.46,271.07,165.22,272.39,165.22Z"/><path class="cls-2" d="M256.65,174h-5.17c-1.36,0-2.25.79-2.66,2.35s0,2.44,1.33,2.44h5.17c1.36,0,2.25-.78,2.66-2.35S258,174,256.65,174Z"/><path class="cls-1" d="M216.47,172.14c2.55,0,5.1,0,7.64,0a5.55,5.55,0,0,0,5.18-3l6-10.43q4.53-8,9-16c1.15-2,.65-2.86-1.71-2.87h-3.74v0c-1.4,0-2.82,0-4.22,0a5,5,0,0,0-4.42,2.6q-7.68,13.47-15.26,27C213.91,171.2,214.46,172.11,216.47,172.14Z"/><path class="cls-1" d="M308.08,201.89l-1.25.28h-.09c-15.43,3.08-21.52,4-32.77,3a46.89,46.89,0,0,1-14.9-3.56c-1.66-.72-1.95-2-1.19-3a70.66,70.66,0,0,0,4.76-8.4c.82-1.68,1.89-2.52,3.2-2.52h16.24a3,3,0,0,0,3.14-2.6l8-30.73q.64-2.52-1.89-2.52H275.87c-1.31,0-1.78-.73-1.4-2.19a2.45,2.45,0,0,1,2.58-2h12.36a3,3,0,0,0,3.14-2.6l1.08-4.12c.44-1.68-.19-2.52-1.88-2.52h-37.4a3,3,0,0,0-3.12,2.52l-1.1,4.2c-.43,1.68.19,2.52,1.88,2.52h11.51c1.3,0,1.77.73,1.39,2.19a2.43,2.43,0,0,1-2.58,2H248.16a3,3,0,0,0-3.14,2.6L237,185.2c-.43,1.68.19,2.52,1.88,2.52H251.9q2,0,.84,2.1a17.92,17.92,0,0,1-1.45,2.11q-2.17,2.35-4,1.18l-2.52-2.28a3.59,3.59,0,0,0-4.88-.84l-2.69,1.51c-1.9,1.18-2.12,2.77-.68,4.79l1.69,2c1.33,1.39,1.18,2.56-.29,3.18s-3.53,1.34-5.42,1.95c-7.3,2.4-9.39-1.75-8.78-4.39.43-1.86.61-2.58,1.22-4.67.13-.44.24-.89.37-1.34h0q2.07-7.46,4.16-14.92c.7-2.48,0-3.45-2.57-3.48-1.47,0-2.93,0-4.39,0-2.93,0-4.1,1-4.88,3.75-1.22,4.44-2.47,8.86-3.7,13.3l-.37,1.34h0c-.39,1.39-.81,2.89-1.24,4.44a10,10,0,0,1-6.33,6.82,29.8,29.8,0,0,1-5.36,1.17c-4.65.69-9.94,1.68-17.93.87a3.83,3.83,0,0,0-4.55,3.66h0c-.21,2.48-.49,4.8,2,5l2.36.15c2.5.14,5.67.16,7.55.18s5.53-.08,7.42-.08c7.31,0,15.07-2.6,19.3-4.43,2.65,1,4.17,2,8.44,2.49a23.13,23.13,0,0,0,10.2-1.36c2.3-.82,7.85-3,10.21-4.06a4.88,4.88,0,0,1,4.88.35,53.15,53.15,0,0,0,22.63,6.66c3.19.27,6,.41,8.72.41,7.57,0,14-1,25-3.21v0l.85-.21c1.95-.46,2.93-1.89,3.23-4.06l.36-3.12Q311.58,201.38,308.08,201.89ZM271,163a2.54,2.54,0,0,1,2.62-2.18h6.56c1.26,0,1.69.78,1.28,2.35a2.5,2.5,0,0,1-2.61,2.1h-6.47C271.07,165.22,270.61,164.46,271,163Zm-3.49,13.35c.4-1.56,1.29-2.35,2.66-2.35h6.48c1.3,0,1.75.81,1.33,2.44s-1.3,2.35-2.66,2.35h-6.48C267.53,178.74,267.09,177.93,267.52,176.3ZM252.31,163a2.53,2.53,0,0,1,2.62-2.18h5.25c1.26,0,1.68.78,1.27,2.35a2.48,2.48,0,0,1-2.6,2.1h-5.17C252.37,165.22,251.91,164.46,252.31,163Zm3,15.79h-5.16c-1.32,0-1.76-.81-1.34-2.44s1.3-2.35,2.67-2.35h5.17c1.31,0,1.76.81,1.33,2.44s-1.3,2.35-2.67,2.35Z"/><path class="cls-2" d="M145.33,179.83h-3.94a2.45,2.45,0,0,0-2.58,2L138,185.1c-.37,1.41.1,2.11,1.42,2.1h3.85a2.43,2.43,0,0,0,2.58-2l.83-3.19C147,180.55,146.59,179.83,145.33,179.83Z"/><path class="cls-2" d="M147.82,155h3.85a2.43,2.43,0,0,0,2.58-2l.75-2.85q.57-2.19-1.32-2.19h-3.94a2.44,2.44,0,0,0-2.57,2l-.77,2.93C146,154.26,146.5,155,147.82,155Z"/><path class="cls-2" d="M150.05,169l.86-3.27c.36-1.4-.11-2.1-1.42-2.1h-3.85a2.43,2.43,0,0,0-2.58,2l-.86,3.28c-.37,1.4.11,2.1,1.42,2.1h3.85A2.43,2.43,0,0,0,150.05,169Z"/><path class="cls-2" d="M188.07,160.68h-4.59c-1.37,0-2.15.37-2.34,1.09s.33,1.26,1.63,1.26H187c1.3,0,2.08-.31,2.28-.92C189.59,161.16,189.17,160.68,188.07,160.68Z"/><path class="cls-2" d="M190.47,150.26H186.2c-1.36,0-2.14.37-2.33,1.1s.32,1.26,1.62,1.26h4.27c1.37,0,2.14-.37,2.34-1.09S191.78,150.26,190.47,150.26Z"/><path class="cls-3" d="M184,193.52c-1-.05-2.11,0-3.16,0H167.15c-1,0-1.81.61-1.72,1.34.12.95,1,.74,1.61.74,3,0,6,0,9,0h9.35a2,2,0,0,0,2.13-1.44c1.3-3.77,2.78-7.48,4-11.27a3.12,3.12,0,0,1,2.84-2.34,5.08,5.08,0,0,0,2-.86c.28-.21.25-.79.37-1.2a4.43,4.43,0,0,0-1.23-.14c-1.19.22-2.35.61-3.54.77a2.38,2.38,0,0,0-2.13,1.8c-1.3,3.81-2.72,7.59-4.07,11.38A1.58,1.58,0,0,1,184,193.52Z"/><path class="cls-3" d="M178.76,183.07c-2.55,0-5.11,0-7.66,0a1.88,1.88,0,0,0-2.07,1.35c-.32,1-.71,2-1,3s-.14,1.46,1,1.66l14.45,2.43c.88.15,1.63,0,1.79-.85s-.74-1-1.44-1.11l-12-2.13c-.54-.09-1.23-.1-1.07-.89s.38-1.33,1.3-1.38h13.25c.36,0,.84.11,1.07-.06a9,9,0,0,0,1.25-1.3c-.44-.23-.87-.65-1.32-.65C183.78,183,181.27,183.07,178.76,183.07Z"/><path class="cls-3" d="M169.59,196.48a1.32,1.32,0,0,0-1.55,1.25,1.31,1.31,0,0,0,1.35,1.44A1.39,1.39,0,0,0,171,198v0A1.35,1.35,0,0,0,169.59,196.48Z"/><path class="cls-3" d="M180.69,196.41c-.29.39-.93.87-1,1.44-.13.76.54,1.28,1.41,1.35a1.45,1.45,0,0,0,1.51-1.42C182.51,197,182,196.55,180.69,196.41Z"/><path class="cls-4" d="M152.45,193.68l13.71-52.4c.44-1.68-.19-2.52-1.88-2.52H143.69c-1.59,0-2.6.9-3.08,2.69l-13.68,52.32c-.43,1.68.17,2.52,1.81,2.52h20.57A3,3,0,0,0,152.45,193.68Zm-6-40.81.77-2.93a2.43,2.43,0,0,1,2.57-2h3.94c1.26,0,1.7.73,1.32,2.18l-.75,2.84a2.43,2.43,0,0,1-2.58,2h-3.85C146.5,155,146,154.27,146.4,152.87Zm.24,29.14-.83,3.19a2.45,2.45,0,0,1-2.58,2h-3.85c-1.31,0-1.78-.7-1.42-2.1l.85-3.27a2.46,2.46,0,0,1,2.58-2h3.94c1.26,0,1.7.72,1.31,2.18Zm-3-11c-1.31,0-1.79-.7-1.42-2.1l.86-3.28a2.43,2.43,0,0,1,2.58-2h3.85c1.31,0,1.79.7,1.42,2.1l-.86,3.27a2.44,2.44,0,0,1-2.58,2Z"/><path class="cls-4" d="M147.9,200.39c-.57-1.57-1.83-1.79-3.76-.67l-2.8,1.59q-2.73,1.68-2.05,4.38a28.22,28.22,0,0,0,2.78,6.64c1.1,1.62,2.6,1.54,4.49-.26l2.84-2.68a3.37,3.37,0,0,0,.56-5A35.68,35.68,0,0,1,147.9,200.39Z"/><path class="cls-4" d="M209.89,142.2h-4.26c-1.3,0-1.76-.76-1.37-2.27s-.3-2.1-2-2.1h-4.11a2.83,2.83,0,0,0-3.05,2.27,2.5,2.5,0,0,1-2.6,2.1h-4.27c-1.31,0-1.77-.76-1.37-2.28s-.3-2.09-2-2.1h-4.34a2.75,2.75,0,0,0-2.9,2.28,2.48,2.48,0,0,1-2.6,2.1h-3.93a3,3,0,0,0-3.14,2.6l-.77,2.93c-.44,1.68.19,2.52,1.88,2.52H173q2,0,1.62,1.26c-.19.72-1,1.09-2.33,1.09h-1.72a3.05,3.05,0,0,0-3.15,2.6l-.77,2.92q-.65,2.52,1.89,2.52h1.72c1.3,0,1.86.42,1.63,1.26s-1,1.09-2.34,1.09h-5.33a3,3,0,0,0-3.14,2.6l-.75,2.86c-.44,1.68.19,2.52,1.88,2.52h14.93c1.31,0,1.87.39,1.66,1.17s-1,1-2.31,1h-12a3.06,3.06,0,0,0-3.15,2.6L156.89,193a2.35,2.35,0,0,1-2.42,2c-1.14,0-1.95.87-2.4,2.6l-.81,3.11c-.44,1.68,0,2.52,1.22,2.52s1.55.7,1.18,2.1l-1.89,7.22c-.43,1.68.19,2.52,1.88,2.52h4.18a3,3,0,0,0,3.14-2.6l1.9-7.18a2.43,2.43,0,0,1,2.58-2h19.11c1.3,0,1.92.25,1.85.76q-1.22,3.09-3.69,2.18a19.92,19.92,0,0,1-3.84-.67c-1.51-.51-2.34.08-2.51,1.76l-.26,4.11a2.91,2.91,0,0,0,2.18,3.28,16.88,16.88,0,0,0,8.76-.25,12.84,12.84,0,0,0,8.17-8.65q.74-2.52,2.22-2.52c.93,0,1.62-.87,2.07-2.6l.81-3.11q.66-2.52-.81-2.52c-.93,0-1.21-.7-.85-2.1l4.51-17.22c.43-1.68-.2-2.52-1.88-2.52H189.23c-1.32,0-1.87-.39-1.66-1.17s.94-1,2.31-1h14a3,3,0,0,0,3.14-2.6l.75-2.85q.64-2.52-1.89-2.52h-5.74c-1.31,0-1.86-.42-1.63-1.26s1-1.1,2.34-1.1h2.71a3,3,0,0,0,3.14-2.6l.77-2.92c.43-1.68-.19-2.52-1.89-2.52h-2.7c-1.3,0-1.86-.42-1.63-1.26s1-1.1,2.34-1.1h4.26a3,3,0,0,0,3.15-2.6l.77-2.92C212.22,143.05,211.58,142.2,209.89,142.2Zm-40.5,57a1.29,1.29,0,0,1-1.35-1.44A1.46,1.46,0,0,1,171,198a1.38,1.38,0,0,1-1.53,1.23Zm11.7,0c-.86-.07-1.53-.59-1.41-1.35.09-.57.73-1,1-1.44,1.26.14,1.83.54,1.9,1.37a1.46,1.46,0,0,1-1.52,1.42Zm8.79-18.27a2.33,2.33,0,0,1,2.13-1.79c1.21-.18,2.35-.56,3.54-.78a4.36,4.36,0,0,1,1.22.14c-.11.41-.08,1-.37,1.2a5,5,0,0,1-2,.86,3.12,3.12,0,0,0-2.83,2.34c-1.24,3.78-2.71,7.51-4,11.28a2,2,0,0,1-2.13,1.44c-3.12,0-6.24,0-9.35,0h-9c-.65,0-1.49.21-1.61-.75-.09-.73.68-1.33,1.72-1.34h13.73c1.05,0,2.1,0,3.15,0a1.59,1.59,0,0,0,1.77-1.19c1.34-3.82,2.75-7.59,4.06-11.41Zm-2.27,2.84a9,9,0,0,1-1.25,1.3c-.23.17-.71.05-1.07.05H172c-.93.06-1.17.7-1.3,1.38s.53.8,1.07.9l12,2.12c.69.13,1.62.14,1.44,1.12s-.92,1-1.8.85c-4.81-.83-9.63-1.63-14.45-2.44-1.18-.2-1.41-.56-1-1.65s.71-2,1-3a1.86,1.86,0,0,1,2.07-1.36c2.56,0,5.11,0,7.66,0s5,0,7.53,0c.45,0,.88.45,1.32.68Zm1.73-21.66c-.21.61-1,.92-2.27.92h-4.29q-2,0-1.62-1.26c.19-.72,1-1.09,2.33-1.09h4.58c1.1,0,1.52.48,1.27,1.43Zm2.78-10.58c-.2.72-1,1.09-2.34,1.09h-4.27c-1.32,0-1.86-.42-1.63-1.26s1-1.1,2.34-1.1h4.26c1.3,0,1.85.43,1.63,1.27Z"/><path class="cls-4" d="M133.27,201.41l-3.81-2.93a2.08,2.08,0,0,0-2.68.15c-.3.27-.61.53-.92.79L124,200.91c-2.89,1.85-7.88,3.72-16.47,4.7a150.11,150.11,0,0,1-21.39.67l-1.56-.05-.33,8.93,1.5.06c2.6.09,5.38.16,8.24.16,14.58,0,31.31-1.73,39.14-10.31l.34-.32a2.22,2.22,0,0,0,0-3.14Z"/><path class="cls-5" d="M97.39,215.3H52c-7.39,0-11.85-6.54-9.87-14.47l12.16-48.72c2-7.93,9.71-14.49,17.1-14.49h45.4c7.39,0,11.85,6.55,9.87,14.48l-12.16,48.71C112.48,208.88,104.77,215.3,97.39,215.3ZM69,146.69c-2.81,0-5.64,2.39-6.39,5.41L50.44,200.81c-.75,3,.88,5.42,3.7,5.42H99.53c2.82,0,5.64-2.4,6.4-5.42l12.16-48.71c.76-3-.88-5.41-3.69-5.41Z"/><path d="M65.43,162.94l-.1.38.2-.76Z"/><path d="M62.22,174.9l-.07.25.14-.51C62.33,174.52,62.26,174.77,62.22,174.9Z"/><path class="cls-5" d="M104.59,185.47l-2.23,1.26A5.12,5.12,0,0,0,104.59,185.47Z"/><polygon class="cls-2" points="72.14 164.7 83.22 164.7 82.61 166.97 71.53 166.97 72.14 164.7"/><path class="cls-2" d="M87.17,177.67l-.61,2.27h5.53c1.62,0,3.3-.12,4.69-.12l-1.3-2.14Z"/><polygon class="cls-2" points="70.52 170.74 81.59 170.74 80.95 173.14 69.88 173.14 70.52 170.74"/><polygon class="cls-2" points="90.64 164.7 101.84 164.7 101.24 166.97 90.03 166.97 90.64 164.7"/><polygon class="cls-2" points="89.02 170.74 100.22 170.74 99.58 173.14 88.38 173.14 89.02 170.74"/><path d="M82.55,203.34h.38C82.84,203.22,82.68,203.34,82.55,203.34Z"/><path class="cls-5" d="M106.6,190.63a2.27,2.27,0,0,0-2.21-3H96.33l.74-2.77,2.3-.12.52.88h0l.19.25h.13a2.67,2.67,0,0,0,1.71.63,1.31,1.31,0,0,0,.65-.13l2.25-1.25a4.62,4.62,0,0,0,.94-1.62,2.92,2.92,0,0,0-.12-1.89h0c-1-1.26-2.07-2.65-3.51-4.28h.63a4.13,4.13,0,0,0,3.67-2.9l0-.12h0l3-11.33h0l.1-.38a2.16,2.16,0,0,0-2.12-2.89H92l.57-2.14H112a4.14,4.14,0,0,0,3.67-2.9,2.22,2.22,0,0,0-2.12-2.9H94.24l.07-.25h0a4.27,4.27,0,0,0,0-2,2.56,2.56,0,0,0-2.55-1.78,4.23,4.23,0,0,0-3.49,1.76,4.51,4.51,0,0,0-1,2l-.07.25h-19a4.13,4.13,0,0,0-3.67,2.9,2.22,2.22,0,0,0,2.12,2.9H85.26l-.54,2H69.37a3.86,3.86,0,0,0-3.44,2.52l-.2.75-3,11.08-.33,1.26a2.09,2.09,0,0,0,2.06,2.64H79.85l-.65,2.39H73.28c-3.78,0-7.68,0-11.3-.12h-.12a3.91,3.91,0,0,0-3.51,2.77,2.06,2.06,0,0,0,2,2.77h.13c4.94-.13,10.23-.13,15.64-.13s10-.13,14-.38l-.71,2.65H58.16a4.31,4.31,0,0,0-3.83,3,2.27,2.27,0,0,0,2.22,3h5.78a9.64,9.64,0,0,1,7.22-3.9,5,5,0,0,1,5.12,3.9H87.76L87.44,195a2,2,0,0,1-2.11,1.76H84.7a4.73,4.73,0,0,0-4.31,3.4,2.51,2.51,0,0,0,2.49,3.4h4c3.77,0,6.11-2.14,7.29-6.55l.81-3h8A5.12,5.12,0,0,0,106.6,190.63ZM80.83,173.14H69.75l.65-2.4H81.48ZM82.48,167H71.4l.61-2.28H83.09Zm2.89,35.24.16-.13Zm1.09-4.53c.13,0,.09.13,0,0,.09.14.13,0,0,0Zm-.73,4.15c0-.12.15-.12.19-.25,0,.14,0,.14-.19.26Zm1-3.65.09.13Zm-.56,3c0-.12.2-.25.23-.37a.55.55,0,0,1-.23.38Zm.68-2.51c0,.12.06.25,0,.37a.38.38,0,0,0,0-.36Zm-.26,1.89.17-.63.17-.63-.17.63ZM92,179.92H86.44l.61-2.27h8.18l1.31,2.14c-1.3.14-2.93.14-4.57.14Zm7.61-6.79H88.38l.65-2.4h11.2Zm1.65-6.18H90l.61-2.28h11.2Z"/><ellipse class="cls-4" cx="67.97" cy="196.81" rx="2.88" ry="2.2" transform="translate(-112.77 93.44) rotate(-41.18)"/><path class="cls-4" d="M66.72,201.46a6.63,6.63,0,0,0,5.91-4.66,3.1,3.1,0,0,0-.45-3H65.26a6.89,6.89,0,0,0-2.07,3A3.52,3.52,0,0,0,66.72,201.46Zm1.93-7.18a1.87,1.87,0,0,1,1.84,2.52,3.53,3.53,0,0,1-3.19,2.52,1.87,1.87,0,0,1-1.84-2.52,3.53,3.53,0,0,1,3.19-2.52Z"/><path class="cls-4" d="M69.27,192.19a6.39,6.39,0,0,0-4,1.62h7A3,3,0,0,0,69.27,192.19Z"/></g></svg>