<svg xmlns="http://www.w3.org/2000/svg" viewBox="0 0 353 353"><defs><style>.cls-1{isolation:isolate;}.cls-2{fill:#e9511d;}.cls-3{fill:#f4a21a;}.cls-4{fill:none;}.cls-5{fill:#72b4c0;}.cls-6{fill:#006d7c;}.cls-7{fill:#f05a37;}.cls-8{fill:#d95800;}.cls-9{fill:#873927;}.cls-10{fill:#dd870b;}.cls-11{fill:#e5ccba;}.cls-12{fill:#fff;}.cls-13{fill:#d15120;}.cls-14,.cls-20{mix-blend-mode:multiply;}.cls-14,.cls-25{opacity:0.23;}.cls-15{fill:#f9ad5a;}.cls-16{fill:#b73913;}.cls-17{fill:#eab16c;}.cls-18,.cls-22,.cls-23,.cls-25{mix-blend-mode:overlay;}.cls-18{opacity:0.51;}.cls-19{fill:#f4a21b;}.cls-20{opacity:0.19;}.cls-21{fill:#652c1b;}.cls-22{opacity:0.47;}.cls-23{opacity:0.4;}.cls-24{fill:#f37c20;}</style></defs><g class="cls-1"><g id="圖層_1" data-name="圖層 1"><path class="cls-2" d="M213.83,141.17c-4.55,3.46-16.55,11.63-16.23,16.26.24,3.42,4.05,5.94,6.74,3.2,3.13-3.19-.66-6.64,10-19C214.66,141.35,214.16,140.92,213.83,141.17Z"/><path class="cls-2" d="M259.29,155.1c-1.28-6-14.87-10.13-20.31-12.53-.39-.17-.76.35-.44.63,13,10.87,12.5,15.87,14.71,16.75C257,161.43,260,158.58,259.29,155.1Z"/><path class="cls-3" d="M252.28,134.23a3.46,3.46,0,0,0,3.25-3.45v-.61s0-.39,0-.78v-.06a2.56,2.56,0,0,0,0-.39v0h0c-.29-1.67-2.26-3-4.64-3a5,5,0,0,0-4.26,2h0a4.2,4.2,0,0,1-3.06,1.85l-13,0V118.14h24.95a2.79,2.79,0,0,0,2.79-2.79v-1.27h0s0-.39,0-.78c0,0,0,0,0-.06a2.45,2.45,0,0,0,0-.38v0h0c-.29-1.66-2.24-2.95-4.61-2.95a5,5,0,0,0-4.25,2h0a4.15,4.15,0,0,1-3.24,1.86H230.49V103h0a1.09,1.09,0,0,0,0-.18v0h0c-.18-1-.91-1.77-3.08-1.77-2.56,0-2.74,1.54-2.74,1.61v1.51h0v9.59H200.08a3.24,3.24,0,0,0-3.24,3.24,1.17,1.17,0,0,0,1.17,1.17h26.63v11.59l-21.44,0a3.27,3.27,0,0,0-3.28,3.27,1.18,1.18,0,0,0,1.17,1.18l19.73.06h3.89v25.15h0v5.24a1.69,1.69,0,0,0,.9,1.61,3.77,3.77,0,0,0,3.44.14,2,2,0,0,0,1.37-2v-5h0V134.22h4.2l17.13.05A3.08,3.08,0,0,0,252.28,134.23Z"/><path class="cls-2" d="M123.05,203.69a1.15,1.15,0,0,0-1.36,1.05c-.09,1.21-.24,2.59-.45,4.15q-.45,3.2-1,3.75a1.67,1.67,0,0,1-1.22.55q-2.4,0-6.88-5.2a64.72,64.72,0,0,0,7.15-12.61,3.55,3.55,0,0,0-2.25-4.83,1.15,1.15,0,0,0-1.41.72,64.4,64.4,0,0,1-6.48,12.66q-4.51-7.12-5.48-18.82h17.69a3.15,3.15,0,0,0,3.14-3.15v-.55s0-.35,0-.71v0a2,2,0,0,0,0-.35v0h0c-.26-1.51-2-2.68-4.2-2.68a4.55,4.55,0,0,0-3.87,1.8h0a3.79,3.79,0,0,1-2.84,1.69H103.44c0-.62,0-1.59,0-2.89v-4.48a1.58,1.58,0,0,0-.83-1.49,3.49,3.49,0,0,0-3.19-.12A1.89,1.89,0,0,0,98.11,174v4.6h0c0,1.39,0,2.23,0,2.51H69.85c0-.08,0-.19,0-.3s0,0,0,0a1.49,1.49,0,0,0,0-.21h0c-.16-.9-.81-1.57-2.73-1.57-2.27,0-2.43,1.37-2.43,1.43v13.1a79.87,79.87,0,0,1-.4,8.83,36.54,36.54,0,0,1-1.7,7.46,35.82,35.82,0,0,1-1.9,4.66,3.63,3.63,0,0,0,1.26,4.65,1.16,1.16,0,0,0,1.6-.34q6.27-9.64,6.27-25.4v-8.22H98.45q1.38,15,7.54,23.26a53.24,53.24,0,0,1-5.58,6,3,3,0,0,0,0,4.37,1.15,1.15,0,0,0,1.5.08,53.07,53.07,0,0,0,7.13-6.93q6.47,6.54,10.94,6.54h.31a4.17,4.17,0,0,0,4-2.2q1-1.84,1.5-8.95A3.4,3.4,0,0,0,123.05,203.69Z"/><path class="cls-3" d="M96.94,191.66a1.16,1.16,0,0,0-1.15-1.15h-20a2.66,2.66,0,0,0-2.67,2.67,1.16,1.16,0,0,0,1.15,1.15h20A2.66,2.66,0,0,0,96.94,191.66Z"/><path class="cls-2" d="M105.91,222.93a1.16,1.16,0,0,0-1.28,1.12,24.58,24.58,0,0,1-.29,3.33,4.2,4.2,0,0,1-1.34,2.67q-1,.82-5.41,1l-4.81.16q-6.51,0-8.07-.6a2.29,2.29,0,0,1-1.57-2.33v-9.19a1.54,1.54,0,0,0-.82-1.47,3.47,3.47,0,0,0-3.15-.13,1.88,1.88,0,0,0-1.26,1.85v10.59a5,5,0,0,0,.57,2.41,5.43,5.43,0,0,0,1.67,1.86,5.26,5.26,0,0,0,2.54.95c1,.1,2.42.21,4.37.34s3.85.19,5.68.19q1.89,0,7.4-.26t7.3-1.68a4.72,4.72,0,0,0,1.79-3.88v-3.2A3.74,3.74,0,0,0,105.91,222.93Z"/><path class="cls-2" d="M92.33,214a3.75,3.75,0,0,0,3.75-3.75v-6.82a3.75,3.75,0,0,0-3.75-3.75H78.63a3.75,3.75,0,0,0-3.75,3.75v6.82A3.75,3.75,0,0,0,78.63,214Zm-9.26-11.09h4.58a3.76,3.76,0,0,1,0,7.51H83.07a3.76,3.76,0,0,1,0-7.51Z"/><path class="cls-2" d="M87.73,217.76c1.57.21,3.52,2.28,4.08,5.89.48,3,6,2.26,5-1.82S87.73,217.76,87.73,217.76Z"/><path class="cls-3" d="M64.57,230c1.12,5,7.91,2.69,6.75-.89-1.37-4.25-.29-7.61,1.39-8.75C72.71,220.38,63.4,224.83,64.57,230Z"/><path class="cls-3" d="M112.42,221.63c2.1.55,4.4,3.69,4.56,8.69.14,4.21,7.79,4.07,7.1-1.63C123.37,222.77,112.42,221.63,112.42,221.63Z"/><path class="cls-3" d="M110.61,178.68c1,2.39,5.37.65,3.73-2.48s-8.24-1.52-8.24-1.52C107.43,174.54,109.43,175.84,110.61,178.68Z"/><path class="cls-4" d="M161.24,221.51H200a5.7,5.7,0,0,0,5.7-5.7V196.32a5.7,5.7,0,0,0-5.7-5.7H161.24a5.7,5.7,0,0,0-5.7,5.7v19.49A5.7,5.7,0,0,0,161.24,221.51ZM200,215.29a3.3,3.3,0,0,1-4.69,3.76c-1.71-.68-1.34-4.56-11.41-13-.25-.21,0-.62.34-.49C188.45,207.43,199,210.66,200,215.29Zm-36.75-12a1.33,1.33,0,0,1-1.33-1.33,2.91,2.91,0,0,1,2.91-2.91h12.63v-.3h0V194a2,2,0,0,1,1.32-1.93,3.61,3.61,0,0,1,3.29.13,1.62,1.62,0,0,1,.85,1.54v5h0v.3h5a4,4,0,0,0,3-1.77h0a4.76,4.76,0,0,1,4.06-1.9c2.27,0,4.14,1.23,4.42,2.82h0v0a2.22,2.22,0,0,1,0,.37.43.43,0,0,1,0,0c0,.14,0,.28,0,.4h0V200a3.31,3.31,0,0,1-3.31,3.3h-13.9a32.34,32.34,0,0,1-1.52,3.45h0a21.07,21.07,0,0,1-7.07,7.62A31.44,31.44,0,0,1,163,219a1.32,1.32,0,0,1-1.51-.78,2.73,2.73,0,0,1,1.7-3.64,25.76,25.76,0,0,0,8.18-4.27q4.54-3.6,5.54-7Z"/><path class="cls-2" d="M154.06,226.13h53.15a4.36,4.36,0,0,0,4.37-4.37V185.91h0c0-.13,0-.28,0-.44a.13.13,0,0,0,0-.06,1.84,1.84,0,0,0,0-.41v0h0c-.31-1.77-2.39-3.13-4.91-3.13a5.28,5.28,0,0,0-4.52,2.11h0a4.42,4.42,0,0,1-3.33,2H155.54v-.32a1.64,1.64,0,0,0,0-.23v0h0c-.18-1-.92-1.77-3.09-1.77-2.56,0-2.74,1.54-2.74,1.62v36.58A4.37,4.37,0,0,0,154.06,226.13Zm1.48-29.81a5.7,5.7,0,0,1,5.7-5.7H200a5.7,5.7,0,0,1,5.7,5.7v19.49a5.7,5.7,0,0,1-5.7,5.7H161.24a5.7,5.7,0,0,1-5.7-5.7Z"/><path class="cls-3" d="M197.11,236.9a1.32,1.32,0,0,0-1.47,1.31,50.08,50.08,0,0,1-.31,5.44,5.22,5.22,0,0,1-1.21,3.21,4.13,4.13,0,0,1-1.86,1,39.26,39.26,0,0,1-4.29.37c-2.21.12-4.43.18-6.64.18q-8.58,0-10.7-.69a2.6,2.6,0,0,1-2.12-2.55V233.08h0v-1.47a1.82,1.82,0,0,0-1-1.73,4.06,4.06,0,0,0-3.71-.15,2.22,2.22,0,0,0-1.48,2.18V247a6,6,0,0,0,.67,2.87,6.21,6.21,0,0,0,2,2.2,6.05,6.05,0,0,0,2.92,1.08c1.1.12,2.88.25,5.36.38s5.08.2,7.79.2q14.64,0,17.32-1.78a5.67,5.67,0,0,0,2.69-5v-5.56A4.47,4.47,0,0,0,197.11,236.9Z"/><path class="cls-2" d="M176.59,229.87c2,.53,4.22,3.54,4.38,8.34.12,4,7.47,3.91,6.81-1.56C187.1,231,176.59,229.87,176.59,229.87Z"/><path class="cls-2" d="M218.13,242.67c-.91-7.59-15-9.07-15-9.07,2.7.72,5.65,4.74,5.85,11.16C209.19,250.16,219,250,218.13,242.67Z"/><path class="cls-2" d="M157,233.22c-5.5,3.32-12.59,9.33-13,13-.36,3.33,4.79,5.82,7.27,2.48,2.13-2.87-2.31-5,6.59-14.56C158.6,233.37,157.72,232.8,157,233.22Z"/><path class="cls-3" d="M184.23,205.56c-.3-.13-.59.28-.34.49,10.07,8.44,9.7,12.32,11.41,13a3.3,3.3,0,0,0,4.69-3.76C199,210.66,188.45,207.43,184.23,205.56Z"/><path class="cls-2" d="M171.36,210.28a25.76,25.76,0,0,1-8.18,4.27,2.73,2.73,0,0,0-1.7,3.64A1.32,1.32,0,0,0,163,219a31.44,31.44,0,0,0,10.65-4.64,21.07,21.07,0,0,0,7.07-7.62h0a32.34,32.34,0,0,0,1.52-3.45h13.9a3.31,3.31,0,0,0,3.31-3.3V199h0c0-.12,0-.26,0-.4a.43.43,0,0,0,0,0,2.22,2.22,0,0,0,0-.37v0h0c-.28-1.59-2.15-2.82-4.42-2.82a4.76,4.76,0,0,0-4.06,1.9h0a4,4,0,0,1-3,1.77h-5v-.3h0v-5a1.62,1.62,0,0,0-.85-1.54,3.61,3.61,0,0,0-3.29-.13,2,2,0,0,0-1.32,1.93v4.75h0v.3H164.82a2.91,2.91,0,0,0-2.91,2.91,1.33,1.33,0,0,0,1.33,1.33H176.9Q175.91,206.67,171.36,210.28Z"/><path class="cls-3" d="M252.23,212.78a1.13,1.13,0,0,0,1.13,1.13h24.2a2.87,2.87,0,0,0,2.87-2.88,1.13,1.13,0,0,0-1.12-1.13h-24.2A2.88,2.88,0,0,0,252.23,212.78Z"/><path class="cls-2" d="M295.17,213.4a62.76,62.76,0,0,1-11.27-8.19,55.57,55.57,0,0,0,10.2-13.53h0s.49-.8.77-1.4l.09-.2a1.52,1.52,0,0,0,.08-.22h0a2.84,2.84,0,0,0,.14-.88v-.52s0-.34,0-.67c0,0,0,0,0,0s0-.22,0-.33v0h0c-.25-1.42-1.93-2.52-4-2.52a4.29,4.29,0,0,0-3.65,1.7h0a3.58,3.58,0,0,1-2.56,1.58H269.83a1.68,1.68,0,0,0-1.54,2.33q4.29,10,9.55,15.61a70.43,70.43,0,0,0,16.86,12.57,1.13,1.13,0,0,0,1.44-.29A3.33,3.33,0,0,0,295.17,213.4ZM274.07,192h14.24a45.1,45.1,0,0,1-7.47,10.13A49.31,49.31,0,0,1,274.07,192Z"/><path class="cls-3" d="M278,224.29h9.52a3.19,3.19,0,0,0,3.19-3.19v-.88h0c0-.12,0-.26,0-.4s0,0,0,0a2.19,2.19,0,0,0,0-.36v0h0c-.27-1.53-2.08-2.72-4.27-2.72a4.56,4.56,0,0,0-3.92,1.84h0a3.83,3.83,0,0,1-3,1.71H242.38a2.94,2.94,0,0,0-2.94,2.94,1.12,1.12,0,0,0,1.13,1.13h22.36v13.57c0,1.59-.94,2.38-2.82,2.38h-2.74a3.22,3.22,0,0,0-3.2,3.58,1.13,1.13,0,0,0,1.12,1h7.34a6.22,6.22,0,0,0,4.06-1.31,4.35,4.35,0,0,0,1.59-3.53V224.29Z"/><path class="cls-2" d="M250.71,229.09c-5.22,1.6-12.31,5.11-13.41,8.07-1,2.67,2.76,5.79,5.49,3.55,2.35-1.94-.88-4.59,8.44-10.67C252,229.54,251.38,228.88,250.71,229.09Z"/><path class="cls-2" d="M240.78,209.5c2-1.4-.45-3.67,7.24-8,.64-.35.19-.9-.35-.78-4.22,1-10,3.39-11,5.68C235.71,208.47,238.5,211.14,240.78,209.5Z"/><path class="cls-3" d="M275.49,229.4c-.34-.11-.62.36-.32.56,11.74,8.16,11.72,12.4,13.64,13a3.59,3.59,0,0,0,4.71-4.54C292,233.48,280.25,231,275.49,229.4Z"/><path class="cls-3" d="M265.84,191.77h0l.18-.42,0-.05h0a5.8,5.8,0,0,0,.45-1.81h0a.5.5,0,0,0,0-.12v-.45s0-.29,0-.58v0a1.43,1.43,0,0,0,0-.29v0h0c-.21-1.23-1.67-2.19-3.43-2.19a3.7,3.7,0,0,0-3.16,1.48h0a3.12,3.12,0,0,1-2.25,1.38h-7.78c.57-.87,1-1.59,1.38-2.17a1.13,1.13,0,0,0-.74-1.7l-.57-.11a3.84,3.84,0,0,0-4,1.82,43.16,43.16,0,0,1-4.86,6.65,53.53,53.53,0,0,1-6.86,6.64,2.5,2.5,0,0,0-.34,3.6l0,0a1.14,1.14,0,0,0,1.54.17l1.06-.81c1.49-1.2,2.33-1.85,3.41-2.78h0c.72-.63,1.41-1.25,2.06-1.88l.12-.1.61-.6c.87-.86,1.66-1.7,2.3-2.41a7.23,7.23,0,0,1,5.7,5.13,2.4,2.4,0,0,0,2.67,1.78l-.18.18-.1.11a44.2,44.2,0,0,1-3.86,3.46l-.06.05h0c-1.3,1-2.47,1.91-3.13,2.39h0l0,0-.55.39h0a72,72,0,0,1-9.64,5.77,2.67,2.67,0,0,0-1.06,3.88,1.14,1.14,0,0,0,1.4.41A68.5,68.5,0,0,0,255,206.18Q262.58,199.07,265.84,191.77Zm-20.74,3c.42-.46.77-.87,1-1.18h0q.77-.91,1.38-1.68h12.89a34.11,34.11,0,0,1-2.17,3.88h0a21.27,21.27,0,0,1-2.56,3.48,4.14,4.14,0,0,0-.27-1.34C254.14,194.52,247.64,194.63,245.1,194.81Z"/><path class="cls-3" d="M154.23,134.76a1.17,1.17,0,0,0-1.55.42,35.2,35.2,0,0,1-7.12,8.37,6.06,6.06,0,0,0,.7-3V128.43h6.07a2.33,2.33,0,0,0,2.33-2.33,1.17,1.17,0,0,0-1.17-1.18H132.62a2.33,2.33,0,0,0-2.33,2.34,1.19,1.19,0,0,0,1.18,1.17h9.89v11.2a2,2,0,0,1-2,2h-.48a2.81,2.81,0,0,0-2.74,3.43,1.18,1.18,0,0,0,1.14.91h3.06a9.7,9.7,0,0,0,2.41-.32,53,53,0,0,1-11.33,5.32,2.6,2.6,0,0,0-1.39,3.75,1.17,1.17,0,0,0,1.37.53q10.29-3.22,15.66-7.44a42.54,42.54,0,0,0,8.14-8.61A3,3,0,0,0,154.23,134.76Z"/><path class="cls-2" d="M134,140c-1.2-3.72-.26-6.67,1.22-7.67,0,0-8.16,3.91-7.14,8.46C129.1,145.21,135.05,143.17,134,140Z"/><path class="cls-3" d="M169.68,115.35c1,2.12,5.17.31,3.59-2.45-1.12-2-4.41-1.68-6.38-1.31a.31.31,0,0,0-.1.6A6,6,0,0,1,169.68,115.35Z"/><path class="cls-2" d="M180.38,140.94a1.17,1.17,0,0,0-1.56.92q-1.44,9.1-3.71,9.11-3.75,0-7.18-6.9a85.8,85.8,0,0,0,9.46-12.72,3.41,3.41,0,0,0-1.47-4.89,1.18,1.18,0,0,0-1.51.5A78.41,78.41,0,0,1,166,139.28q-2.26-7.08-2.8-18.7h16.62a1.17,1.17,0,0,0,1.17-1.17,2.89,2.89,0,0,0-2.89-2.89h-15v-3.27a1.45,1.45,0,0,0-.76-1.38,3.24,3.24,0,0,0-3-.11,1.75,1.75,0,0,0-1.19,1.73v.69h0v2.34H125a3.53,3.53,0,0,0-3.52,3.52v10.21a49.48,49.48,0,0,1-3.88,20,3.58,3.58,0,0,0,1.65,4.63,1.18,1.18,0,0,0,1.58-.51,52.69,52.69,0,0,0,5.55-24.14v-6.37a3.3,3.3,0,0,1,3.3-3.3h28.6q.58,14,4,22.83-3.54,3.6-8,7.35a3,3,0,0,0-.28,4.32,1.18,1.18,0,0,0,1.6.11q5-4,8.67-7.44,4.44,8.4,10,8.4h1.05q4.49,0,6.3-5.34a39.41,39.41,0,0,0,1.44-5.24A4.1,4.1,0,0,0,180.38,140.94Z"/><path class="cls-2" d="M183.32,105.49v-.06a2.07,2.07,0,0,0,0-.35v0h0c-.27-1.53-2.07-2.72-4.26-2.72a4.62,4.62,0,0,0-3.91,1.83h0a3.83,3.83,0,0,1-3,1.72H153.4V100.7h13.09a3.16,3.16,0,0,0,3.17-3.16V97s0-.36,0-.71V96.2a2,2,0,0,0,0-.35v0h0c-.26-1.52-2.06-2.7-4.23-2.7a4.59,4.59,0,0,0-3.9,1.82h0a3.85,3.85,0,0,1-2.81,1.7H153.4V93s0-.17,0-.37v-.08h0v-.07h0s0-.09,0-.13v0h0c-.16-.91-.81-1.57-2.73-1.57-2.27,0-2.43,1.43-2.43,1.59v.13h0v13.45H134.64V94.39h0a.92.92,0,0,0,0-.16v0h0c-.16-.9-.81-1.57-2.74-1.57-2.27,0-2.42,1.43-2.42,1.59v.16h0v11.49h-8.59a2.89,2.89,0,0,0-2.89,2.93,1.16,1.16,0,0,0,1.17,1.13h61a3.19,3.19,0,0,0,3.18-3.18v-.56S183.33,105.85,183.32,105.49Z"/><path class="cls-5" d="M92.53,122.14a4,4,0,0,0-2.15-1.92,1,1,0,0,0-.63,0,1,1,0,0,0-.46.61,9.61,9.61,0,0,0-.14,5.32,46.92,46.92,0,0,0,2.64,8.2h.13l0-.52A25.25,25.25,0,0,0,93.52,128,9.53,9.53,0,0,0,92.53,122.14Z"/><path class="cls-5" d="M79.73,134.86a4,4,0,0,1-2-2.08.89.89,0,0,1,0-.62,1,1,0,0,1,.59-.49,9.72,9.72,0,0,1,5.3-.34,47.84,47.84,0,0,1,8.3,2.34s0,.08,0,.12h0l-.52,0a25.08,25.08,0,0,1-5.75,1.86A9.55,9.55,0,0,1,79.73,134.86Z"/><path class="cls-5" d="M99.77,131.23a3.9,3.9,0,0,0-2.16-1.92.88.88,0,0,0-.62,0,1,1,0,0,0-.47.61,9.76,9.76,0,0,0-.14,5.31A47.63,47.63,0,0,0,99,143.43h.13l0-.51a25.33,25.33,0,0,0,1.65-5.83A9.51,9.51,0,0,0,99.77,131.23Z"/><path class="cls-5" d="M87,144a3.92,3.92,0,0,1-2-2.08,1,1,0,0,1,0-.63,1.09,1.09,0,0,1,.6-.49,9.72,9.72,0,0,1,5.3-.33,47.46,47.46,0,0,1,8.3,2.34s0,.07,0,.11v0l-.52,0a25,25,0,0,1-5.76,1.86A9.52,9.52,0,0,1,87,144Z"/><path class="cls-6" d="M68,119.34c15.86,5.44,27.83,17.26,34.71,32.4.29.63,1.55-.52,1.35-1.06-5.79-15.54-19.63-27.55-35.39-32.27-.37-.11-1.09.78-.67.93Z"/><path class="cls-6" d="M75.89,111c6.15,3.91,7.88,10,9,16.83.09.59,1.3-.45,1.3-.88-.11-6.81-3.59-13.45-9.64-16.73-.27-.15-.92.61-.65.78Z"/><path class="cls-6" d="M64.63,126.55c2.71,2.59,5.78,4.7,9.65,4.72,3.37,0,6.39-2.52,8.17-5.15.68-1-.45-.91-1-.26-4.79,6.13-11,4.1-16.13-.06-.29-.24-1,.5-.73.75Z"/><path class="cls-3" d="M65.23,117.29a5.56,5.56,0,0,1-1.82.91,2.62,2.62,0,0,1-2-.25c-.14-.09-.29-.24-.26-.4a.45.45,0,0,1,.16-.25,2.88,2.88,0,0,1,1.57-.69,5.06,5.06,0,0,1,1.73.11,18.28,18.28,0,0,1-2.16-.73c-.5-.2-2.59-1.53-1.67-2.26s3.37.78,4.19,1.3a12.06,12.06,0,0,1-1-1.18,2.56,2.56,0,0,1-.63-1.68.55.55,0,0,1,.14-.33c.18-.15.45,0,.64.09a5.72,5.72,0,0,1,2.38,3.51"/><path class="cls-3" d="M63.69,128.82a5.4,5.4,0,0,1-1.58,1.28,2.56,2.56,0,0,1-2,.19c-.15-.06-.33-.17-.34-.34a.56.56,0,0,1,.1-.27,2.85,2.85,0,0,1,1.39-1,5.19,5.19,0,0,1,1.71-.27,17,17,0,0,1-2.26-.24c-.54-.09-2.87-.93-2.12-1.84s3.45,0,4.37.36a12.21,12.21,0,0,1-1.2-1,2.57,2.57,0,0,1-1-1.5.47.47,0,0,1,.07-.35c.14-.18.42-.13.63-.05a5.65,5.65,0,0,1,3.09,2.91"/><path class="cls-7" d="M71.16,114.77c-1.39-2.21-3.75-2.35-5.83-1-2.5,1.58-2.48,4.84-.69,7,1.28,1.5,3.33,1.39,4.91.45,1.91-1.15,2.41-2.71,2.12-4.83A3.79,3.79,0,0,0,71.16,114.77Z"/><path class="cls-7" d="M79.44,107c-1.38-2.21-3.75-2.35-5.82-1-2.5,1.58-2.49,4.84-.7,7,1.28,1.51,3.33,1.4,4.91.46,1.91-1.15,2.41-2.71,2.13-4.83A4,4,0,0,0,79.44,107Z"/><path class="cls-7" d="M70.57,126.12c-1.39-2.2-3.76-2.35-5.83-1-2.5,1.59-2.48,4.85-.69,7,1.28,1.51,3.33,1.4,4.91.45,1.91-1.14,2.41-2.71,2.12-4.82A3.89,3.89,0,0,0,70.57,126.12Z"/><path class="cls-8" d="M214.46,76.65c-.55,3.57-4,5.63-6.84,7.16a44.69,44.69,0,0,1-10.42,4c-2.33.56-5.49,1.5-7.9,1.16-2-.29-2.7-2.39-3-4.15-.78-5.37-.59-11.16,2.22-15.79a9.5,9.5,0,0,1,2.18-2.58,10.59,10.59,0,0,1,6-1.94c5.82-.35,11.9,1.84,15.61,6.35C213.74,72.46,214.79,74.54,214.46,76.65Z"/><path class="cls-9" d="M209.18,67.86a18.92,18.92,0,0,0-6.18-2.8,3.31,3.31,0,0,0-.17.69,3.39,3.39,0,0,0,3.24,3.72A3.41,3.41,0,0,0,209.18,67.86Z"/><path class="cls-9" d="M208.92,75.31a2.83,2.83,0,0,0,0,.65A3.6,3.6,0,0,0,212.16,79a3.3,3.3,0,0,0,1.58-.28,6.4,6.4,0,0,0,.72-2.09,6.63,6.63,0,0,0-1-4.33A3.82,3.82,0,0,0,208.92,75.31Z"/><path class="cls-9" d="M201,69.74a4.36,4.36,0,0,0-6.11,3.12,3.14,3.14,0,0,0,0,.75,4.18,4.18,0,0,0,3.75,3.54,4.09,4.09,0,0,0,3.81-5.93A3.67,3.67,0,0,0,201,69.74Z"/><path class="cls-9" d="M196.29,64.51a10.2,10.2,0,0,0-5.54,1.9c-.14.11-.26.23-.39.34a3.59,3.59,0,0,0,2.25,1.07A3.52,3.52,0,0,0,196.29,64.51Z"/><path class="cls-9" d="M189.81,74.24A3.22,3.22,0,0,0,188.55,73a3,3,0,0,0-1.6-.38,22.69,22.69,0,0,0-1,6.7,4.85,4.85,0,0,0,.55.09A3.54,3.54,0,0,0,189.81,74.24Z"/><path class="cls-9" d="M198.13,81a3.76,3.76,0,0,0-5.28,2.69,2.36,2.36,0,0,0,0,.65,3.58,3.58,0,0,0,3.24,3.06,3.54,3.54,0,0,0,3.3-5.12A3.22,3.22,0,0,0,198.13,81Z"/><path class="cls-3" d="M199.34,80.49a28.43,28.43,0,0,0-10.76,8.24,3.17,3.17,0,0,0,.72.2c2.41.34,5.57-.6,7.9-1.16a44.69,44.69,0,0,0,10.42-4c2.7-1.43,5.84-3.32,6.69-6.47A32.34,32.34,0,0,0,199.34,80.49Z"/><path class="cls-10" d="M208,77.76a29.42,29.42,0,0,1-4,7c-.26.34.46.19.61,0a30.15,30.15,0,0,0,4.1-7.1Z"/><path class="cls-10" d="M203.92,85.29c.07.22.73-.07.65-.33q-.93-2.92-2-5.8l-.66.24Q203,82.32,203.92,85.29Z"/><path class="cls-10" d="M202.72,84.27A37,37,0,0,1,197,81.71l-.67.37a36.41,36.41,0,0,0,6,2.62C202.47,84.77,203,84.37,202.72,84.27Z"/><path class="cls-10" d="M204.47,84.7c-4.53.34-9,1.4-13.53,1.4l-.47.48c4.56,0,9.07-1,13.64-1.4C204.34,85.16,204.89,84.67,204.47,84.7Z"/><path class="cls-11" d="M210.46,89c2.63,1.44,6.12,4.47,3.52,7.5-2,2.29-5.24,3-7.18.33A13.35,13.35,0,0,1,205,92a10.26,10.26,0,0,0-1.49-3.67c-.67-.9-1.87-1.28-2.47-2.17a3.1,3.1,0,0,1,1.34-4.58c3.65-1.42,4.45,2.13,5.63,4.69a5.57,5.57,0,0,0,1.22,1.92A5.92,5.92,0,0,0,210.46,89Z"/><path class="cls-12" d="M212.52,95.5A11.7,11.7,0,0,1,210,92.82a23.28,23.28,0,0,1-1.18-3.18c-1.32-3.2-4.49-5.15-6.13-8.14l-.22.06c1.53,2.93,4.43,4.91,6,7.87a18.89,18.89,0,0,1,1,2.74A6.31,6.31,0,0,0,211,94.58c.8.8,1.77,1.51,2.53,2.35l.23-.24A12.75,12.75,0,0,0,212.52,95.5Z"/><path class="cls-12" d="M207.14,90.78a8.83,8.83,0,0,0-3-4.24,8.58,8.58,0,0,1-2.74-4.31,1.54,1.54,0,0,0-.17.19,8.41,8.41,0,0,0,1.81,3.34A23.33,23.33,0,0,0,205,87.59a7.42,7.42,0,0,1,1.94,3.31c.76,2.4,1.2,5.67,3,7.61a3.17,3.17,0,0,0,.44,0C208.38,96.61,207.89,93.33,207.14,90.78Z"/><path class="cls-5" d="M58,161.24c-.91,1.11-2,2.13-2.89,3.18a.17.17,0,0,0-.06.16s.05.06.08.08c1.4.81,3,1.46,2.26,3.43a10.7,10.7,0,0,1-4,5.13,8.41,8.41,0,0,1-6.51,1c.74,1.1,1.51,2.46,1,3.68a3.38,3.38,0,0,1-2.49,1.66c-3.43.77-7.14-.45-10.49.63q-2.09-4.62-4-9.31c-.94-2.28-1.06-4.84,1.28-6.47,1.83-1.28,4.5-.63,6.14.9a18.76,18.76,0,0,1-.63-5.26,6.42,6.42,0,0,1,2.22-4.65,4.93,4.93,0,0,1,7,1.5,7,7,0,0,1,4.22-4.28,8.72,8.72,0,0,1,6.08.15,4.54,4.54,0,0,1,2.44,1.89,4,4,0,0,1,.39,1.9A7.63,7.63,0,0,1,58,161.24Z"/><path class="cls-6" d="M32.91,184.58A69.5,69.5,0,0,1,54,158.33c.85-.64-.12-.91-.72-.49a56.92,56.92,0,0,0-21.1,26.87c-.13.36.6.07.7-.13Z"/><path class="cls-6" d="M37.4,175.11a68.85,68.85,0,0,0-2.73-8.76c-.09-.24-.77.08-.68.35,1,2.88,2,5.77,2.84,8.7.06.2.62-.06.57-.29Z"/><path class="cls-6" d="M37.16,175.35c3,.06,6,.11,8.92.12.26,0,.85-.51.38-.52-3,0-6,0-9-.06-.22,0-.75.46-.34.46Z"/><path class="cls-6" d="M43.48,167.94a82.91,82.91,0,0,1-.55-9c0-.32-.74,0-.75.26a45.26,45.26,0,0,0,.67,9c0,.27.66,0,.63-.22Z"/><path class="cls-6" d="M42.93,168.44c3,.32,6,.63,9.06.91.28,0,.89-.5.4-.55q-4.56-.44-9.12-.81c-.23,0-.74.41-.34.45Z"/><path class="cls-6" d="M48.36,162.35c.62-2.37,1.29-4.74,1.79-7.15.06-.28-.7,0-.76.21-.67,2.35-1.17,4.75-1.71,7.13-.06.23.62,0,.68-.19Z"/><path class="cls-6" d="M48.18,162.81c1.69-.08,3.38-.14,5.06-.27.23,0,.83-.54.37-.52-1.71.08-3.42.24-5.12.37-.19,0-.67.43-.31.42Z"/><path class="cls-5" d="M323.14,244.29c-2.81.49-5.6,1.15-8.39,1.86,1.79-2.08,3.54-4.18,5.12-6.38.9-1.24-1.46-.64-1.93-.21a53.48,53.48,0,0,0-4.54,4.83l-1-7c-.12-.84-2.07,0-2,.68.35,2.52.71,5,1.06,7.56a41.23,41.23,0,0,1-4.84-3.75c-.42-.38-1.9.51-1.39,1,1.63,1.49,3.27,3.05,5,4.52-2.56.7-5.1,1.4-7.65,2-.48.12-1.27,1.09-.36.88,2.61-.6,5.25-1.15,7.89-1.71-1.58,2.13-3.08,4.3-4.52,6.41-.67,1,1.25.46,1.63,0,1.53-1.92,3.15-3.8,4.78-5.67q.56,4,1.12,7.9c.11.85,2.06,0,2-.68q-.44-3-.85-6a26.45,26.45,0,0,0,3.89,2.26c.67.32,2.89-.81,2-1.42-1.84-1.33-3.75-2.53-5.66-3.74,2.81-.64,5.61-1.33,8.35-2.16C323.5,245.23,324.29,244.09,323.14,244.29Z"/><path class="cls-5" d="M237.2,274.92a19.41,19.41,0,0,0-5.17.89,38,38,0,0,0,3.36-5.17c.83-1.56-2.63-.19-3.08.32-.79.89-1.55,1.83-2.3,2.79-.08-1.55-.15-3.11-.18-4.67,0-.71-1.73,0-1.72.59,0,1.91,0,3.83.06,5.75-2-1.23-4.08-2.42-6.1-3.65-.58-.36-2.35.71-1.69,1.18,2,1.42,4,2.93,5.89,4.45a40.9,40.9,0,0,0-4.56,1.57c-.69.29-1.83,1.61-.33,1.4s3.09-.57,4.62-.93c-1.08,1.63-2.14,3.27-3.2,4.84-.85,1.28,1.58.51,2,0,1.13-1.25,2.3-2.56,3.47-3.9.11,2.63.3,5.25.66,7.85.12.83,2,0,1.95-.68-.1-2.3-.26-4.59-.43-6.88q1.85,1.39,3.76,2.7c.94.63,3.88-1.1,2.8-2-1.47-1.17-3-2.25-4.57-3.28a23.42,23.42,0,0,0,3.83-1C237,276.86,239.17,274.93,237.2,274.92Z"/><path class="cls-5" d="M62,255.72c-2.82.74-5.62,1.62-8.41,2.57a51.68,51.68,0,0,0,4-8.24c.53-1.41-2.27-.33-2.66.27-1.41,2.17-2.71,4.42-4,6.71q-.9-4.18-1.79-8.37c-.18-.84-2.1,0-2,.69.52,2.86,1,5.72,1.53,8.59-2.34-1.32-4.67-2.64-7-4-.56-.33-2.22.67-1.59,1.11,2.57,1.77,5.14,3.54,7.75,5.26-3.06,1.15-6.08,2.35-9.07,3.54-.86.35-1.36,1.47,0,1.11,3.08-.83,6.19-1.68,9.29-2.6-1.49,2.8-3,5.6-4.59,8.31-.65,1.1,1.34.53,1.72,0,1.51-2.11,3.1-4.3,4.64-6.56.48,2.61,1,5.21,1.51,7.8.22,1.07,2.63,0,2.47-.85q-.75-4-1.58-8c2,1.26,4.09,2.47,6.19,3.59.84.45,3.32-1.05,2.37-1.65-2.38-1.52-4.82-2.95-7.27-4.36,2.71-.89,5.38-1.84,8-2.9C62.53,257.38,64.12,255.15,62,255.72Z"/><path class="cls-5" d="M275.06,89.16a77.76,77.76,0,0,0-8.51,1.5,55.34,55.34,0,0,0,5.43-9c.53-1.14-1.92-.24-2.26.23-1.52,2.07-2.92,4.23-4.3,6.41-.25-1.74-.49-3.49-.71-5.24-.08-.69-1.67,0-1.61.56.2,2.07.36,4.15.51,6.23-1.49-1.32-3-2.69-4.36-4.15-.37-.39-1.83.49-1.48.89,1.49,1.7,3,3.42,4.65,5.08-2.5.65-5,1.37-7.42,2.07-.63.19-1.4,1.35-.26,1.13,2.47-.45,4.95-.88,7.43-1.32-1.08,1.75-2.17,3.49-3.31,5.2-.55.83,1,.37,1.35,0,1.23-1.51,2.49-3,3.72-4.62.22,3,.48,5.92.87,8.86.14,1,2.49,0,2.42-.84-.2-2.22-.47-4.43-.77-6.64,1.13,1,2.29,1.88,3.49,2.71.64.44,2.65-.71,1.92-1.34-1.64-1.42-3.3-2.8-4.95-4.19,2.47-.47,4.93-1,7.36-1.6C275.29,90.82,277.16,88.92,275.06,89.16Z"/><path class="cls-5" d="M108.79,82.48A60.33,60.33,0,0,0,102,83.67a43.48,43.48,0,0,0,4.32-7.17c.42-.91-1.53-.19-1.8.19-1.21,1.65-2.33,3.36-3.42,5.1-.2-1.39-.4-2.78-.57-4.17-.06-.55-1.33,0-1.28.44.16,1.66.28,3.31.4,5-1.19-1.06-2.35-2.15-3.47-3.31-.29-.31-1.45.39-1.18.71,1.19,1.35,2.42,2.72,3.7,4-2,.52-4,1.09-5.9,1.65-.5.15-1.12,1.08-.21.91,2-.37,3.94-.71,5.92-1.06-.86,1.4-1.73,2.78-2.64,4.14-.44.67.83.3,1.07,0,1-1.21,2-2.43,3-3.68.18,2.35.38,4.71.69,7,.11.82,2,0,1.92-.67-.15-1.77-.36-3.53-.6-5.29a31.85,31.85,0,0,0,2.78,2.16c.5.35,2.1-.57,1.53-1.07-1.31-1.13-2.64-2.22-4-3.33,2-.38,3.93-.79,5.86-1.28C109,83.8,110.46,82.29,108.79,82.48Z"/><path class="cls-13" d="M77.91,258.69c4.59,0,4.59-7.11,0-7.11s-4.59,7.11,0,7.11Z"/><path class="cls-13" d="M310.82,191.51c4.59,0,4.59-7.12,0-7.12s-4.58,7.12,0,7.12Z"/><g class="cls-14"><path class="cls-8" d="M254.16,270.52c4.58,0,4.58-7.12,0-7.12s-4.59,7.12,0,7.12Z"/></g><g class="cls-14"><path class="cls-8" d="M284.37,94.57c3,0,3-4.62,0-4.62s-3,4.62,0,4.62Z"/></g><path class="cls-13" d="M240.39,85.05a1.94,1.94,0,1,0,0-3.88,1.94,1.94,0,1,0,0,3.88Z"/><path class="cls-13" d="M132.78,77.32c3.9,0,3.9-6.06,0-6.06s-3.91,6.06,0,6.06Z"/><path class="cls-15" d="M287.52,261.63a2.76,2.76,0,1,0,0-5.51,2.76,2.76,0,1,0,0,5.51Z"/><path class="cls-16" d="M304.3,144.31a1.77,1.77,0,0,0,0-3.54,1.77,1.77,0,0,0,0,3.54Z"/><path class="cls-17" d="M220.86,261.64a1.77,1.77,0,0,0,0-3.54,1.77,1.77,0,0,0,0,3.54Z"/><path class="cls-17" d="M71.75,155.08a1.77,1.77,0,0,0,0-3.54,1.77,1.77,0,0,0,0,3.54Z"/><path class="cls-16" d="M195.48,281.46c3.6,0,3.6-5.58,0-5.58s-3.6,5.58,0,5.58Z"/><path class="cls-17" d="M155.81,271.19c4.92,0,4.92-7.63,0-7.63s-4.92,7.63,0,7.63Z"/><path class="cls-16" d="M102.37,111.63c3.6,0,3.6-5.59,0-5.59s-3.6,5.59,0,5.59Z"/><path class="cls-17" d="M166.6,77.83a1.77,1.77,0,0,0,0-3.54,1.77,1.77,0,0,0,0,3.54Z"/><path class="cls-17" d="M313.59,211a1.77,1.77,0,0,0,0-3.54,1.77,1.77,0,0,0,0,3.54Z"/><path class="cls-5" d="M275.16,169.75a15.56,15.56,0,0,0,7.87,6.36.76.76,0,0,0,.76,0c.24-.19.18-.56.08-.84a6.57,6.57,0,0,0-1.28-2,9.87,9.87,0,0,0-7.12-3.23"/><path class="cls-5" d="M275.3,170.19a15.62,15.62,0,0,0,7.21-7.11.78.78,0,0,0,.08-.76c-.16-.25-.54-.24-.83-.17a6.33,6.33,0,0,0-2.17,1,9.85,9.85,0,0,0-4,6.71"/><path class="cls-6" d="M269.87,169.27c9.35,1.92,19.25-2.32,27-7.15.34-.22,1.39-.16.74.28a49.24,49.24,0,0,1-13.79,6.46c-4.49,1.28-9.88,2.23-14.43.79-.3-.09.27-.42.44-.38Z"/><path class="cls-6" d="M286.86,167.26A18,18,0,0,1,292.5,157c.19-.16,1-.26.69.09a19.76,19.76,0,0,0-5.79,10.07c0,.19-.58.32-.54.12Z"/><path class="cls-3" d="M302.43,162.72a3.68,3.68,0,0,0,2.82.12c.2-.07.41-.19.44-.4s-.18-.41-.37-.51a4.85,4.85,0,0,0-3.26-.11,6.62,6.62,0,0,0,3.06-1.82.44.44,0,0,0,.13-.32.35.35,0,0,0-.29-.28,1.06,1.06,0,0,0-.43,0,8.83,8.83,0,0,0-2.94,1.51,6.07,6.07,0,0,0,2.44-2.35,1.49,1.49,0,0,0,.23-.66.59.59,0,0,0-.34-.56.74.74,0,0,0-.62.12,4.6,4.6,0,0,0-2.34,3.15"/><path class="cls-7" d="M303.07,161.35a2.57,2.57,0,0,1,.06.55,4,4,0,0,1-2.31,3.26,10.56,10.56,0,0,1-4.35,1.63,4.1,4.1,0,0,1-3.74-1.32,2.49,2.49,0,0,1,.11-2.95,7.54,7.54,0,0,1,2.52-2,9.85,9.85,0,0,1,3-1.16,5.18,5.18,0,0,1,3.16.32A2.65,2.65,0,0,1,303.07,161.35Z"/><path class="cls-3" d="M296.71,153.74a3.28,3.28,0,0,0,2.16-1.3.51.51,0,0,0,.13-.5c-.09-.19-.33-.22-.53-.21a4.41,4.41,0,0,0-2.48,1.52,5.82,5.82,0,0,0,1.39-2.85.41.41,0,0,0-.06-.31A.3.3,0,0,0,297,150a1,1,0,0,0-.3.24,7.79,7.79,0,0,0-1.45,2.57,5.41,5.41,0,0,0,.66-3,1.24,1.24,0,0,0-.15-.6.51.51,0,0,0-.53-.26.75.75,0,0,0-.4.4,4.13,4.13,0,0,0-.2,3.5"/><path class="cls-7" d="M296.51,152.41a2,2,0,0,1,.32.38,3.6,3.6,0,0,1-.13,3.56,9.53,9.53,0,0,1-2.44,3.35,3.67,3.67,0,0,1-3.44.84,2.23,2.23,0,0,1-1.36-2.25,6.78,6.78,0,0,1,.88-2.75A9.24,9.24,0,0,1,292,153.2a4.76,4.76,0,0,1,2.53-1.31A2.32,2.32,0,0,1,296.51,152.41Z"/><g class="cls-18"><path class="cls-12" d="M302,162.52c.88,1.25-3.78,3.84-4.52,2.2a.64.64,0,0,1,0-.52,2.83,2.83,0,0,1,1.47-1.4,7.24,7.24,0,0,1,2-.51C301.33,162.24,301.76,162.23,302,162.52Z"/></g><g class="cls-18"><path class="cls-12" d="M295.36,153.91c1.84.21,0,5.34-1.36,4.07a.73.73,0,0,1-.18-.52,5.72,5.72,0,0,1,.39-2.55C294.41,154.4,294.82,153.85,295.36,153.91Z"/></g><path class="cls-5" d="M275.68,267.75a15.13,15.13,0,0,0,2,9.64c.14.22.32.47.58.47s.48-.32.58-.6a6.22,6.22,0,0,0,.28-2.31,9.63,9.63,0,0,0-3.37-6.82"/><path class="cls-5" d="M275.51,268.18a15.16,15.16,0,0,0,9.8-.93c.24-.11.5-.27.53-.52s-.26-.52-.53-.64a6.09,6.09,0,0,0-2.27-.54,9.56,9.56,0,0,0-7.14,2.59"/><path class="cls-6" d="M272,264.14c5.87,7.19,15.94,10.09,24.77,11.23.39.05,1.14.74.38.67a47.46,47.46,0,0,1-14.35-3.61c-4.17-1.79-8.82-4.39-11.36-8.27-.17-.25.46-.15.56,0Z"/><path class="cls-6" d="M286,273.07a17.54,17.54,0,0,1,10.57-4.28c.24,0,.94.44.46.49a19.21,19.21,0,0,0-10.55,4c-.15.12-.63-.12-.48-.24Z"/><path class="cls-3" d="M300.55,279.22a3.52,3.52,0,0,0,2,1.82.57.57,0,0,0,.58,0,.55.55,0,0,0,0-.62,4.78,4.78,0,0,0-2.38-2.08,6.32,6.32,0,0,0,3.41.51.45.45,0,0,0,.31-.16.35.35,0,0,0-.05-.39,1,1,0,0,0-.36-.22,8.67,8.67,0,0,0-3.14-.68,5.82,5.82,0,0,0,3.28-.27,1.37,1.37,0,0,0,.58-.35.55.55,0,0,0,.09-.63.81.81,0,0,0-.54-.3,4.52,4.52,0,0,0-3.71.94"/><path class="cls-7" d="M301.86,278.58a2.66,2.66,0,0,1-.29.45,3.94,3.94,0,0,1-3.74,1,10.37,10.37,0,0,1-4.29-1.45,4,4,0,0,1-2-3.29,2.43,2.43,0,0,1,1.9-2.16,7.39,7.39,0,0,1,3.14,0,9.93,9.93,0,0,1,3,1,5.11,5.11,0,0,1,2.19,2.2A2.55,2.55,0,0,1,301.86,278.58Z"/><path class="cls-3" d="M301.75,268.93a3.16,3.16,0,0,0,2.42.36c.17-.05.37-.13.41-.31s-.11-.36-.27-.47a4.24,4.24,0,0,0-2.8-.38,5.75,5.75,0,0,0,2.8-1.3.4.4,0,0,0,.14-.27.3.3,0,0,0-.23-.26.77.77,0,0,0-.37,0,7.78,7.78,0,0,0-2.67,1,5.21,5.21,0,0,0,2.31-1.81,1.33,1.33,0,0,0,.26-.55.5.5,0,0,0-.24-.51.71.71,0,0,0-.55,0,4,4,0,0,0-2.3,2.52"/><path class="cls-7" d="M302.42,267.81a1.93,1.93,0,0,1,0,.48,3.5,3.5,0,0,1-2.28,2.61,9.34,9.34,0,0,1-3.9,1,3.57,3.57,0,0,1-3.11-1.47,2.18,2.18,0,0,1,.36-2.54,6.68,6.68,0,0,1,2.35-1.53,8.88,8.88,0,0,1,2.7-.73,4.56,4.56,0,0,1,2.71.56A2.3,2.3,0,0,1,302.42,267.81Z"/><g class="cls-18"><path class="cls-12" d="M300.31,278.78c-.1,1.48-5.2.57-4.76-1.12a.67.67,0,0,1,.36-.36,2.74,2.74,0,0,1,2-.16,6.9,6.9,0,0,1,1.82.86C300,278.18,300.34,278.43,300.31,278.78Z"/></g><g class="cls-18"><path class="cls-12" d="M300.63,268.24c1.25,1.28-3.27,4-3.53,2.23a.79.79,0,0,1,.18-.5,5.6,5.6,0,0,1,1.87-1.69C299.61,268,300.25,267.86,300.63,268.24Z"/></g><path class="cls-19" d="M21.39,212.6A44,44,0,0,0,24,221.07a8.82,8.82,0,0,0,4.76,4.87c2,.73,3.59.45,5.71.35a4.8,4.8,0,0,1,3.7,1.13,2.86,2.86,0,0,1,.63-2.49,12,12,0,0,1,2.69-2,6.65,6.65,0,0,0,2.78-5.67,20.59,20.59,0,0,0-3.7-11"/><g class="cls-20"><path class="cls-19" d="M38.2,227.42a2.86,2.86,0,0,1,.63-2.49,12,12,0,0,1,2.69-2,7.27,7.27,0,0,0,2.32-3,6.77,6.77,0,0,0,.44-2c-3.55,1.38-7.22,2.88-10.76,1.72-2.83-.93-4.87-3.42-6.36-6-.47-.81-.9-1.65-1.29-2.5l-4.48,1.48A44,44,0,0,0,24,221.07a8.82,8.82,0,0,0,4.76,4.87c2,.73,3.59.45,5.71.35A4.8,4.8,0,0,1,38.2,227.42Z"/></g><path class="cls-21" d="M26.61,214.35a43.81,43.81,0,0,0,7.77-2.28c2.46-1,6-2.39,8.16-4.59a6.51,6.51,0,0,0-.5-1.22,7.54,7.54,0,0,0-1.72-2,8.24,8.24,0,0,0-2.48-1.6c-2.34-.88-4.94-.06-7.3.76l-1.23-4.29-2.55.93c.59,1.22,1.14,2.45,1.66,3.69-3.17.57-6.17,2.44-7,5.76a13.82,13.82,0,0,0-.08,5.21A25.06,25.06,0,0,0,26.61,214.35Z"/><path class="cls-9" d="M40.66,206.6l1-1-.29-.36-1.06,1.06c-.81-.62-1.63-1.23-2.45-1.84l1.2-1.22-.4-.25-1.18,1.19L35,202.36l.07-.07a7.53,7.53,0,0,0-.8.09l0,0L32,204.73l-2.47-1.83.66-.68-.14-.51-.9.92c-.6-.45-1.21-.88-1.81-1.32.12.25.24.51.35.76l1.16.86-.54.57c0,.07.07.15.1.23l-.42.09-1.31,1.35-.87-.64-.42.2c.33.25.66.5,1,.74l-2.17,2.25-1.39-1-.25.32,1.35,1-2.15,2.25-.51-.36c0,.15-.06.29-.08.44l.3.22-.37.4c0,.19,0,.39,0,.59l.72-.75c.85.62,1.69,1.25,2.53,1.88l-1.92,2h.52l1.71-1.78,1.92,1.43h0l.55-.12L25,212.61l2.16-2.22,2.49,1.86-1.75,1.83.73-.17c.45-.47.91-.94,1.37-1.4l1,.75.55-.16-1.23-.92L32.42,210l2.47,1.86-.06.06,1-.43,1.86-1.88.86.64L39,210l-1-.74c.76-.77,1.51-1.54,2.27-2.3l1.54,1.16.35-.32Zm-6-3.92,2.46,1.85-2.28,2.31L32.39,205Zm-5.44.53,2.47,1.84-2.16,2.21-2.49-1.83Zm-4.59,9.16-2.53-1.86,2.17-2.24,2.5,1.86C26.06,210.87,25.35,211.62,24.64,212.37Zm-.06-4.4,2.17-2.23,2.48,1.84c-.71.75-1.43,1.49-2.14,2.23Zm5.35,3.95c-.83-.62-1.66-1.24-2.5-1.85l2.16-2.22,2.47,1.85Zm0-4.39,2.17-2.21,2.46,1.85-2.15,2.2Zm5.32,4-2.47-1.85,2.15-2.19,2.46,1.85ZM37.69,209l-2.46-1.84,2.27-2.31L40,206.65Z"/><g class="cls-22"><path class="cls-12" d="M41.9,217.82c1.47-.45.19-4.84-.43-5.74-1.41-2-2.11-1-2.15,1,0,1.12.18,3.9,1.36,4.52A1.7,1.7,0,0,0,41.9,217.82Z"/></g><path class="cls-8" d="M128.7,251.32a5.76,5.76,0,0,0-7.5,2.5,5.75,5.75,0,0,0-7.59,2.17c-1.77,3-.61,6.7,1.4,9.2s5.92,5.29,9.29,2.72a3.53,3.53,0,0,0,.93-1.07,3.48,3.48,0,0,0,1.38.35c4.23.22,5.89-4.22,6.13-7.49S131.87,252.82,128.7,251.32Z"/><path class="cls-5" d="M119.67,251a3.24,3.24,0,0,0-1.76-.82,10.88,10.88,0,0,0-4.75.12.26.26,0,0,0-.15.09.24.24,0,0,0,0,.2,2.61,2.61,0,0,0,1.42,1.21,5,5,0,0,0,1.88.28,5.29,5.29,0,0,0,2.9-.73"/><path class="cls-9" d="M116.58,248.19a11.51,11.51,0,0,1,4.65,7.35c0,.25.59-.1.55-.32a11.36,11.36,0,0,0-4.86-7.38c-.14-.09-.51.24-.34.35Z"/><path class="cls-9" d="M118.59,255.1a3.18,3.18,0,0,0,4.94-1.45c.12-.31-.39-.09-.45.09-.67,1.95-2.67,2-4.16,1-.13-.08-.49.24-.33.35Z"/><g class="cls-14"><path class="cls-8" d="M129.58,261.79c-2.38.67-4.79,1.6-7.26,1.36a9.19,9.19,0,0,1-6.55-4.09,11.76,11.76,0,0,1-1.63-3.8,4.68,4.68,0,0,0-.53.73c-1.77,3-.61,6.7,1.4,9.2s5.92,5.29,9.29,2.72a3.53,3.53,0,0,0,.93-1.07,3.48,3.48,0,0,0,1.38.35c3.62.19,5.36-3,5.94-6A20.09,20.09,0,0,0,129.58,261.79Z"/></g><g class="cls-23"><path class="cls-12" d="M130.54,255.17c-.67-1.34-1.34-3.12-3-3.28-1.22-.12-2.72.35-2.21,1.87a2.55,2.55,0,0,0,.66.94c1.1,1.1,2.46,2,3,3.49.21.5.45,1.16,1,1.15a.93.93,0,0,0,.66-.4,2.64,2.64,0,0,0,.47-1.89A5.76,5.76,0,0,0,130.54,255.17Z"/></g><path class="cls-9" d="M298.84,94.43a7.41,7.41,0,0,1-1.12-3.66c0-.35.09-.79.43-.83a.76.76,0,0,1,.38.11c1.45.81,2.08,2.54,2.49,4.15a9.31,9.31,0,0,1,.35-4.77,1.74,1.74,0,0,1,.41-.74.69.69,0,0,1,.79-.15,1,1,0,0,1,.39.66,14.8,14.8,0,0,1,0,5.31,7.42,7.42,0,0,1,1.55-3.84c.38-.49,1-1,1.57-.75a1.42,1.42,0,0,1,.72,1.4,5.15,5.15,0,0,1-3,4.73"/><path class="cls-9" d="M313,105.55a6.2,6.2,0,0,1,.7-3.16c.13-.26.39-.54.65-.43a.51.51,0,0,1,.24.24c.73,1.19.48,2.73.11,4.08a7.8,7.8,0,0,1,2.23-3.36,1.57,1.57,0,0,1,.61-.38.59.59,0,0,1,.64.22.81.81,0,0,1,0,.65,12.39,12.39,0,0,1-2.19,3.91,6.31,6.31,0,0,1,2.74-2.18c.48-.2,1.13-.3,1.47.1a1.26,1.26,0,0,1-.05,1.33,4.37,4.37,0,0,1-4.15,2.25"/><path class="cls-5" d="M278.31,132.44a24,24,0,0,1-1.17-7.4,9.88,9.88,0,0,1,2.75-6.8c.24-.23.6-.45.88-.27a.8.8,0,0,1,.25.39,15.14,15.14,0,0,1-1.25,13.2,2.35,2.35,0,0,1-1.24,1.17"/><path class="cls-5" d="M278.34,133.13a16.43,16.43,0,0,1,14.78-.72c.31.14.64.34.7.67a1,1,0,0,1-.37.81,9,9,0,0,1-7.7,2.27,22.86,22.86,0,0,1-7.75-2.95"/><path class="cls-5" d="M286.73,125.07a26.42,26.42,0,0,1-.86-6.9,11.76,11.76,0,0,1,2.09-6.54.52.52,0,0,1,.34-.25.53.53,0,0,1,.37.24A7.9,7.9,0,0,1,290,118a17.88,17.88,0,0,1-2.65,6.13"/><path class="cls-5" d="M286.72,126a13.64,13.64,0,0,1,12.41-1.11.74.74,0,0,1,.33.22.66.66,0,0,1,.06.55,3.59,3.59,0,0,1-2.7,2.34c-3.58,1.06-7.44-.25-10.65-2.14"/><path class="cls-6" d="M299.62,101.17c-4.3,15.89-15.58,29.21-30.08,36.8-.93.49-.54,1.23.4.79A57.24,57.24,0,0,0,300.54,101c.12-.47-.83-.15-.92.17Z"/><path class="cls-6" d="M289.38,122.19a26.54,26.54,0,0,0,22.44-11.81c.62-.95-1.2-.47-1.56,0a26.44,26.44,0,0,1-20.34,11.07c-.34,0-1.2.71-.54.73Z"/><path class="cls-24" d="M306.31,101.63a8.73,8.73,0,0,0-.48-5.25c-1.5-3.14-5.79-4.59-8.32-1.88-2.36,2.53-3.34,6.64-3.4,10-.06,2.9.95,5.69,4.11,6C302.68,111.06,305.64,105.34,306.31,101.63Z"/><path class="cls-24" d="M315.51,114a7.45,7.45,0,0,0,1.83-4.07c.19-2.93-2.37-5.78-5.34-4.83-2.79.88-5.22,3.5-6.67,6-1.25,2.12-1.66,4.58.52,6.15C308.93,119.37,313.47,116.4,315.51,114Z"/><g class="cls-25"><path class="cls-12" d="M300,100.58c.46-1.11,2.52-5.66.25-5.94-1.89-.23-3,3.11-3.28,4.47a6.45,6.45,0,0,0-.16,2.55c.1.56.42,1.17,1,1.25a1.35,1.35,0,0,0,1.13-.5A5.71,5.71,0,0,0,300,100.58Z"/></g><g class="cls-25"><path class="cls-12" d="M314.23,108.14c.66-2.3-1.84-1.83-3-1.16a6.69,6.69,0,0,0-2.86,3.22,1.66,1.66,0,0,0,0,1.71,1.24,1.24,0,0,0,1,.37,3.28,3.28,0,0,0,1.08-.36A6.54,6.54,0,0,0,314.23,108.14Z"/></g></g></g></svg>