<svg id="圖層_1" data-name="圖層 1" xmlns="http://www.w3.org/2000/svg" viewBox="0 0 353 353"><defs><style>.cls-1{fill:#68b5ac;}.cls-2{fill:#15983f;}.cls-3{fill:#1384c7;}.cls-4{fill:none;}</style></defs><path class="cls-1" d="M177.7,190.52c-24.95,0-45.24-17.14-45.24-38.22a34.43,34.43,0,0,1,.25-4.06,9.64,9.64,0,0,1-6.48-16.47l44.65-44.56a9.64,9.64,0,0,1,13.63,0l22,22a4.13,4.13,0,1,1-5.83,5.84l-22-22a1.4,1.4,0,0,0-2,0l-44.65,44.56a1.39,1.39,0,0,0,1,2.38h4.74a4.13,4.13,0,0,1,4,5.3,24.62,24.62,0,0,0-1,7c0,16.52,16.58,30,37,30,18,0,33.72-10.87,36.52-25.29a4.13,4.13,0,0,1,8.11,1.58c-1.74,8.95-7.23,17.11-15.46,23A50.56,50.56,0,0,1,177.7,190.52Z"/><path class="cls-2" d="M226,124h-4.54V119.5a3.64,3.64,0,1,0-7.27,0V124h-4.54a3.64,3.64,0,1,0,0,7.27h4.54v4.54a3.64,3.64,0,0,0,7.27,0v-4.54H226a3.64,3.64,0,0,0,0-7.27Z"/><circle class="cls-3" cx="162.82" cy="131.94" r="5.72"/><circle class="cls-3" cx="192.22" cy="131.94" r="5.72"/><path class="cls-2" d="M275,231.84H256.19l7.16-19.67h0a5.08,5.08,0,0,0,.14-3,5.1,5.1,0,0,0-9.79-.28s0,0,0,.05l-8.31,22.83,0,.05h-23.4a5.1,5.1,0,0,0-5.08,5.56,5.18,5.18,0,0,0,5.2,4.63h19.57l-6.94,19.18h0a5,5,0,0,0-.4,3.14,5.09,5.09,0,0,0,9.9.41h0L252.48,242h22.41a5.17,5.17,0,0,0,5.19-4.63A5.1,5.1,0,0,0,275,231.84Z"/><path class="cls-3" d="M135.94,233.23l-.37,0-.14,0H127.5a.51.51,0,0,1-.51-.57c.07-.72.14-1.46.2-2.21,0-.55.1-1.11.14-1.68a.48.48,0,0,1,.15-.32l10.76-10.76h0a5,5,0,0,0-3.34-8.7H118.81a3.93,3.93,0,1,0,0,7.85h8a.51.51,0,0,1,.36.88l-7.44,7.44h0s-.21,3.15-.89,7.64a.52.52,0,0,1-.51.44h-7.73l-.14,0-.37,0a3.93,3.93,0,0,0,0,7.85l.38,0,.13,0h6a.51.51,0,0,1,.5.63c0,.1,0,.21-.08.32-1.3,5.24-3.21,10.85-6,15.13a.52.52,0,0,1-.78.09l-.62-.59a.15.15,0,0,0-.06-.05,3.82,3.82,0,1,0-5.09,5.63l5.87,5.82a.52.52,0,0,0,.59.1,18.16,18.16,0,0,0,5.94-5.55c2.21-3.06,4.34-8,6.39-13.73a73.29,73.29,0,0,0,2.22-7.41.51.51,0,0,1,.5-.39h9.46l.13,0,.38,0a3.93,3.93,0,0,0,0-7.85Z"/><path class="cls-3" d="M97.46,250.86h0l-.08-.06-.33-.24c-.85-.6-2.69-1.91-2.76-2a70.86,70.86,0,0,0,8.61-21.43h5a3.93,3.93,0,1,0,0-7.85h-3.35v0a4.06,4.06,0,0,0-8.12,0v0H91.15c.32-.87,3.22-8.6,3.22-8.6h0a4,4,0,1,0-7.65-2.18L82.8,219.31H77.26l-.43,0a3.94,3.94,0,0,0,0,7.87H80l-.7,1.9h0L74.39,242.5l9.33,7.65c-.64.95-1.32,1.9-2,2.85s-6.27,7.62-6.27,7.62h0A3.89,3.89,0,1,0,81.1,266h0s5.77-6.72,7.25-8.63l.2-.24h0c.47-.62.93-1.23,1.37-1.84l2.31,1.89h0a4,4,0,0,0,2.62,1,4.08,4.08,0,0,0,2.61-7.21Zm-9.62-7.53-4.17-3.39c1.26-3.46,2.78-7.64,3.39-9.3.07-.2.13-.4.19-.6l1-2.88h6.17A84.51,84.51,0,0,1,87.84,243.33Z"/><path class="cls-4" d="M169.34,249.34l-3.86,10.77a.38.38,0,0,0,.36.51h21.9a.38.38,0,0,0,.36-.25L192,249.6a.38.38,0,0,0-.36-.51h-22A.38.38,0,0,0,169.34,249.34Z"/><path class="cls-3" d="M208.12,212.85H189.38a1.18,1.18,0,0,1-1.11-1.58,1.25,1.25,0,0,0,.07-.31,3.79,3.79,0,0,0,.48-1.84,3.72,3.72,0,0,0-7.38-.69,1.43,1.43,0,0,0-.16.3l-1.22,3.35a1.19,1.19,0,0,1-1.11.77H161.27a4.24,4.24,0,0,0-3.92,2.62h0l-17.07,46.9a1.15,1.15,0,0,0-.07.35,4,4,0,0,0-.53,2,3.91,3.91,0,0,0,7.77.67,1.09,1.09,0,0,0,.19-.33c2.1-5.75,11.86-32.53,15.88-43.56a1.16,1.16,0,0,1,1.1-.77h43.31l.19,0a3.94,3.94,0,0,0,0-7.87Z"/><path class="cls-3" d="M202.69,228h-17c.19-.5.44-1.2.61-1.66.06-.14.11-.28.16-.43v0h0a3.88,3.88,0,0,0,.14-1,3.73,3.73,0,0,0-7.14-1.5l-1.9,5.21h0L173.06,241a.39.39,0,0,1-.36.25h-2.28c-6.4,0-9.27,7.85-9.27,7.85h0L154.3,268a.37.37,0,0,0,.36.51h31.21l0,0c2.08-.17,8-1.07,9.81-6,1-2.74,6.39-17.71,7.47-20.68a.39.39,0,0,0-.36-.52H181.86a.38.38,0,0,1-.36-.51l1.69-4.63a.37.37,0,0,1,.35-.25h18.85l.3,0a3.93,3.93,0,0,0,0-7.85Zm-11,21.08a.38.38,0,0,1,.36.51l-3.92,10.77a.38.38,0,0,1-.36.25h-21.9a.38.38,0,0,1-.36-.51l3.86-10.77a.38.38,0,0,1,.36-.25Z"/></svg>