<svg id="圖層_1" data-name="圖層 1" xmlns="http://www.w3.org/2000/svg" viewBox="0 0 353 353"><defs><style>.cls-1{fill:#ed2525;}.cls-2{fill:none;}.cls-3{fill:#ff6000;}.cls-4{fill:#008062;}.cls-5{fill:#fff;}</style></defs><g id="圖層_1-2" data-name="圖層 1"><path class="cls-1" d="M296.38,199.15c-1.95.33-3.88.58-5.73.72a40.12,40.12,0,0,1-19.54-3.06,1,1,0,0,0-1.22.38l-.95,1.46a1,1,0,0,0,.31,1.38l.13.07a43.94,43.94,0,0,0,21.48,3.41,61.62,61.62,0,0,0,6.23-.78c2.89-.5,5.42-1,7.72-1.63,1.21-.31,2.38-.65,3.55-1a1,1,0,0,0,.67-1.21.69.69,0,0,0,0-.13l-.67-1.57a1,1,0,0,0-1.21-.55A83.41,83.41,0,0,1,296.38,199.15Z"/><path class="cls-2" d="M259.53,166h5.18a2.5,2.5,0,0,0,2.61-2.11c.41-1.57,0-2.35-1.28-2.35h-5.27a2.54,2.54,0,0,0-2.62,2.18Q257.55,166,259.53,166Z"/><path class="cls-2" d="M274.73,179.56h6.5c1.37,0,2.26-.79,2.67-2.36s0-2.44-1.33-2.44h-6.5c-1.37,0-2.26.78-2.67,2.36S273.42,179.56,274.73,179.56Z"/><path class="cls-2" d="M278.28,166h6.5a2.5,2.5,0,0,0,2.61-2.11c.41-1.57,0-2.35-1.27-2.35h-6.59a2.55,2.55,0,0,0-2.63,2.18Q276.3,166,278.28,166Z"/><path class="cls-2" d="M262.5,174.76h-5.19c-1.37,0-2.26.78-2.67,2.36s0,2.44,1.34,2.44h5.18c1.37,0,2.26-.79,2.67-2.36S263.81,174.76,262.5,174.76Z"/><path class="cls-1" d="M222.2,172.94c2.56,0,5.11,0,7.67,0a5.54,5.54,0,0,0,5.18-3c2-3.49,4-7,6-10.47q4.54-8,9-16c1.14-2,.65-2.86-1.72-2.88H244.6v0c-1.41,0-2.82,0-4.24,0a5,5,0,0,0-4.42,2.61q-7.69,13.52-15.31,27.07C219.64,172,220.18,172.91,222.2,172.94Z"/><path class="cls-1" d="M314.08,202.78l-1.26.28h-.08c-15.48,3.09-21.59,4-32.87,3a46.93,46.93,0,0,1-14.95-3.56c-1.66-.72-1.95-2-1.18-3a70.32,70.32,0,0,0,4.76-8.42c.83-1.69,1.9-2.53,3.22-2.53H288a3,3,0,0,0,3.15-2.61l8.07-30.83q.66-2.52-1.89-2.52H281.78c-1.3,0-1.77-.73-1.39-2.2a2.44,2.44,0,0,1,2.58-2h12.39a3.06,3.06,0,0,0,3.16-2.61l1.08-4.13q.64-2.52-1.89-2.52H260.18a3,3,0,0,0-3.13,2.52l-1.1,4.22q-.64,2.52,1.89,2.52h11.55c1.3,0,1.77.73,1.4,2.19a2.46,2.46,0,0,1-2.59,2H254a3.06,3.06,0,0,0-3.15,2.61L242.76,186c-.43,1.69.2,2.53,1.89,2.53h13.08c1.37,0,1.66.7.85,2.1a16.87,16.87,0,0,1-1.46,2.11c-1.45,1.57-2.79,2-4,1.18l-2.54-2.29a3.6,3.6,0,0,0-4.89-.84l-2.7,1.52c-1.9,1.18-2.12,2.78-.68,4.8l1.69,2c1.33,1.41,1.19,2.58-.29,3.2s-3.53,1.34-5.43,1.95c-7.32,2.41-9.42-1.75-8.81-4.4.43-1.86.61-2.59,1.22-4.68.13-.45.25-.9.38-1.35h0l4.17-15c.7-2.49,0-3.46-2.58-3.49-1.47,0-2.94,0-4.41,0-2.93,0-4.11.95-4.89,3.76-1.22,4.45-2.48,8.89-3.71,13.34l-.35,1.4h0c-.39,1.39-.81,2.9-1.25,4.45a10,10,0,0,1-6.36,6.82,30.71,30.71,0,0,1-5.38,1.17c-6.55,1-11.06,1.37-27.56-1.49l-.62,3.57-1.61-.24a2.94,2.94,0,0,0-.9,5.81c.62.09,7.14,1.08,15.54,1.69,2.39.22,4.45.32,6.34.35s3.75.11,5.65.11c7.34,0,15.11-2.61,19.36-4.45,2.66,1,4.18,2,8.46,2.5a22.78,22.78,0,0,0,10.23-1.37c2.31-.82,7.88-3,10.25-4a4.92,4.92,0,0,1,4.9.36A53.57,53.57,0,0,0,279,215.84c3.2.27,6,.41,8.75.41,7.59,0,14.08-1,25.11-3.22v.05l.86-.22c1.95-.45,2.93-1.89,3.24-4.07l.35-3.12C317.5,203.41,316.42,202.44,314.08,202.78ZM276.9,163.72a2.55,2.55,0,0,1,2.63-2.18h6.58c1.27,0,1.69.78,1.28,2.35a2.5,2.5,0,0,1-2.61,2.11h-6.5Q276.3,166,276.9,163.72Zm-3.5,13.4c.41-1.58,1.3-2.36,2.67-2.36h6.5c1.3,0,1.75.81,1.33,2.44s-1.3,2.36-2.67,2.36h-6.5C273.42,179.56,273,178.74,273.4,177.12Zm-15.25-13.4a2.54,2.54,0,0,1,2.62-2.18h5.28c1.26,0,1.69.78,1.28,2.35a2.5,2.5,0,0,1-2.61,2.11h-5.19Q257.55,166,258.15,163.72Zm3,15.84H256c-1.32,0-1.77-.82-1.34-2.44s1.3-2.36,2.67-2.36h5.19c1.31,0,1.76.81,1.33,2.44S262.53,179.56,261.16,179.56Z"/><path class="cls-3" d="M213.1,147.13H185.7c-1.32,0-1.63-.67-.95-2a40,40,0,0,1,1.88-3.69c.82-1.68.48-2.78-1-3.28l-3.23-.84c-1.66-.4-3,.42-4,2.44A134.56,134.56,0,0,1,168,155.91q-2.16,2.28-1.43-.51l.35-1.35q.66-2.52-1.89-2.52h-1.23c-1.32,0-1.79-.7-1.42-2.11l2.57-9.85c.44-1.69-.19-2.53-1.89-2.53H158.9a3,3,0,0,0-3.15,2.61l-2.58,9.85c-.35,1.35-.94,2-1.76,2s-.86-.73-.25-2.2l.32-.92c.56-1.68-.13-2.83-2-3.45l-2.91-.85q-2.31-.59-3.14,1.94a182.62,182.62,0,0,1-9.56,22.07q-1.32,2.52.78,4l2.85,1.68q2.15,1.19,3.56-1.35,2.52-4.62,4.64-9.26c.83-1.69,1.82-2.53,3-2.53s1.45.7,1.09,2.11l-3.42,13a4.29,4.29,0,0,1-2.74,2.94l-9.31,3.2q-3,1.09-2.66,3.87l.68,4.3q.41,2.55,3.33,1.44c1.53-.62,3-1.15,4.46-1.6q2.83-1.09,2.28,1l-1.09,4.15h0a17.66,17.66,0,0,1-6.81,8.57,17.4,17.4,0,0,1-5.71,2.56c-7.71,1.84-15.85,1.5-32.29-1.34l-1.53,8.84c10.2,1.76,17.53,2.6,23.63,2.6a50.71,50.71,0,0,0,12.27-1.39A25.82,25.82,0,0,0,138,212l2.72.38a66,66,0,0,0,9.27.93,24.93,24.93,0,0,0,9.22-1.77,32.88,32.88,0,0,0,7.74-4.12h0a27.32,27.32,0,0,0,2.28-1.73l.07,0,.16-.15c.32-.27.62-.56.92-.86l0,0A127,127,0,0,0,197.08,169h0c.55-1.14,1.11-2.28,1.69-3.45,1.2-2.25.9-3.95-.9-5.13l-2-1.24q-2.61-1.62-4.68,2.52l-1,2.25c-1.59,3.2-3.42,6.5-5.52,9.88-4.67,8.1-11.47,16.24-20.69,24.38-6.77,5.39-12.42,6.08-14.92,6.07-.75,0-1.56-.1-2.45-.21a22.72,22.72,0,0,0,3.13-6.05h0l.06-.23a1.72,1.72,0,0,1,.07-.21h0l3-11.39a4.8,4.8,0,0,1,2.79-3.12q2.38-1.26,4.62-2.28c2-1.12,2.94-2.53,2.83-4.21l-.21-3.29q-.24-2.52-3-1.26-5.16,3.38-3.2-.33l2.37-9.1a2.55,2.55,0,0,1,2.76-2c1.42,0,1.84.39,1.25,1.18-.76.79-.55,2,.61,3.62l1.88,2.28c1.08,1.53,2.57,1.3,4.45-.67q3.12-3.45,6.18-7.58c1.21-1.68,2.25-2.53,3.13-2.53h23.61c.48.06.54.76.19,2.11q-5,17.94-11.29,36.2c-1.3,4.78-3.14,7.9-5.49,9.35q-3.24.76-9.18-.76c-1.8-.45-2.86.26-3.18,2.11l-.94,5.13a2.25,2.25,0,0,0,2.13,2.87,30.84,30.84,0,0,0,10.8.25,16.12,16.12,0,0,0,11.9-10.61,430.56,430.56,0,0,0,17.16-53.9C215.34,148,214.74,147.13,213.1,147.13Z"/><path class="cls-3" d="M179.46,161q-1.77,2.55-3.39,5.08c-1.09,1.56-2.09,2.91-3,4a104.67,104.67,0,0,1-11.26,12.55c-1.69,1.63-1.87,3.28-.56,5l1.91,2.44q1.55,1.94,4.71-1a154.76,154.76,0,0,0,14.57-17.56l0,0c1.42-2,2.46-3.48,3.76-5.37s1.34-3.54-.23-5l-2-1.9Q182.12,157.56,179.46,161Z"/><path class="cls-4" d="M80.73,137.62H60.08c-1.59,0-2.61.89-3.09,2.69L43.26,192.78c-.44,1.69.16,2.53,1.8,2.53H65.71a3.06,3.06,0,0,0,3.15-2.61l13.76-52.56Q83.28,137.62,80.73,137.62ZM63,181l-.83,3.2a2.43,2.43,0,0,1-2.58,2H55.75c-1.3,0-1.78-.7-1.42-2.1l.86-3.29a2.43,2.43,0,0,1,2.58-2h3.95q1.91,0,1.32,2.19Zm4.28-16.34-.87,3.28a2.44,2.44,0,0,1-2.58,2H60c-1.32,0-1.8-.7-1.43-2.11l.86-3.27a2.43,2.43,0,0,1,2.59-2h3.86c1.32,0,1.8.69,1.43,2.09ZM71.42,149l-.75,2.86a2.44,2.44,0,0,1-2.59,2H64.22c-1.32,0-1.8-.7-1.43-2.11l.77-2.93a2.45,2.45,0,0,1,2.59-2H70.1c1.26,0,1.7.71,1.32,2.17Z"/><path class="cls-4" d="M60.53,198.76c1.94-1.12,3.2-.9,3.77.68a34.17,34.17,0,0,0,2.07,4,3.38,3.38,0,0,1-.56,5L63,211.14c-1.89,1.8-3.4,1.88-4.5.26a27.75,27.75,0,0,1-2.77-6.66c-.46-1.8.22-3.25,2.05-4.38Z"/><path class="cls-3" d="M89.72,192.53q.44-1.68-1.53-1.68h-3.3c-1.37,0-2.18.5-2.45,1.51s.22,1.69,1.54,1.69h3.29C88.64,194.05,89.45,193.54,89.72,192.53Z"/><path class="cls-3" d="M92.54,181.75c.3-1.13-.19-1.69-1.45-1.69H87.72c-1.37,0-2.19.51-2.46,1.52s.24,1.6,1.56,1.6h3.29C91.48,183.17,92.29,182.71,92.54,181.75Z"/><path class="cls-4" d="M126.46,141.07h-4.27q-2,0-1.38-2.28c.37-1.41-.3-2.11-2-2.11H114.7a2.83,2.83,0,0,0-3.06,2.29,2.49,2.49,0,0,1-2.61,2.1h-4.28q-2,0-1.38-2.28c.37-1.4-.3-2.1-2-2.1H97a2.75,2.75,0,0,0-2.9,2.28,2.48,2.48,0,0,1-2.6,2.11h-4a3,3,0,0,0-3.15,2.61l-.78,2.93c-.43,1.68.2,2.53,1.89,2.53h4c1.32,0,1.86.42,1.63,1.26s-1,1.1-2.34,1.1H87a3.06,3.06,0,0,0-3.15,2.61l-.77,2.93c-.44,1.69.19,2.53,1.89,2.53h1.72c1.32,0,1.87.42,1.64,1.26s-1,1.1-2.35,1.1H80.66a3.06,3.06,0,0,0-3.15,2.61l-.75,2.86q-.65,2.52,1.89,2.52h15c1.32,0,1.87.4,1.67,1.18s-.95,1-2.32,1H81a3.06,3.06,0,0,0-3.16,2.6L73.32,192a2.36,2.36,0,0,1-2.43,2c-1.15,0-2,.87-2.41,2.61l-.81,3.12c-.44,1.68,0,2.53,1.23,2.53s1.54.7,1.17,2.1l-1.89,7.24c-.43,1.69.19,2.53,1.89,2.53h4.21a3.06,3.06,0,0,0,3.15-2.61l1.89-7.24a2.45,2.45,0,0,1,2.59-2h19.17c1.3,0,1.92.25,1.86.76q-1.23,3.12-3.7,2.19a19.39,19.39,0,0,1-3.86-.68q-2.28-.75-2.52,1.77l-.26,4.13a2.93,2.93,0,0,0,2.19,3.29,17,17,0,0,0,8.79-.26,12.84,12.84,0,0,0,8.19-8.67c.49-1.69,1.24-2.53,2.22-2.53s1.63-.87,2.08-2.61l.82-3.11c.43-1.69.16-2.53-.82-2.53s-1.21-.7-.85-2.11l4.51-17.23c.44-1.68-.19-2.53-1.89-2.53H105.75c-1.32,0-1.87-.39-1.67-1.18s1-1,2.32-1h14.07a3.06,3.06,0,0,0,3.15-2.61l.75-2.86c.44-1.68-.19-2.53-1.89-2.53h-5.76c-1.3,0-1.85-.42-1.63-1.26s1-1.1,2.35-1.1h2.71a3,3,0,0,0,3.15-2.6l.77-2.94c.44-1.68-.19-2.52-1.88-2.52h-2.72c-1.31,0-1.85-.43-1.63-1.27s1-1.09,2.34-1.09h4.28a3,3,0,0,0,3.15-2.61l.77-2.94C128.81,141.93,128.17,141.07,126.46,141.07Zm-20.61,20c-.21.62-1,.93-2.3.93H99.28c-1.31,0-1.86-.42-1.63-1.27s1-1.09,2.35-1.09h4.6c1.1,0,1.51.48,1.26,1.43Zm2.78-10.61c-.19.73-1,1.09-2.34,1.09H102c-1.32,0-1.86-.42-1.63-1.26s1-1.09,2.34-1.09H107c1.3,0,1.84.42,1.63,1.26Z"/><path class="cls-5" d="M92.51,194.63h9.38a2,2,0,0,0,2.14-1.44c1.3-3.78,2.78-7.5,4-11.32a3.12,3.12,0,0,1,2.84-2.33,5.09,5.09,0,0,0,2-.88c.28-.19.25-.78.37-1.2a4.26,4.26,0,0,0-1.23-.13c-1.19.22-2.35.61-3.55.77a2.37,2.37,0,0,0-2.14,1.81c-1.3,3.82-2.72,7.61-4.08,11.41a1.59,1.59,0,0,1-1.77,1.21c-1.05-.05-2.11,0-3.16,0H83.61c-1,0-1.82.61-1.73,1.34.13,1,1,.74,1.64.75C86.5,194.64,89.51,194.63,92.51,194.63Z"/><path class="cls-5" d="M95.25,182.05c-2.56,0-5.12,0-7.68,0a1.9,1.9,0,0,0-2.08,1.36c-.32,1-.71,2-1,3s-.13,1.46,1.06,1.66l14.5,2.44c.87.15,1.63,0,1.79-.85s-.74-1-1.44-1.12c-4-.71-8.06-1.41-12.07-2.13-.54-.09-1.23-.1-1.07-.9s.38-1.32,1.3-1.38H101.8c.36,0,.84.11,1.07,0a9.76,9.76,0,0,0,1.26-1.31c-.44-.23-.88-.65-1.32-.65C100.29,182,97.76,182.05,95.25,182.05Z"/><path class="cls-5" d="M87.42,197a1.48,1.48,0,1,0-1.57,1.23A1.39,1.39,0,0,0,87.41,197Z"/><path class="cls-5" d="M97.18,195.44c-.29.38-.93.87-1,1.43-.12.77.55,1.29,1.42,1.36a1.44,1.44,0,0,0,1.51-1.43C99,196,98.45,195.56,97.18,195.44Z"/><path class="cls-4" d="M46.78,199.94h2.69c1.69,0,2.05.6,1.23,2.06-2.16,3.84-2.94,5.65-4.37,8.16a4,4,0,0,1-3.72,2.18c-1.83,0-3.67,0-5.5,0-1.45,0-1.84-.67-1.13-1.93,3.44-6.56.9-2.12,4.57-8.58A3.59,3.59,0,0,1,43.73,200c1,0,2.41,0,3.42,0A2.26,2.26,0,0,0,46.78,199.94Z"/></g></svg>