<svg id="圖層_1" data-name="圖層 1" xmlns="http://www.w3.org/2000/svg" viewBox="0 0 353 353"><defs><style>.cls-1{fill:#fff;}.cls-2{fill:#cfad6f;}.cls-3{fill:#62718e;}</style></defs><path class="cls-1" d="M292.46,120.58c-17-20.49-54.6-54.87-115.78-54.87S77.83,100.13,60.85,120.64a21.08,21.08,0,0,0,5.3,31.49l99.12,60.05a21,21,0,0,0,21.78,0l100-60.11a21.07,21.07,0,0,0,5.37-31.53Z"/><path class="cls-2" d="M176.19,216.22a22,22,0,0,1-11.43-3.2L65.64,153a22.07,22.07,0,0,1-5.55-33c17.09-20.64,55-55.28,116.59-55.28S276.13,99.33,293.22,120a22.06,22.06,0,0,1-5.62,33L187.55,213.07A22.13,22.13,0,0,1,176.19,216.22Zm.49-149.52c-60.82,0-98.21,34.19-115.08,54.57a20.11,20.11,0,0,0,5.06,30l99.12,60.05a20,20,0,0,0,20.76,0l100-60.11a20.09,20.09,0,0,0,5.11-30.06h0C274.83,100.85,237.46,66.7,176.68,66.7Z"/><path class="cls-1" d="M68.86,147.64a23.79,23.79,0,0,1-4-3.41c22.47-38.25,65.23-62,111.75-62S265.91,106,288.38,144.2a18.58,18.58,0,0,1-4,3.41l-38.27,23a41.59,41.59,0,0,0-27.71-10.5,40.52,40.52,0,0,0-8,.82,41.7,41.7,0,0,0-67.37,0,40.52,40.52,0,0,0-8-.82,41.65,41.65,0,0,0-27.95,10.7Z"/><path class="cls-2" d="M107.23,172,68.3,148.45a25.16,25.16,0,0,1-4.11-3.53l-.52-.54.38-.65c22.64-38.53,65.78-62.47,112.6-62.47s89.94,23.92,112.58,62.44l.35.59-.44.54a20.21,20.21,0,0,1-4.19,3.6L246,171.83l-.54-.48a40.72,40.72,0,0,0-27.06-10.25,40,40,0,0,0-7.8.79L210,162l-.37-.5a40.71,40.71,0,0,0-65.78,0l-.37.5-.61-.12a40.08,40.08,0,0,0-7.8-.79,40.68,40.68,0,0,0-27.29,10.45ZM69.4,146.82,107,169.6a42.66,42.66,0,0,1,28.06-10.47,41.29,41.29,0,0,1,7.57.71,42.68,42.68,0,0,1,68.21,0,41.29,41.29,0,0,1,7.57-.71,42.68,42.68,0,0,1,27.82,10.27l37.66-22.63a18.85,18.85,0,0,0,3.28-2.69c-22.38-37.55-64.66-60.85-110.52-60.85s-88.13,23.3-110.52,60.85A22.42,22.42,0,0,0,69.4,146.82Z"/><path class="cls-2" d="M189.54,130.54c-3.69.12-7.38.16-11.08.19-.18-1.71-.3-3.42-.38-5.13-.12-2.23-.15-4.46-.17-6.68,0-.35,0-.69,0-1,3.38,0,6.76,0,10.15.15,3.83.12,7.67.3,11.5.66V114c-3.83.35-7.67.53-11.5.65-3.37.11-6.73.14-10.1.16,0-.86.05-1.71.1-2.56.08-1.71.19-3.41.38-5.12,1.91,0,3.82.07,5.73.18,2.56.13,5.11.32,7.67.69v-3.71c.67.37,1.33.75,2,1.1,1.12.57,2.26,1.12,3.44,1.63.59.26,1.18.5,1.8.74.3.12.62.23.93.34s.61.22,1.06.34l.76-4.79c-.14,0-.46,0-.72,0l-.82-.12c-.55-.09-1.1-.23-1.66-.36a33.58,33.58,0,0,1-3.32-1A43.13,43.13,0,0,1,189,99a47.53,47.53,0,0,1-5.87-4,43.44,43.44,0,0,1-5.21-4.85h0l-1.28-1.28-1.27,1.28h0A48.25,48.25,0,0,1,164.25,99,44.56,44.56,0,0,1,157.9,102a33.47,33.47,0,0,1-3.31,1.06c-.56.14-1.11.26-1.66.36l-.82.14c-.25,0-.57.06-.72.05l.77,4.8c.45-.11.72-.21,1.06-.32l.94-.34c.61-.23,1.21-.47,1.8-.73,1.18-.51,2.32-1,3.45-1.62.6-.3,1.17-.64,1.76-1V108c2.56-.38,5.11-.57,7.67-.7,1.28-.09,2.56-.1,3.84-.15l1.64,0c.19,1.7.3,3.41.39,5.12q.06,1.27.09,2.55c-3.24,0-6.49-.07-9.73-.2-3.83-.14-7.67-.34-11.5-.71v4.94c3.83-.38,7.67-.58,11.5-.72,3.26-.12,6.53-.17,9.79-.2,0,.34,0,.68,0,1,0,2.22,0,4.45-.16,6.68-.09,1.71-.2,3.42-.39,5.13l-4.11,0c-2.15,0-4.3-.06-6.45-.15-4.29-.13-8.59-.32-12.88-.69v4.87c4.29-.37,8.59-.57,12.88-.69,2.15-.09,4.3-.1,6.45-.15l6.44,0c4.3,0,8.6.05,12.89.2s8.6.32,12.89.68v-4.87C198.14,130.22,193.84,130.41,189.54,130.54Zm-20.7-26.74c-1.9-.1-3.79-.24-5.69-.45q1.4-.81,2.76-1.68c3.74-2.37,7.25-5,10.73-7.77,1.54,1.18,3.07,2.36,4.63,3.51,2,1.47,4,2.89,6.12,4.22.9.58,1.83,1.14,2.76,1.68-2,.23-4,.37-6,.48-2.56.14-5.12.18-7.68.2l-3.83,0C171.4,103.89,170.12,103.88,168.84,103.8Z"/><path class="cls-2" d="M187.24,122.92a26.15,26.15,0,0,0-1.59,2.54,10.57,10.57,0,0,0-1.25,3.26l4.8.7a6.43,6.43,0,0,1,.61-1.88,23.58,23.58,0,0,1,1.16-2.21c.44-.74.91-1.48,1.41-2.2s1-1.47,1.52-2.14l-3.11-2.58c-.65.74-1.24,1.45-1.84,2.2S187.79,122.13,187.24,122.92Z"/><path class="cls-2" d="M163,127.54a6.07,6.07,0,0,1,.6,1.88l4.81-.7a10.83,10.83,0,0,0-1.25-3.26,26.15,26.15,0,0,0-1.59-2.54c-.55-.79-1.13-1.56-1.72-2.31s-1.18-1.46-1.84-2.2L158.9,121c.51.67,1,1.41,1.52,2.14s1,1.46,1.4,2.2A21.56,21.56,0,0,1,163,127.54Z"/><path class="cls-3" d="M63.37,123.71C80,103.64,116.79,70,176.68,70s96.64,33.64,113.26,53.68a16,16,0,0,1,3.42,13.65,17.5,17.5,0,0,1-1.19,4C268.66,101.72,225,78,176.65,78s-91.91,24.1-115.41,63.68a17.91,17.91,0,0,1-1.18-4C59.2,132.57,60.06,127.72,63.37,123.71Z"/><path class="cls-3" d="M188.27,207.66a15.65,15.65,0,0,0-23.43.39h0a37.7,37.7,0,0,0-3.15-3.17h0a20.08,20.08,0,0,1,30,0c-.63.56-1.23,1.16-1.83,1.76Z"/><path class="cls-3" d="M176.73,161.9A23.72,23.72,0,0,0,158.9,170l-.25-.16c-.55-.41-1.13-.76-1.7-1.13s-1.17-.82-1.78-1.18h0a28.14,28.14,0,0,1,43.11,0c-.6.36-1.16.78-1.75,1.16s-1.17.74-1.73,1.15l-.25.17h0A23.72,23.72,0,0,0,176.73,161.9Z"/><path class="cls-3" d="M161.71,172.28a20.08,20.08,0,0,1,30,0h0c-.07.07-.14.16-.22.23-.45.41-.86.86-1.29,1.29s-1.11,1.06-1.62,1.64a15.65,15.65,0,0,0-23.79,0c-.52-.58-1.09-1.1-1.64-1.65s-.83-.88-1.27-1.28c-.08-.08-.15-.16-.24-.24Z"/><path class="cls-3" d="M167.87,183.12c1.06-.26,2.13-.45,3.21-.61.39-.06.77-.16,1.16-.21a36.54,36.54,0,0,1,9,0c.39,0,.77.15,1.15.21,1.08.16,2.16.35,3.22.61s2.4.66,3.56,1.08c.24.09.46.2.69.29,1,.37,1.9.77,2.82,1.22.43.21.84.45,1.26.67.72.39,1.43.79,2.12,1.23.41.26.83.53,1.23.81.7.49,1.38,1,2.05,1.53.33.27.68.53,1,.81a32.75,32.75,0,0,1,2.77,2.63l.27.3c.78.86,1.53,1.76,2.24,2.69.08.11.15.23.24.34a39.64,39.64,0,0,0-4.28,1.69,31.77,31.77,0,0,0-49.67,0,39.64,39.64,0,0,0-4.28-1.69l.25-.35c.68-.9,1.4-1.76,2.15-2.58.13-.13.24-.28.36-.42a37.29,37.29,0,0,1,2.74-2.6c.34-.29.7-.56,1-.83.65-.53,1.32-1,2-1.51.41-.28.83-.56,1.25-.82.69-.44,1.39-.84,2.11-1.23.41-.22.83-.46,1.25-.67.93-.45,1.88-.86,2.84-1.23.23-.09.45-.2.68-.28C165.47,183.78,166.66,183.43,167.87,183.12Z"/><path class="cls-3" d="M176.73,194.51a23.73,23.73,0,0,0-17.83,8.09,38.93,38.93,0,0,0-3.73-2.48h0a28.12,28.12,0,0,1,43.11,0,40.12,40.12,0,0,0-3.73,2.47h0A23.73,23.73,0,0,0,176.73,194.51Z"/><path class="cls-3" d="M154.87,185c-.58.38-1.17.74-1.73,1.15l-.25.16h0A23.68,23.68,0,0,0,122,182.14l-4.13-2.5a28.12,28.12,0,0,1,38.74,4.18C156,184.17,155.45,184.6,154.87,185Z"/><path class="cls-3" d="M135.06,181.83a20.1,20.1,0,0,1,15,6.76h0c-.08.07-.14.15-.22.22-.45.41-.86.87-1.29,1.3s-1.11,1.06-1.63,1.64a15.6,15.6,0,0,0-11.89-5.48,15.42,15.42,0,0,0-4.92.8l-4.63-2.81A20,20,0,0,1,135.06,181.83Z"/><path class="cls-3" d="M218.41,186.27a15.66,15.66,0,0,0-11.9,5.47c-.51-.58-1.09-1.1-1.64-1.65s-.83-.87-1.27-1.28l-.23-.23h0a20.1,20.1,0,0,1,15-6.76,19.86,19.86,0,0,1,9.15,2.23l-4.74,2.85A15.67,15.67,0,0,0,218.41,186.27Z"/><path class="cls-3" d="M218.41,178.21a23.68,23.68,0,0,0-17.83,8.08l-.26-.17c-.55-.4-1.13-.75-1.7-1.13s-1.17-.82-1.78-1.18h0a28.12,28.12,0,0,1,38.44-4.41l-4.16,2.5A23.62,23.62,0,0,0,218.41,178.21Z"/><path class="cls-3" d="M218.41,170.14a31.77,31.77,0,0,0-24.84,12h0c-.34-.16-.71-.27-1.06-.42-.73-.32-1.47-.61-2.23-.88-.33-.12-.65-.28-1-.4l.25-.35c.68-.9,1.39-1.75,2.15-2.58.12-.13.23-.28.35-.41a35.55,35.55,0,0,1,2.75-2.61c.34-.29.69-.55,1-.83.66-.53,1.32-1,2-1.51.41-.28.83-.55,1.25-.82.69-.43,1.4-.84,2.11-1.22.42-.23.83-.47,1.26-.67.92-.46,1.87-.86,2.84-1.24.22-.08.44-.19.67-.28A36.33,36.33,0,0,1,242.64,175l-4,2.42A31.62,31.62,0,0,0,218.41,170.14Z"/><path class="cls-3" d="M204.85,164.5c-.75.27-1.49.56-2.23.88-.34.15-.71.26-1.05.42a31.77,31.77,0,0,0-49.67,0h0c-.35-.16-.71-.27-1.06-.42-.74-.31-1.48-.61-2.23-.88-.35-.13-.68-.29-1-.41a36.26,36.26,0,0,1,58.29,0C205.52,164.21,205.2,164.37,204.85,164.5Z"/><path class="cls-3" d="M148.18,168.18q1.44.56,2.82,1.23c.43.2.84.44,1.26.66.71.39,1.42.8,2.11,1.23l1.24.82q1,.72,2,1.53c.34.27.68.52,1,.8a38.14,38.14,0,0,1,2.77,2.63l.26.31a32.25,32.25,0,0,1,2.24,2.69c.09.11.16.22.24.33-.34.12-.66.27-1,.4-.75.27-1.49.56-2.22.88-.35.15-.71.26-1,.42a31.71,31.71,0,0,0-45.31-4.46l-4-2.43a36.06,36.06,0,0,1,24.47-9.51,36.48,36.48,0,0,1,12.43,2.18Z"/><path class="cls-2" d="M84.63,280.2h-2v1.6l.08,0,1.83-.78.08.22-.31.2-1.68,1v4.49c0,.36,0,.57-.22.79a2.78,2.78,0,0,1-1.15.54,1.38,1.38,0,0,0-.75-1c-.25-.08-.47-.15-.78-.22v-.27a11.1,11.1,0,0,0,1.73.13.28.28,0,0,0,.15-.17V283l-.06,0c-.58.36-1,.58-1.56,1,.05.21-.21.34-.3.17s-.4-.75-.55-1.07l.08-.05,2.34-.85,0-2H80.25a3.12,3.12,0,0,0-.82.11l-.24-.47h2.42v-.34c0-1.17,0-1.52,0-2.4.54.12.93.25,1.41.4a.16.16,0,0,1,.09.19c-.14.17-.41.16-.47.41v1.74H83l.53-.74c0-.06.17,0,.22,0,.34.31.56.55.93.91A.11.11,0,0,1,84.63,280.2Zm5.51-1.13H87.83v8c0,.45-.43.82-1.17,1.13l-.29.09a1.42,1.42,0,0,0-.81-1.09,6.54,6.54,0,0,0-.82-.22l0-.3a12.36,12.36,0,0,0,1.75.18.27.27,0,0,0,.2-.14,1.3,1.3,0,0,0,0-.52v-7.1h-1.7a4.16,4.16,0,0,0-.86.13l-.29-.5,4.41,0,.56-.82s.17-.09.25,0a12.57,12.57,0,0,1,1,.92.17.17,0,0,1,0,.23Z"/><path class="cls-2" d="M102.1,288.07a16.08,16.08,0,0,0,1.15-1.68,7.46,7.46,0,0,0,.94-2.68l0-.31h-.63l-.3.45a.2.2,0,0,1-.22,0c-.34-.27-.53-.41-.72-.58s0-.17,0-.18l.6-.37c.36-.78.76-1.53,1.16-2.33H103a2.56,2.56,0,0,0-.64.1l-.22-.42h2l.42-.49s.13,0,.21,0l.64.54a.17.17,0,0,1,0,.21c-.15.09-.32.15-.48.25l-.17.3-1.06,2.14h.46l.36-.51c.07-.06.17,0,.24,0a8.87,8.87,0,0,1,1,.65s0,.12,0,.16-.41.14-.55.33c-.23.68-.4,1.05-.65,1.63a2.41,2.41,0,0,0,2.06,1.38l.42,0,3.57,0a23.54,23.54,0,0,0,2.53-.15l0,.2c-.52.11-1.17.4-1.25,1l-2.3,0-2.35-.15a3,3,0,0,1-2.2-.75,3.14,3.14,0,0,1-.74-1.11,11.24,11.24,0,0,1-2,2.41Zm.91-10.81a4.49,4.49,0,0,1,1.49,1.2.71.71,0,0,1,0,.82c-.12.18-.33.39-.58.31l-.12-.13a8.32,8.32,0,0,0-.85-2Zm6.46,4.74c0,.07,0,.16-.2.26s-.43.18-.64.26-.18,0-.18-.13c0-.34,0-.57,0-.74v-.28l-2.72,0a2.11,2.11,0,0,0-.56.09l-.26-.42h3.55v-1.65h-1.58c-.36.55-.77,1-1.17,1.55l-.17-.09a9.11,9.11,0,0,0,1-3.29,4.85,4.85,0,0,1,1.21.62c0,.2-.34.24-.45.43a3.77,3.77,0,0,1-.23.45h1.42a19.9,19.9,0,0,0-.05-2.06,11.13,11.13,0,0,1,1.35.38.15.15,0,0,1,0,.2c-.1.09-.38.16-.38.27v1.21h1.14l.44-.67a.22.22,0,0,1,.21,0c.37.31.69.52,1,.8,0,.06,0,.2-.06.2h-2.71v1.65h1.85l.43-.56a.12.12,0,0,1,.2,0c.34.29.44.32.84.7,0,0,0,.14,0,.17h-3.28Zm-2,3.44V286c0,.08,0,.17-.19.23a3.4,3.4,0,0,1-.7.24c-.07,0-.17,0-.16-.1,0-.7.09-.89.07-1.72s0-1.65-.08-2.42c.45.17.82.35,1.22.54h2.73l.42-.47s.14,0,.18,0l.91.62a.12.12,0,0,1,0,.17c-.26.24-.43.26-.42.59l0,1.94c0,.18,0,.28-.08.35a1.62,1.62,0,0,1-.81.38.13.13,0,0,1-.15-.11v-.79Zm3-2.36h-3v2.05h3Z"/><path class="cls-2" d="M136.23,287.52a1.36,1.36,0,0,0-1.19.57,4.39,4.39,0,0,1-.51-.42,7.43,7.43,0,0,1-1.1-1.57,8.72,8.72,0,0,1-3.44,2.11c-.14.07-.22-.06-.29-.14a7.87,7.87,0,0,0,3.34-2.81,12.85,12.85,0,0,1-.6-4.14,16.61,16.61,0,0,1-1,1.69l-.21-.1a12,12,0,0,0,.77-2.16,4.56,4.56,0,0,1,.18-.6H131c0,.49,0,.71,0,1.12a.18.18,0,0,1-.16.17,2.15,2.15,0,0,1-.64.16.08.08,0,0,1-.07-.07V281h-1.09v.75h1.06l.23-.29a.21.21,0,0,1,.25,0c.3.17.48.27.78.46,0,0,0,.09,0,.12s-.3.17-.35.34c0,.4,0,.73,0,1.15a.14.14,0,0,1-.09.12,2.78,2.78,0,0,1-.65.23.13.13,0,0,1-.14-.12v-.46h-1.13v.5a.2.2,0,0,1-.1.19,4.69,4.69,0,0,1-.62.25c-.06,0-.15,0-.16-.06V284h-.07a3.68,3.68,0,0,0-.3.5h2.92l.53-.69c0-.05.15-.05.22,0,.29.28.65.55.92.86,0,.07,0,.14-.07.18h-1.77a6.39,6.39,0,0,1-.71,1.14,1.45,1.45,0,0,1,1,.68c0,.17.12.37,0,.51a.29.29,0,0,1-.2.13l-.17,0c-.39-.22-.81-.42-1.22-.62h-.08a8.65,8.65,0,0,1-4,1.3l-.12-.2a10.19,10.19,0,0,0,3.31-1.45,7,7,0,0,0-.92-.29,5.07,5.07,0,0,0-1.24-.14c.17-.34.31-.57.42-.77l.16-.29h-.74a3.85,3.85,0,0,0-.69.09l-.3-.42H127a10.21,10.21,0,0,0,.46-1.15h.1l.66.33v-.4h-1.36v.18a.28.28,0,0,1-.06.15,2.48,2.48,0,0,1-.7.27s-.09,0-.11-.07c0-.29,0-.57,0-.84v-.63c0-.29,0-.58,0-.9l.82.29.09,0h1.34V281H127c0,.15-.16.22-.29.25l-.43.13a.16.16,0,0,1-.16-.14c0-.56,0-.87,0-1.3h-.33a2.09,2.09,0,0,0-.51.08l-.25-.41h1.07V279l0-.87a7.26,7.26,0,0,1,1,.44h1.14v-1.49c.44.13.67.2,1.07.35.18.13-.21.33-.21.46v.68h1c.15-.13.23-.31.39-.44a.24.24,0,0,1,.23,0c.1.1.25.22.38.33s.37.24.27.37-.3.17-.33.35v.42h.06l.35-.51a.16.16,0,0,1,.17,0l.62.61a14.59,14.59,0,0,0,.35-2.62c.39.11.7.21,1,.34.11,0,.36.08.26.28s-.29.11-.36.28c-.22.75-.46,1.43-.72,2.18h1.95l.39-.55a.13.13,0,0,1,.16,0,7.66,7.66,0,0,1,.87.75s0,.09,0,.14l-.1,0h-1.52l.72.28c.06,0,0,.12,0,.17s-.26.09-.31.25a11.38,11.38,0,0,1-.32,1.94,7.14,7.14,0,0,1-.69,2.09,5.89,5.89,0,0,0,2.32,2Zm-8-5.43h-1.35v.85h1.35Zm0-3.19H127v.72h1.2Zm0,1.06H127v.73h1.2Zm-.53,4.86c-.15.26-.3.56-.47.82.59,0,1.17.09,1.74.13a4.84,4.84,0,0,0,.62-.95Zm2.48-5.92h-1.1v.72h1.1Zm0,1.06h-1.1v.73h1.1Zm0,2.13h-1.13v.85h1.13Zm2.52-1.51a10.67,10.67,0,0,0,.74,3.72,12.63,12.63,0,0,0,.59-3.72Z"/><path class="cls-2" d="M151.78,278.41c-.38.75-.83,1.47-1.28,2.2l.62.22a.13.13,0,0,1,0,.18c-.22.21-.33.27-.33.35v4.11l0,2.23a.24.24,0,0,1-.11.18,3.12,3.12,0,0,1-.79.37.12.12,0,0,1-.15-.11l.06-2.43v-4.12c-.58.74-1.23,1.52-1.82,2.19l-.16-.11,1.08-1.91.87-1.82a11.3,11.3,0,0,0,1-2.76l0-.08a14.83,14.83,0,0,1,1.43.84.15.15,0,0,1,0,.23C152.11,278.27,151.94,278.32,151.78,278.41Zm7.26,8.67-.07,0h-7a7.34,7.34,0,0,0-.78.08l-.22-.43H155a33.37,33.37,0,0,0,1-6,8.88,8.88,0,0,1,1.54.58.16.16,0,0,1,.05.19c-.14.15-.36.13-.48.3a35.13,35.13,0,0,1-1.69,4.91h1.63l.6-.85a.21.21,0,0,1,.27,0,12.66,12.66,0,0,1,1.07,1A.13.13,0,0,1,159,287.08Zm-.4-6.5h-6.17a4,4,0,0,0-.84.12l-.31-.5h5.5l.68-.83a.21.21,0,0,1,.25,0,10.77,10.77,0,0,1,1.07,1,.14.14,0,0,1,0,.18C158.8,280.58,158.75,280.58,158.64,280.58Zm-5.09,5.31a.31.31,0,0,1-.27-.18,10.35,10.35,0,0,0-1-4.18l.21-.12.57.6c.68.92,1.54,1.84,1.34,3.08A.85.85,0,0,1,153.55,285.89Zm1.55-6a.33.33,0,0,1-.27-.08,10.3,10.3,0,0,1-.49-1.14,5.5,5.5,0,0,0-.88-1.24l.11-.15a5.38,5.38,0,0,1,2,1.11,1,1,0,0,1,.07.89A1,1,0,0,1,155.1,279.88Z"/><path class="cls-2" d="M181,283.85a2.65,2.65,0,0,0-.35.25l-.07.09v2.35c0,.38,0,.7,0,1.08a1.69,1.69,0,0,1-.95.46.13.13,0,0,1-.13-.12v-1.1H175v.9c0,.08-.05.11-.11.16a2.85,2.85,0,0,1-.8.32.13.13,0,0,1-.13-.11l0-1.5v-2.09l-.08,0a17.57,17.57,0,0,1-2.55.81l-.13-.2a27.42,27.42,0,0,0,2.76-1.39l0-.7.75.26a12.77,12.77,0,0,0,4-4.26h-3.18c-.27.37-.56.67-.85,1a3.52,3.52,0,0,1,1.56,1,.93.93,0,0,1-.08.78c-.07.13-.21.31-.33.31-.4,0-.4-.39-.52-.7a2.75,2.75,0,0,0-.82-1.2,13.32,13.32,0,0,1-2.44,2l-.13-.14a15.41,15.41,0,0,0,3.51-5.13,8,8,0,0,1,1.28.62.12.12,0,0,1,0,.17c-.16.13-.39.15-.54.35l-.35.5-.05.05h2.85l.64-.61c0-.05.12,0,.17,0a8.07,8.07,0,0,1,1.05.9s.06.16,0,.2-.39.14-.59.27a11.08,11.08,0,0,0-1.11,1.36,14.09,14.09,0,0,1-2.84,2.67l3.54,0,.46-.53s.09-.06.16,0a10.93,10.93,0,0,1,1,.66C181.07,283.72,181,283.79,181,283.85Zm-1.44,0h-4.28L175,284v2.46h4.57Z"/><path class="cls-2" d="M193.8,288.05a7.39,7.39,0,0,0,1.26-4V282.1l-.06-1.05c.43.17.81.36,1.22.57h6a20.44,20.44,0,0,0-2.13-1.12c-.26.08-.52.21-.78.31a15.15,15.15,0,0,1-3,.71l-.06-.22a17.28,17.28,0,0,0,2.92-1.13l-.05,0a16.36,16.36,0,0,0-2.6-.71l.08-.26a29.77,29.77,0,0,1,3.29.59,5.61,5.61,0,0,0,1.1-.8l-5,0a5.27,5.27,0,0,0-.93.12l-.27-.46h4.47a2.77,2.77,0,0,0-.89-1.3l.11-.19a3.37,3.37,0,0,1,1.6.59.56.56,0,0,1,.07.44,1.12,1.12,0,0,1-.24.44l2.59,0,.52-.71a.23.23,0,0,1,.26,0c.46.36.63.52,1,.83a.2.2,0,0,1,0,.17l-.09.05h-2.3c.17.14.38.27.55.44a.12.12,0,0,1-.08.15A3,3,0,0,0,201,280a3.6,3.6,0,0,1,1.48.73.62.62,0,0,1,.09.69.23.23,0,0,1-.17.13l.54,0,.52-.67a.22.22,0,0,1,.28,0,7.56,7.56,0,0,1,.92.85.11.11,0,0,1-.09.17h-8.5a28.14,28.14,0,0,1-.17,2.88,5.87,5.87,0,0,1-1.9,3.35Zm5.68-.79v-1.65H197.9a3.6,3.6,0,0,0-.82.14l-.24-.49,2.65,0V284H197.7a14.93,14.93,0,0,1-1.63,1.65l-.12-.09a8.9,8.9,0,0,0,1.55-3.35c.4.18.8.32,1.17.53a.12.12,0,0,1,0,.19l-.3.14-.44.59h1.57c0-.69,0-1,0-1.6a8.83,8.83,0,0,1,1.34.41c.17.21-.31.28-.31.55v.64h1.74l.49-.64a.2.2,0,0,1,.25,0,9.27,9.27,0,0,1,.89.77c.05,0,.07.16,0,.19l-.07,0h-3.31v1.31H202l.56-.72a.23.23,0,0,1,.24,0l.95.9a.1.1,0,0,1-.08.17h-3.13v1.65h2.65l.53-.68a.21.21,0,0,1,.24,0l.9.84a.16.16,0,0,1,0,.15l-.07,0-8.12,0a4,4,0,0,0-.93.15l-.29-.5Z"/><path class="cls-2" d="M226.46,280.82a.2.2,0,0,1,.31,0c.32.3.64.66,1.13,1.2.11.12,0,.2-.08.2h-9.35a7.31,7.31,0,0,0-1.29.15l-.41-.52,8.83,0Z"/><path class="cls-2" d="M242.12,287.79c0,.07-.06.12-.16.17l-.81.29c-.05,0-.13,0-.13-.11l0-2.12v-3.87l-1.22,1.48-.23-.13a18.2,18.2,0,0,0,2.07-5.23l.19-1.2c.57.25.93.4,1.4.62a.11.11,0,0,1,0,.17c-.27.13-.42.22-.44.28a12,12,0,0,1-.95,2.43c.18.08.25.1.53.24s-.29.39-.29.45v4.81Zm8.74-.93-.52-.06a1.34,1.34,0,0,0-.76.28h-.05a15.66,15.66,0,0,1-1.89-2.88l-.11-.24,0,2c0,.64,0,1.18,0,1.79a.22.22,0,0,1-.14.18c-.21.06-.4.14-.78.24a.11.11,0,0,1-.11-.1v-3.67a10.5,10.5,0,0,1-3.79,3l-.13-.16a12.23,12.23,0,0,0,2.93-3.34h-.6a1.86,1.86,0,0,0-.6.11l-.23-.47h2.41v-1a5.37,5.37,0,0,0-.06-.72h-.07a10.18,10.18,0,0,1-2.68,1.11v2.42a.2.2,0,0,1-.12.21c-.31.12-.45.12-.72.23a.12.12,0,0,1-.11-.11l0-5.33,0-1.41c.48.15.87.18,1.27.29a.1.1,0,0,1,0,.16c-.17.17-.31.29-.31.34v2.86l.1,0a9.55,9.55,0,0,0,2.67-1.81,4.73,4.73,0,0,1-.87-1.29,16.61,16.61,0,0,1-1.59,1.75l-.18-.1a14.34,14.34,0,0,0,1.8-4.24c.55.26.88.43,1.34.66a.12.12,0,0,1,0,.2,1.54,1.54,0,0,0-.5.24l-.21.45h2.24l.63-.64c.05-.06.14-.05.23,0,.27.27.46.4.87.86a.1.1,0,0,1-.07.17h-.89a9.75,9.75,0,0,1-1.46,2,9,9,0,0,0,3.2.85l-.07.2a1.38,1.38,0,0,0-1.24.86A8.75,8.75,0,0,1,248,282a7.75,7.75,0,0,1-.81-.56c-.21.13-.42.29-.63.41l1.29.34c.08,0,.08.11,0,.18-.22.17-.32.23-.32.3v1h1l.71-.72a.2.2,0,0,1,.21,0c.15.13.5.47.91.88.06,0,0,.17,0,.17h-2.47a26.66,26.66,0,0,0,3.12,2.72Zm-4.84-8-.24.38a5.4,5.4,0,0,0,1.16,1.08,8,8,0,0,0,1.05-1.46Z"/><path class="cls-2" d="M265.42,287.61a.27.27,0,0,1-.13.2,2.72,2.72,0,0,1-.66.3c-.09,0-.2,0-.2-.08,0-.51,0-1,0-1.5v-3.82l-.13.14c-.49.48-1,1.07-1.53,1.53l-.16-.14a22.08,22.08,0,0,0,2.65-4.44l.17-.37a8.93,8.93,0,0,1,1.19.77c.13.17-.41.26-.46.32l-1,1.32.51.32c.2.1-.31.37-.31.43v3.35Zm-2.56-7.31a16.1,16.1,0,0,0,2.73-3.21c.39.3.68.54,1,.81,0,0,.05.14-.07.18s-.39.14-.59.23l-1.54,1.25c-.41.34-.87.63-1.29.92Zm5.05,5.94-1.36.55a.19.19,0,0,1-.35,0l-.4-1.05,2-.26c0-.56,0-1.13,0-1.66h-1a5.64,5.64,0,0,0-.7.08l-.22-.47h1.86v-1q0-.3,0-.63h-1a2.85,2.85,0,0,0-.66.11l-.35-.48h2.15v-1.74H267a2.32,2.32,0,0,0-.56.11l-.36-.48h1.75v-1.3a9.39,9.39,0,0,0,0-1.06c.46.16.72.27,1.17.44.15.06,0,.2-.15.35l-.06.08v1.48h.47l.42-.58a.17.17,0,0,1,.23,0,10.74,10.74,0,0,1,.72.8.11.11,0,0,1-.09.16h-1.73v1.73h.48l.45-.56a.14.14,0,0,1,.22,0c.33.34.42.44.69.74.06.1,0,.17-.06.18h-2.56l.93.33a.11.11,0,0,1,0,.18.81.81,0,0,0-.23.3v.81h.67l.44-.52s.15-.06.18,0l.72.75s0,.15-.06.15h-1.94v1.51c.73-.09,1.43-.22,2.13-.33l.05.22ZM273,280.5l1,.92a.2.2,0,0,1,0,.13l-.07.07h-1.45c0,.6,0,1.35,0,2v3.54c-.06.53-.54.66-1,.86a1.51,1.51,0,0,1-.5.2,1.4,1.4,0,0,0-.76-1.06,6.78,6.78,0,0,0-.72-.31l.06-.23a8.86,8.86,0,0,0,1.8.19.23.23,0,0,0,.1-.23v-4.94a3.3,3.3,0,0,0-.77.07,3.07,3.07,0,0,0-.2-.45h1.81a6.27,6.27,0,0,1,.55-.77Zm.62-1.48s0,.07,0,.09l-.1.05-2.18,0-.76.06-.21-.44H272a5.39,5.39,0,0,1,.51-.67l.12,0Z"/><path class="cls-2" d="M81.87,260.86a4.75,4.75,0,0,0,1.32,3.71c.6.57.27,1.48-.58,1.8a6.51,6.51,0,0,1-2.2.5,75.4,75.4,0,0,1-7.67-.17c-1.86-.18-2.4-1.11-2.41-3.12,0-5.36,0-10.72,0-16.07,0-.49.31-1.4.49-1.4a9.14,9.14,0,0,1,2.28.42c.07,0,.1.35.09.52-.1,1.43-.23,2.85-.33,4.28-.06.82.37,1.15,1.11,1.15a27.2,27.2,0,0,0,3.5-.06c.59-.08,1.11-.67,1.67-1s1.2-.94,1.45-.78a11.74,11.74,0,0,1,1.93,1.93c-.32.23-.62.65-.94.66-2.15,0-4.3,0-6.46,0s-2.27,0-2.27,2.46c0,2.26,0,4.51,0,6.77,0,1.5.25,1.82,1.61,1.86,1.8.05,3.61.08,5.4-.05a2.19,2.19,0,0,0,1.38-1.12A10.41,10.41,0,0,0,81.87,260.86Z"/><path class="cls-2" d="M59.28,253.76l-4.11,3.55L55,257.1c1-1.57,2.17-3.07,3.05-4.73a45,45,0,0,0,2.37-5.46c.61-1.62.62-1.69,2.18-1.11.35.13.67.31,1.09.51-.65,1.17-1.23,2.23-1.81,3.29-.31.56-.5,1.1.14,1.58a.83.83,0,0,1,.3.59c-.1,3.08-.25,6.16-.34,9.24-.05,1.57,0,3.14,0,4.71,0,1,0,1.94-1.25,2-.94,0-1.28-.48-1.29-1.93,0-3.43,0-6.85,0-10.28C59.43,255,59.35,254.51,59.28,253.76Z"/><path class="cls-2" d="M70.43,239.82c.41,0,.82-.14,1.23-.15a13.89,13.89,0,0,1,2,0c1,.1,1.46-.41,1.55-1.42,0-.08,0-.16,0-.24.37-2.35,1-2.61,2.94-1.19a.73.73,0,0,1,0,.33c-.39.73-.95,1.49-.24,2.29.49.57,2.42.17,3-.51,1-1.25,1.36-1.34,2-.4a7.35,7.35,0,0,1,.59,1.49,6.89,6.89,0,0,1-1.45.38c-1.2.06-2.41.06-3.62,0-.89,0-1.32.37-1.44,1.28-.08.68-.23,1.35-.37,2-.19.92-.7,1.44-1.62,1.26s-.82-1-.69-1.7c.52-2.95.85-2.85-2.26-2.84-.55,0-1.11-.09-1.66-.13Z"/><path class="cls-2" d="M54.7,239.83a5.94,5.94,0,0,1,1-.16c1.13,0,2.27,0,3.4,0s1.31-.45,1.13-1.5c-.36-2.17,0-2.49,2-1.92.57.17.59.42.57,1,0,.76.09,1.89.55,2.2a1.72,1.72,0,0,0,2.4-.6c1-1.35,1.75-1.19,2.45.41.32.71.12,1.1-.61,1.13-1,0-2,0-3,0-1.28,0-1.38.15-1.21,1.48,0,.16.06.31.07.47a1.31,1.31,0,0,1-1.23,1.56c-.77.14-1.13-.37-1.19-1.1-.26-2.87-.78-2.37-2.94-2.41-.8,0-1.59,0-2.38,0a6.78,6.78,0,0,1-1-.19Z"/><path class="cls-2" d="M294.67,253.73a13.06,13.06,0,0,0-1.89,2c-.65,1.08-1.26,1.36-2.26,0-.89,4.28-1.56,8.43-5.2,10.91a2.74,2.74,0,0,1,.15-.51,25.35,25.35,0,0,0,2.75-10.72c.25-5.79.32-11.58.47-17.37,0-.54.08-1.08.14-1.82a10.86,10.86,0,0,1,1.27.62c1.25.9,2.64.75,4,.68a1.75,1.75,0,0,0,.82-.35,2.33,2.33,0,0,1,3.3.82.94.94,0,0,1-.08.84,2.66,2.66,0,0,0-.67,2.32q0,11.48,0,23c0,1.89-.72,3-2.33,3.32a1.6,1.6,0,0,1-1.33-.46c-.76-.84-1.39-1.81-2.11-2.78.48.05,1.08.13,1.68.16.84,0,1.55-.2,1.56-1.26,0-2.82,0-5.64,0-8.46A4.83,4.83,0,0,0,294.67,253.73Zm-3.15-8.3-.49.19c-.16,2.55-.34,5.09-.43,7.63,0,.2.67.67.91.59a16.81,16.81,0,0,0,2.88-1.29c.59-.32.86-3.16.41-3.7-.11-.13-.34-.13-.48-.24a10.41,10.41,0,0,1-1.56-1.31A17.31,17.31,0,0,1,291.52,245.43Zm3.45-3.31c0-.8,0-1.6,0-2.41s-.35-1.11-1.08-1.15c-2.67-.17-2.69-.17-2.69,2.69v.24c0,2.23,0,2.22,1.87,3.08a8.78,8.78,0,0,1,.79.44c.89.5,1.08.39,1.11-.73C295,243.56,295,242.84,295,242.12Z"/><path class="cls-2" d="M276.68,243.72c.56,0,1.12-.1,1.68-.11,1.78,0,1.79,0,1.8-2,0-1.13,0-2.26,0-3.38,0-.38.33-1,.49-1a8,8,0,0,1,2.16.43,6,6,0,0,1-.07,1c0,1.4-.12,2.82,0,4.21.06.84.77.8,1.31.53a4,4,0,0,0,1-.91c.56-.63,1.05-.56,1.43.17A11,11,0,0,1,287,244l-1.23.38h-.11c-3.29,0-2.92-.44-2.94,3.27,0,.89,0,1.77,0,2.66,0,.67.28.92.95.71,1.57-.49,2.37.38,2.25,2.09-.13,2-.07,3.94,0,5.91a3,3,0,0,0,.53,1.3c.47.81.28,1.21-.59,1.22-1.5,0-3,0-4.49,0a4.51,4.51,0,0,0-1.86.59c-1.09.6-1.76.28-1.76-1,0-3.1,0-6.2,0-9.3,0-1,.31-1.22,1.17-.85,1.05.45,1.27.27,1.29-.93,0-1.45,0-2.9,0-4.35,0-1-.41-1.37-1.29-1.32-.72,0-1.45,0-2.17,0Zm6.83,12.76h0c0-.68,0-1.37,0-2.05,0-2.39,0-2.39-2.24-2.32h-.11c-.86-.06-1.22.36-1.2,1.29,0,1.64,0,3.29,0,4.93,0,2.53.2,2.7,2.58,2.45a.92.92,0,0,0,1-1Z"/><path class="cls-2" d="M275.67,255.5c-1.41,3.77-2.72,7.3-4.15,11.1-.63-1-1.19-1.74-1.66-2.57a1.07,1.07,0,0,1,.15-.87c1.7-2.5,3.44-5,5.17-7.45C275.21,255.66,275.31,255.65,275.67,255.5Z"/><path class="cls-2" d="M270.25,244.72a5.62,5.62,0,0,1,4.47,2.17,2.14,2.14,0,0,1,.07,2.76c-.64.79-1.45.79-2-.1C272,248,271.15,246.4,270.25,244.72Z"/><path class="cls-2" d="M272,236.61a4.49,4.49,0,0,1,4.65,2,2.83,2.83,0,0,1,.23,1.71,1.71,1.71,0,0,1-1,1.1,1.56,1.56,0,0,1-1.27-.66C273.7,239.46,272.9,238,272,236.61Z"/><path class="cls-2" d="M183.6,236.2c-.26.59-.36.8-.43,1-.59,1.79-.11,2.54,1.58,2.59,1.33,0,2.62.07,3.48-1.41a.87.87,0,0,1,.89-.11,13.82,13.82,0,0,1,1.09,1.74c-.33.17-.65.49-1,.5-1.63.06-3.27.06-4.91,0-.9,0-1.41.32-1.29,1.39.08.74-.37,1.69.55,2.13a2.74,2.74,0,0,0,2.9-.8c.31-.35,1-.84,1.14-.73a9.85,9.85,0,0,1,1.27,1.74c-.26.21-.5.58-.77.6-1.16.06-2.33,0-3.49,0-1.51,0-1.61.11-1.61,1.65s.09,1.69,1.55,1.71c.62,0,1.24,0,1.86,0a2.3,2.3,0,0,0,2.17-1.11c.22-.3.91-.62,1-.52a10.75,10.75,0,0,1,1.23,1.91,1.52,1.52,0,0,1-.55.42,4,4,0,0,1-1,.05c-4.43,0-8.87,0-13.31,0a20,20,0,0,1-4.07-.48c-.37-.08-.73-.78-.91-1.28-.28-.82-.37-1.72-.63-2.55a5.19,5.19,0,0,0-.69-1.08l-.3.11c0,.53-.12,1.06-.12,1.6,0,6.69,0,13.38,0,20.07,0,.48.12,1.07-.09,1.41a1.92,1.92,0,0,1-1.25,1c-.35,0-.77-.63-1-1.06-.14-.22,0-.63,0-.95q0-14.08,0-28.17c0-.58.22-1.63.43-1.67a6.35,6.35,0,0,1,2.22.29c.09,0,.14.52.13.78-.09,1.66-.24,3.32-.26,5,0,.31.43.73.75.92,1.69,1,3.11,2.25,3.07,4.71,0,.21.55.61.85.62,1.85.06,3.7,0,5.56,0,1,0,1-.82,1-1.61s.16-1.72-1-1.73-2.41,0-3.6,0a7.73,7.73,0,0,1-1.07-.19v-.38a6.44,6.44,0,0,1,1-.17c1.12,0,2.25,0,3.38,0s1.4-.44,1.31-1.52a4.33,4.33,0,0,1,0-.72c.06-1-.31-1.4-1.21-1.38-1.6,0-3.2,0-4.8,0a8.08,8.08,0,0,1-1.08-.17V240a7.57,7.57,0,0,1,1.06-.18c1.6,0,3.2,0,4.8,0,.86,0,1.31-.34,1.24-1.34a1.61,1.61,0,0,1,0-.49c.13-.71.15-1.95.43-2A7.28,7.28,0,0,1,183.6,236.2Z"/><path class="cls-2" d="M173,267c2.42-4.35,2.15-9.18,2.16-14,0-1.88,0-1.89,1.65-1.33a4.75,4.75,0,0,0,1.5.23c1.89,0,3.78,0,5.67,0a3.94,3.94,0,0,0,3-.82c.55-.5,2.65.62,2.8,1.42,0,.2-.11.43-.17.65a9.44,9.44,0,0,0-.61,2.19c-.07,3,0,6,0,9.07a3,3,0,0,1-2.56,3.2,1.12,1.12,0,0,1-.92-.35c-.66-1-1.24-2-1.89-3.05.36,0,.84.09,1.32.16,1.11.14,1.56-.27,1.62-1.49.09-2.15,0-2.24-1.95-2.24s-4.14,0-6.21,0a1.42,1.42,0,0,0-1.63,1.33,9,9,0,0,1-2.48,4.46,7.58,7.58,0,0,1-1,.77Zm8.89-7.08h3.59c.94,0,1.06-.63,1-1.44s.13-1.64-.93-1.65c-2.43,0-4.86-.06-7.29,0-1.36,0-.79,1.35-.93,2.14s.38.93.94.93Zm.28-7c-1.16,0-2.32,0-3.48,0-1,0-1.1.62-1.1,1.49s0,1.63,1.09,1.62q3.38,0,6.74,0c1.08,0,1.09-.75,1.1-1.61s-.1-1.53-1.09-1.5S183.21,252.91,182.13,252.91Z"/><path class="cls-2" d="M164.15,244.59a5.87,5.87,0,0,1,.62,5.93,2.43,2.43,0,0,1-1.24,1c-.77.25-1.37-.49-1.12-1.34C163,248.33,163.56,246.47,164.15,244.59Z"/><path class="cls-2" d="M135.49,239.7a11.21,11.21,0,0,1,1.15-.12c1.78,0,3.56,0,5.34,0,.9,0,1.34-.36,1.26-1.35a1,1,0,0,1,0-.24c.14-.71.17-2,.45-2a7.28,7.28,0,0,1,2.51.24c-.12.46-.15.65-.22.83-.7,1.83-.28,2.53,1.53,2.54.63,0,1.26,0,1.89,0a2.76,2.76,0,0,0,2.63-1.22c.21-.28,1-.46,1.12-.31a10.76,10.76,0,0,1,1,1.91,3.42,3.42,0,0,1-1,.35c-2,0-4,.05-6,0-1,0-1.42.32-1.42,1.46s.45,1.49,1.42,1.44c1.24-.08,2.44.11,3.62-.77.43-.31,1.57.31,2.29.7s.15,1,0,1.46a4,4,0,0,0-.16,1.3c0,1.61.06,3.23-.06,4.84a2.37,2.37,0,0,1-.88,1.44c-.53.41-1.09.21-1.55-.41a1.54,1.54,0,0,0-1-.52c-.81-.08-1.63,0-2.45,0s-1.17.42-1.18,1.32c0,1.62.14,1.85,1.64,1.78a18.64,18.64,0,0,0,2.11-.32l-.05-1.26a7.2,7.2,0,0,1,4.14,2.25.7.7,0,0,1,.36.66,4.09,4.09,0,0,0,1.15,3.26c-.25.26-.48.71-.74.74a27.27,27.27,0,0,1-3,0c-.79,0-1.16.36-1.14,1.23,0,1.29,0,2.58,0,3.87a2.75,2.75,0,0,1-2.49,3,1,1,0,0,1-.77-.29c-.36-.45-.57-1-.93-1.48a14.22,14.22,0,0,0-1.48-1.39c.88-.05,1.48-.12,2.08-.12s1.11-.31,1.1-1.14c0-4.3.42-3.61-3.12-3.65-2.86,0-5.72,0-8.58,0a7,7,0,0,1-1.19-.2v-.39a10.25,10.25,0,0,1,1.21-.15h10.36c.67,0,1.24,0,1.32-1,.17-2,1-2.44,2.81-1.38a1.57,1.57,0,0,1,0,.43c-.26.65-.6,1.52.15,1.78a2.94,2.94,0,0,0,2.25-.33c.61-.38.88-1.21-.14-1.76a3,3,0,0,1-1-1.07,1.86,1.86,0,0,0-2.2-.92c-4,.75-8,1.44-12,2.15a1.23,1.23,0,0,0-.43.1c-1.15.75-1.27-.13-1.46-1s.18-1.31,1-1.3c1.74,0,3.49-.05,5.23,0,1.16,0,1.36-.6,1.33-1.65,0-1.54-.12-1.71-1.37-1.71s-2.67-.24-3.86.94c-.78.78-1.66.14-1.67-1q0-3.81,0-7.62c0-1.1.32-1.33,1.25-.82,1.57.86,3.21.47,4.82.48.93,0,.79-.85.82-1.53s-.15-1.28-1-1.28c-1.86,0-3.71,0-5.57,0a10.39,10.39,0,0,1-1.23-.17ZM148,250.46v0h1.44c1,0,1-.79,1-1.53s.07-1.53-.92-1.55-1.85-.05-2.77,0a1.21,1.21,0,0,0-.85.56c-.6,1.46,0,2.5,1.49,2.52ZM141,247.34c-2,0-2.86,1-2.09,2.54a1.68,1.68,0,0,0,1.41.54c.94-.08,2.12.61,2.76-.52a1.61,1.61,0,0,0-1.41-2.56Zm7-.76c.34,0,.67,0,1,0,.82,0,1.32-.21,1.33-1.26S150,243.9,149,244a18.87,18.87,0,0,1-2,0c-.82,0-1.32.21-1.33,1.26s.42,1.45,1.34,1.38C147.39,246.56,147.72,246.58,148.05,246.58Zm-7-2.62c-.25,0-.51,0-.77,0-.9-.06-1.48.16-1.47,1.36s.6,1.31,1.43,1.28a17.42,17.42,0,0,1,1.77,0c.9,0,1.25-.39,1.24-1.36s-.37-1.32-1.2-1.27C141.72,244,141.39,244,141.05,244Z"/><path class="cls-2" d="M129.08,248.23l-2.16,3.08-.45-.39c.17-.36.32-.73.52-1.07a35.26,35.26,0,0,0,4.19-12.51c.22-1.41.51-1.65,1.79-1.17.54.21,1.06.49,1.46.68-.83,2.05-1.63,3.93-2.31,5.85a3.91,3.91,0,0,0,.12,1.64c0,.18.2.36.2.53-.11,5.58-.23,11.16-.33,16.74,0,1.41,0,2.82,0,4.23,0,1-.08,1.83-1.22,1.87-.93,0-1.27-.48-1.27-1.92,0-5.2,0-10.4,0-15.59,0-.56-.06-1.11-.09-1.66Z"/><path class="cls-2" d="M138,260.86a3.91,3.91,0,0,1,3.62,2.74,3,3,0,0,1-.4,2,1,1,0,0,1-1.78-.24C138.88,263.88,138.47,262.36,138,260.86Z"/><path class="cls-2" d="M99.79,257.46c1.83.65,3.49,3.57,3,5.45-.14.56-.83.94-1.27,1.4-.35-.49-.9-.92-1-1.47-.32-1.6-.28-1.59-1.61-.93-1.81.89-3.66,1.67-5.5,2.5a3.48,3.48,0,0,0-1.07.54c-.81.76-1.1.22-1.37-.57-.56-1.65-.43-1.73,1.1-2,3.15-.51,3,.51,3-3.48,0-.8,0-1.61,0-2.41,0-1.46-.79-2-2-1.31-1.53.85-1.9.6-1.9-1.3q0-4.91,0-9.79c0-1.38.17-1.48,1.33-1.05a3.57,3.57,0,0,0,.83.24c1.46.19,1.72-.07,1.73-1.71,0-1.05,0-2.1,0-3.15,0-1.33.28-1.55,1.46-1.23a9.4,9.4,0,0,1,1.14.41c-.07,1.42-.16,2.68-.18,3.94,0,1.74.51,2.08,2,1.59a2.23,2.23,0,0,1,1.66.17,1.88,1.88,0,0,1,.5,1.36c0,2.7,0,5.39,0,8.09a1.72,1.72,0,0,0,.12.58c.57,1.6.56,1.62-1,1.63h-.64c-3,0-2.63-.29-2.65,3,0,.72,0,1.45,0,2.17,0,.89.29,1.25,1.12,1.06,1.77-.4,2-.78,1.44-2.7C100,258.19,99.88,257.86,99.79,257.46Zm-.18-8.23c0-1.33,0-2.65,0-4,0-.81-.32-1.16-1-1.16s-1.08.31-1.07,1.13q0,3.92,0,7.83c0,.81.32,1.16,1,1.16s1.08-.3,1.07-1.13C99.6,251.8,99.61,250.51,99.61,249.23Zm-4.54,0c0-1.28,0-2.57,0-3.85,0-.76-.21-1.24-1-1.23s-.93.47-.92,1.17q0,3.85,0,7.71c0,.75.21,1.23,1,1.22s.93-.57.93-1.29C95.07,251.67,95.07,250.42,95.07,249.18Z"/><path class="cls-2" d="M103.94,261.08v-5.44c0-.61.06-1.11.84-1,1.77.22,3.54.41,5.32.54a27.24,27.24,0,0,0,3.13,0,1.83,1.83,0,0,0,1.12-.3c.64-.57,1.13-.4,1.75,0s.85,1,.78,2.06c-.19,2.85-.59,5.77.25,8.6.26.85-.19,1-.77,1h-8.09a2.77,2.77,0,0,0-2.49.82,1.47,1.47,0,0,1-1.38.21c-.24-.09-.43-.79-.44-1.21C103.91,264.63,103.94,262.85,103.94,261.08Zm2.42-.26c0,1.21,0,2.42,0,3.62,0,.95.28,1.41,1.18,1.4,1.87,0,3.73,0,5.6,0,.8,0,1.19-.32,1.19-1.26,0-2.46,0-4.91,0-7.36,0-.84-.27-1.27-1.07-1.27-1.93,0-3.87,0-5.81,0-.79,0-1.09.42-1.08,1.26C106.37,258.41,106.36,259.62,106.36,260.82Z"/><path class="cls-2" d="M110.71,239c-1,2-2,4.09-3.18,6.06a11.91,11.91,0,0,1-4.4,4.74c.79-1.37,1.6-2.71,2.36-4.09a28.24,28.24,0,0,0,3-8.48c.11-.62.2-1.45,1-1.14s1.68-.1,1.92,1.51a14.42,14.42,0,0,0,1.94,5,15.27,15.27,0,0,0,5.1,5.28,8.13,8.13,0,0,1,.7.6,11.14,11.14,0,0,1-1.85,1.58c-.3.16-.94-.13-1.26-.43-2.55-2.32-3.73-5.54-4.61-8.94L111,239Z"/><path class="cls-2" d="M106.13,249.53a9.62,9.62,0,0,1,1.06-.14,23.42,23.42,0,0,1,2.37,0,2.47,2.47,0,0,0,2.6-1.25c.15-.26,1-.41,1.12-.23a10.76,10.76,0,0,1,1,1.88c-.22.12-.43.32-.65.32-2.29,0-4.59,0-6.88,0a2.09,2.09,0,0,1-.62-.27Z"/><path class="cls-2" d="M262,267.42H234l0-.38a7.14,7.14,0,0,1,1.18-.21c3.31,0,6.61,0,9.92,0,1.06,0,1.48-.38,1.46-1.54-.06-2.5,0-5,0-7.49,0-1-.37-1.37-1.28-1.36-2.74,0-5.48,0-8.23,0a11.13,11.13,0,0,1-1.28-.14l0-.38a6.55,6.55,0,0,1,1.14-.22c2.75,0,5.49,0,8.23,0,1.06,0,1.52-.37,1.46-1.54s0-2.5,0-3.75c0-.87-.34-1.24-1.15-1.23-1.58,0-3.16,0-4.73,0a4.13,4.13,0,0,1-.85-.17l0-.33a6.58,6.58,0,0,1,1.14-.23c2.86,0,5.72,0,8.57,0a2.36,2.36,0,0,0,2.17-1c.35-.47,1.21-1.09,1.49-.94a10.32,10.32,0,0,1,2,1.9c-.24.25-.47.71-.73.72-1.35.07-2.7.07-4.05,0-.92,0-1.3.38-1.27,1.36,0,1.29,0,2.58,0,3.87,0,.84.27,1.29,1.11,1.28a46.57,46.57,0,0,0,4.73-.07,3.05,3.05,0,0,0,1.82-1.19c.7-.92,1.3-1,2-.15.45.55.81,1.19,1.21,1.79a10.49,10.49,0,0,1-1.89.36c-2.55.05-5.11.05-7.66,0-1,0-1.34.39-1.33,1.43,0,2.5.05,5,0,7.49,0,1.12.41,1.49,1.41,1.47,2-.05,4.06.05,6.08-.05a4.53,4.53,0,0,0,1.74-.82c.59-.34,1.28-1.16,1.7-1A3.2,3.2,0,0,1,262,267.42Z"/><path class="cls-2" d="M234.84,248.61c1.63-1.27,3.31-2.49,4.9-3.82a24.48,24.48,0,0,0,6.18-7.59c.22-.44.87-1,1.15-.95.8.26,1.79.39,2.09,1.56a3.64,3.64,0,0,0,.7,1.42,19.41,19.41,0,0,0,12,6.78c.18,0,.35.11.6.18a23.67,23.67,0,0,1-1.35,2.51,1.2,1.2,0,0,1-1.08.22,14.81,14.81,0,0,1-7.68-5,46.94,46.94,0,0,1-3.18-4.68c-.55-.86-1-.89-1.53-.09A29.18,29.18,0,0,1,237.1,248a21.51,21.51,0,0,1-2.18.87Z"/><path class="cls-2" d="M238.2,259.17a6.13,6.13,0,0,1,3.78,3.16,3.18,3.18,0,0,1,.28,1.27c0,.9-.11,1.8-1.13,1.9s-1.17-.77-1.4-1.65C239.33,262.29,238.74,260.79,238.2,259.17Z"/><path class="cls-2" d="M257.43,260.39l-4.18,4.83-.33-.12a3.4,3.4,0,0,1,.05-.72c.46-1.44,1-2.85,1.37-4.31.26-1,.66-1.17,1.44-.67C256.25,259.7,256.73,260,257.43,260.39Z"/><path class="cls-2" d="M218.59,261.79c.49,1,1,2,1.45,3.09s-.33,1.5-1,1.67a21.29,21.29,0,0,1-4.24.68,58.24,58.24,0,0,1-6.33-.24c-2.43-.19-3.27-1.23-3.29-3.81,0-1.53,0-3.06,0-4.59,0-.42.29-1.15.48-1.17a7.14,7.14,0,0,1,2.19.29,8.34,8.34,0,0,1-.06,1.15c0,1.56-.11,3.14,0,4.7,0,.36.79.93,1.22.94,2.41.09,4.84.06,7.25,0a2,2,0,0,0,2-1.77C218.36,262.38,218.51,262,218.59,261.79Z"/><path class="cls-2" d="M218.57,250.47c-1.22-1.3-1.18-2.22,0-3.51.86-1,1.57-2.06,2.35-3.11l-.31-.43-2.3,1a2.52,2.52,0,0,1-.35-3.25,25,25,0,0,0,1.58-3.59c.45-1.28.56-1.41,1.75-.86.34.16.65.36,1.2.67l-3.71,4.23a3,3,0,0,0,3.86-1.15c.33-.58.69-.71,1.21-.38l1.53,1L223.75,243c-.57.65-.39,1.08.29,1.51a8.68,8.68,0,0,1,2.05,1.66,3,3,0,0,1,.53,1.85,1.75,1.75,0,0,1-.93,1.16c-.17.08-.82-.47-1-.86-.34-.88-.75-1-1.47-.52C221.74,248.71,220.2,249.55,218.57,250.47Zm1-3.52.19.56c1.29-.31,2.59-.57,3.85-1,.15,0,.26-1,.08-1.28s-1-.78-1.19-.65C221.42,245.29,220.49,246.15,219.52,247Z"/><path class="cls-2" d="M201.39,243.37l-2.31,1.07a.16.16,0,0,1-.16,0,2.36,2.36,0,0,1-.41-2.91,27.55,27.55,0,0,0,1.32-2.87c.81-2.29.8-2.64,2.35-1.79.28.16.53.38.93.66l-3.64,4.14c1.94.53,2.87.2,3.92-1.19a1.07,1.07,0,0,1,.94-.34,12.52,12.52,0,0,1,1.81.93c-.63.75-1.14,1.36-1.67,2s-.62,1.05.23,1.54a6.79,6.79,0,0,1,2,1.76,2.69,2.69,0,0,1,.37,1.76,1.36,1.36,0,0,1-.89.9c-.26.07-.8-.29-.95-.6-.42-.9-.89-.77-1.54-.33-1.27.85-2.56,1.65-3.85,2.48a2.38,2.38,0,0,1-.17-3.7c.78-.92,1.4-2,2.09-3Zm-.91,3.61.27.5a25.92,25.92,0,0,0,3.42-.86c.77-.29.37-1.08,0-1.51s-.92-.62-1.1-.48C202.18,245.33,201.35,246.19,200.48,247Z"/><path class="cls-2" d="M216.18,254.44c-.42,0-1.1,0-1.78,0-1.53.1-3.05.21-4.57.38-.79.09-1.27-.1-1.28-1,0-1.24,0-2.49,0-3.74,0-.82.32-1.13,1.06-.77a4.56,4.56,0,0,0,4.74,0c.82-.51,1.94.62,1.86,1.64S216.18,253.06,216.18,254.44Zm-2.2-2.22c0-1.79-.15-2-1.59-2s-1.76.21-1.77,1.83c0,1.79.15,2,1.6,2S214,253.85,214,252.22Z"/><path class="cls-2" d="M221.78,259.15a5.41,5.41,0,0,1,4.33,3.55,3.66,3.66,0,0,1-.22,2.17,1.16,1.16,0,0,1-2.16-.14C223,262.87,222.41,261,221.78,259.15Z"/><path class="cls-2" d="M208.24,241c2.92-.42,2.92-.42,2.51-3.6,0-.27-.06-.54-.09-.82a2.82,2.82,0,0,1,2.65,2.71,7.41,7.41,0,0,0,.28,1.37,5.24,5.24,0,0,0,1.54-.74c.84-.82,1.15-.85,1.69.12.43.77.21,1.14-.59,1.13-1.73,0-3.46,0-5.19,0C210.1,241.08,209.17,241,208.24,241Z"/><path class="cls-2" d="M211.79,256.69c1.36-.19,3.47,1,3.85,2.27a3.54,3.54,0,0,1-.08,2,1.52,1.52,0,0,1-1.13.78,1.34,1.34,0,0,1-1.06-.7C212.78,259.6,212.31,258.13,211.79,256.69Z"/><path class="cls-2" d="M201.91,260.11a6.64,6.64,0,0,1-1.37,5.15,1.35,1.35,0,0,1-2.1.08,1.48,1.48,0,0,1,.32-2Z"/><path class="cls-2" d="M199.47,252.81a3.66,3.66,0,0,1,2.24,3.65c-.11.49-.72.85-1.09,1.27-.31-.42-.8-.81-.88-1.28C199.55,255.29,199.55,254.1,199.47,252.81Z"/><path class="cls-2" d="M218.72,252.51c1.44.47,2.64,2.41,2.28,3.68-.13.46-.7.77-1.08,1.15a6,6,0,0,1-.76-1.37,14.87,14.87,0,0,1-.1-1.79C219,253.65,218.85,253.13,218.72,252.51Z"/><path class="cls-2" d="M221.55,251.47c1.25,1,2.29,1.72,2.48,3.22.1.72,0,1.45-.85,1.56s-.92-.62-1-1.28C222,253.93,221.8,252.89,221.55,251.47Z"/><path class="cls-2" d="M202.17,251.77a3.62,3.62,0,0,1,2.51,2.66c.06.74-.13,1.43-.9,1.54s-.81-.6-.93-1.21C202.67,253.79,202.42,252.84,202.17,251.77Z"/><path class="cls-2" d="M223.93,250.82a3.37,3.37,0,0,1,2.73,2.72c0,.46-.39.93-.6,1.4-.33-.35-.78-.63-1-1C224.64,252.91,224.31,251.86,223.93,250.82Z"/><path class="cls-2" d="M204.63,250.6c1.53.42,2.53,1.34,2.52,2.39,0,.43-.36.86-.56,1.28-.33-.29-.79-.51-1-.88C205.24,252.55,205,251.63,204.63,250.6Z"/><path class="cls-2" d="M209.15,243.89a21.21,21.21,0,0,0,3.09,0,7.28,7.28,0,0,0,1.95-.9c.31-.15.74-.54.9-.44a5,5,0,0,1,1,1.12c-.28.22-.56.63-.85.64-2,.06-4,0-6,0Z"/><path class="cls-2" d="M209.38,246.79a17.06,17.06,0,0,0,2.86,0,7.5,7.5,0,0,0,1.94-.89c.32-.15.75-.55.9-.45a5.26,5.26,0,0,1,1,1.11c-.25.22-.48.63-.73.63-2,0-4,0-5.94,0Z"/><rect class="cls-2" x="279.97" y="282.15" width="18.33" height="0.89"/><rect class="cls-2" x="55.01" y="282.15" width="18.33" height="0.89"/></svg>