<svg id="圖層_1" data-name="圖層 1" xmlns="http://www.w3.org/2000/svg" viewBox="0 0 353 353"><defs><style>.cls-1{fill:#e6762a;}.cls-2{fill:#74bdb1;}.cls-3{fill:#c7e7f5;}.cls-4{fill:#fff;}.cls-5{fill:#eddcd1;}</style></defs><path class="cls-1" d="M92.8,273.71a8.91,8.91,0,0,1-1.36-.57,6.88,6.88,0,0,1-1.13-.69,1.72,1.72,0,0,1-.55-.64,1.42,1.42,0,0,1-.13-.75,3.46,3.46,0,0,1,.39-1.17l6.52-12.65.6.2a8.61,8.61,0,0,1,1.37.57,7.65,7.65,0,0,1,1.13.69,1.8,1.8,0,0,1,.55.64,1.44,1.44,0,0,1,.13.76,3.35,3.35,0,0,1-.39,1.16l-6.52,12.65ZM101.48,256a3,3,0,0,1-1.36-.37A2.62,2.62,0,0,1,98.71,254a2.53,2.53,0,0,1,.19-2,2.61,2.61,0,0,1,1.51-1.32,2.34,2.34,0,0,1,.74-.12,3,3,0,0,1,1.36.37,2.62,2.62,0,0,1,1.42,1.57,2.53,2.53,0,0,1-.2,2,2.5,2.5,0,0,1-1.51,1.31A2.35,2.35,0,0,1,101.48,256Z"/><path class="cls-1" d="M126.08,286.84h-.46a8.29,8.29,0,0,1-2.05-.44c-1.12-.38-2.45-1-2.47-2l0-1.72c0-.7,0-1.47.06-2.29s.07-1.68.14-2.55.16-1.7.28-2.49l-1.23-.43c-.43.74-.9,1.49-1.41,2.26s-1,1.53-1.55,2.26-1,1.4-1.43,2-.68.95-.92,1.3a3.43,3.43,0,0,1-1,.12,6.34,6.34,0,0,1-2-.37,6.78,6.78,0,0,1-2.1-1.11,1.86,1.86,0,0,1-.76-1.16,19.7,19.7,0,0,1,0-2.79c.08-1.28.19-2.7.35-4.22s.35-3.07.57-4.63c.18-1.38.38-2.63.58-3.73a4.31,4.31,0,0,1,1-.22h.33a4,4,0,0,1,1.29.22,3,3,0,0,1,1.47,1,2,2,0,0,1,.21,1.63c-.37,1.83-.66,3.33-.89,4.52,0,0-.8,4.26-.87,4.66s-.13.75-.17,1l-.07.54,1.18.39.27-.47c.19-.34.48-.82.89-1.45s.88-1.36,1.41-2.18l1.71-2.67,1.66-2.6a8,8,0,0,1,1-.07h.18a5.49,5.49,0,0,1,1.54.32,4.81,4.81,0,0,1,1.7.94,1.3,1.3,0,0,1,.49,1q-.1,1.62-.21,3.18c-.07,1-.14,2-.21,2.88l-.19,2.35c0,.67-.11,1.19-.16,1.57l-.08.54,1.24.43.26-.51c.86-1.69,1.73-3.44,2.62-5.27s1.67-3.48,2.51-5.28a4.46,4.46,0,0,1,.63-.05h.35a5.31,5.31,0,0,1,1.27.27,3.15,3.15,0,0,1,1.51,1c.1.13.4.51.08,1.44a13.14,13.14,0,0,1-.69,1.5c-.36.68-.79,1.45-1.28,2.29s-1,1.74-1.6,2.66-1.16,1.81-1.72,2.66-1.07,1.62-1.54,2.3-.74,1-1,1.37A3.12,3.12,0,0,1,126.08,286.84Z"/><path class="cls-1" d="M146,291.62a18.36,18.36,0,0,1-3.49-.38,14.43,14.43,0,0,1-3.19-1,7.51,7.51,0,0,1-2.2-1.45,4.35,4.35,0,0,1-1.14-1.87,4.67,4.67,0,0,1-.06-2.36,4.26,4.26,0,0,1,1.9-3.05,6.22,6.22,0,0,1,3.2-.71c.4,0,.81,0,1.25.06l5.36.48.16-.83a2.22,2.22,0,0,0-.86-2.32,6.76,6.76,0,0,0-2.8-1.08,13.08,13.08,0,0,0-2.56-.26h-.28a15.93,15.93,0,0,0-2.16.19,2.12,2.12,0,0,1-.23-.57,2.59,2.59,0,0,1,0-1.14,1.67,1.67,0,0,1,.51-1,2.83,2.83,0,0,1,1.27-.53,8.92,8.92,0,0,1,1.45-.11l.92,0a21.77,21.77,0,0,1,2.61.34,14,14,0,0,1,3.28,1,7.38,7.38,0,0,1,2.27,1.58,4.91,4.91,0,0,1,1.17,2.1,6,6,0,0,1,0,2.72l-1.59,8a1.58,1.58,0,0,1-.57,1,4.7,4.7,0,0,1-1.25.68A8.75,8.75,0,0,1,146,291.62Zm-3-8a4,4,0,0,0-1.24.18,1.85,1.85,0,0,0-1.3,1.45,2.14,2.14,0,0,0,.46,1.82,3.71,3.71,0,0,0,2.17,1,8.11,8.11,0,0,0,1.47.15h.2a3.49,3.49,0,0,0,1.19-.17l.36-.13.78-3.92-3.33-.38A6.76,6.76,0,0,0,143,283.63Z"/><path class="cls-1" d="M171.71,294.55a8.77,8.77,0,0,1-.88,0,6.82,6.82,0,0,1-1.31-.2,1.69,1.69,0,0,1-.76-.37,1.43,1.43,0,0,1-.41-.65,3.2,3.2,0,0,1-.09-1.22l.65-8.55a2.63,2.63,0,0,0-.71-2.22,3.17,3.17,0,0,0-2.09-.84,3.85,3.85,0,0,0-.48,0,6.24,6.24,0,0,0-1.13.1,4.4,4.4,0,0,0-1.48.53l-.29.18-.95,12.38-.58.05-.65,0c-.29,0-.58,0-.87,0a6.58,6.58,0,0,1-1.31-.2,1.85,1.85,0,0,1-.77-.37,1.51,1.51,0,0,1-.41-.65,3.41,3.41,0,0,1-.09-1.22l.83-10.87a2.14,2.14,0,0,1,.4-1.2,4,4,0,0,1,1-.88,9.71,9.71,0,0,1,3-1.1,13.52,13.52,0,0,1,2.7-.26c.42,0,.86,0,1.3,0a9.21,9.21,0,0,1,5.76,2.1,5.38,5.38,0,0,1,1.62,4.61l-.82,10.81-.58,0Z"/><path class="cls-1" d="M185.32,294.66a6.51,6.51,0,0,1-4.06-1.13c-1-.8-1.57-2.19-1.65-4.16l-.58-15,.59-.13a8.35,8.35,0,0,1,1.46-.17h.31a3.62,3.62,0,0,1,1.84.39c.5.28.63,1.13.66,1.79l.11,3,5-.2c.08.16.15.34.23.54a3.71,3.71,0,0,1,.21,1.11,2,2,0,0,1-.32,1.38,1.39,1.39,0,0,1-1,.41l-4,.15.24,6.14a2.12,2.12,0,0,0,1,1.86,3.39,3.39,0,0,0,1.84.44h.24a8.64,8.64,0,0,0,1.22-.15,5.65,5.65,0,0,0,.65-.15,3.26,3.26,0,0,1,.24.4,2.2,2.2,0,0,1,.21.89,2.14,2.14,0,0,1-.73,1.77c-.38.34-1.24.77-3.2.84Z"/><path class="cls-1" d="M205.09,292.24a1.67,1.67,0,0,1-.76-.16,1.38,1.38,0,0,1-.57-.51,3.14,3.14,0,0,1-.42-1.16l-2.92-14.75a6.65,6.65,0,0,1,0-3,5.25,5.25,0,0,1,1.13-2.2,6.44,6.44,0,0,1,2.06-1.57,11.28,11.28,0,0,1,2.84-.94,12.26,12.26,0,0,1,2.34-.27,4.67,4.67,0,0,1,1.35.17,1.89,1.89,0,0,1,1.27,1.62,2,2,0,0,1,0,1,2.38,2.38,0,0,1-.19.5H210a10.9,10.9,0,0,0-1.82.23,5.27,5.27,0,0,0-2.61,1.15,2.59,2.59,0,0,0-.7,2.59l.36,1.79,6.08-1.21c.1.15.2.31.31.5a3.58,3.58,0,0,1,.38,1.06,2,2,0,0,1-.1,1.41,1.38,1.38,0,0,1-1,.56l-4.75.94,2.27,11.43-.55.2a10.51,10.51,0,0,1-1.47.4,7.5,7.5,0,0,1-1.32.16Z"/><path class="cls-1" d="M224.47,287.35a7.24,7.24,0,0,1-2.23-.34,5.4,5.4,0,0,1-2.24-1.44,7.79,7.79,0,0,1-1.6-2.83l-3.2-9.32a5.56,5.56,0,0,1,.51-.27,12.19,12.19,0,0,1,1.41-.6,8.35,8.35,0,0,1,1.28-.33l.36,0a1.53,1.53,0,0,1,.49.07,1.43,1.43,0,0,1,.63.43,3.42,3.42,0,0,1,.57,1.09l2.54,7.39a3.31,3.31,0,0,0,1.75,2.17,3,3,0,0,0,1.14.21,4.74,4.74,0,0,0,1.53-.28,5.92,5.92,0,0,0,1.4-.66,5.13,5.13,0,0,0,.77-.62l.29-.29-4.09-11.92.51-.27a11.25,11.25,0,0,1,1.41-.59,8.46,8.46,0,0,1,1.28-.34l.36,0a1.87,1.87,0,0,1,.49.07,1.45,1.45,0,0,1,.63.44,3.25,3.25,0,0,1,.57,1.08l3.59,10.45a2.3,2.3,0,0,1-.44,2.43,9.24,9.24,0,0,1-2.32,2,15.73,15.73,0,0,1-3.35,1.58,13.74,13.74,0,0,1-3.39.72Z"/><path class="cls-1" d="M243.16,280.16H243a1.5,1.5,0,0,1-.7-.33,3.31,3.31,0,0,1-.73-1l-5.16-9.6a2.2,2.2,0,0,1-.31-1.23,3.68,3.68,0,0,1,.41-1.3,9.5,9.5,0,0,1,1.94-2.54,13.91,13.91,0,0,1,3.25-2.34,10.5,10.5,0,0,1,4.86-1.44,6.09,6.09,0,0,1,1.13.1,5.44,5.44,0,0,1,3.85,3l5.13,9.55c-.12.1-.27.21-.47.35a10.89,10.89,0,0,1-1.29.81,6.87,6.87,0,0,1-1.21.54,2.09,2.09,0,0,1-.63.11h-.21a1.46,1.46,0,0,1-.7-.33,3.5,3.5,0,0,1-.74-1L247.32,266a2.65,2.65,0,0,0-1.79-1.49,3.17,3.17,0,0,0-.53-.05,3.61,3.61,0,0,0-1.69.47,6.63,6.63,0,0,0-1.31.93,4.41,4.41,0,0,0-1,1.25l-.15.31,5.87,10.94c-.13.11-.29.22-.46.35a11.92,11.92,0,0,1-1.3.81,6.87,6.87,0,0,1-1.21.54A1.86,1.86,0,0,1,243.16,280.16Z"/><path class="cls-1" d="M85.14,258.3a2,2,0,0,1-1.07-.31c-15-9.51-16.14-19.16-16.18-19.57a2,2,0,0,1,4-.41c0,.17,1.22,8.3,14.35,16.61a2,2,0,0,1-1.06,3.68Z"/><path class="cls-1" d="M263.84,258.3a2,2,0,0,1-1.06-3.68c13.18-8.34,14.35-16.52,14.36-16.6a2,2,0,0,1,2.17-1.78,2,2,0,0,1,1.79,2.18c0,.41-1.17,10.06-16.19,19.57A2,2,0,0,1,263.84,258.3Z"/><path class="cls-2" d="M177.45,264.81c-35.38,0-63.67-16.36-81.17-30.08a23.92,23.92,0,0,1-1.68-36.22,50.32,50.32,0,0,0,0-73.21,23.91,23.91,0,0,1,1.68-36.21C113.78,75.36,142.07,59,177.45,59s63,16.36,80,30.07a23.91,23.91,0,0,1,1.39,36,50.64,50.64,0,0,0,0,73.69,23.91,23.91,0,0,1-1.39,36C240.46,248.46,212.82,264.81,177.45,264.81Z"/><path class="cls-3" d="M177.45,265.47c-35.57,0-64-16.43-81.58-30.22A24.58,24.58,0,0,1,94.15,198a49.66,49.66,0,0,0,0-72.24,24.59,24.59,0,0,1,1.72-37.23c17.59-13.78,46-30.22,81.58-30.22s63.34,16.43,80.39,30.22a24.57,24.57,0,0,1,1.42,37,50,50,0,0,0,0,72.73,24.58,24.58,0,0,1-1.42,37C240.79,249,213,265.47,177.45,265.47Zm0-205.8c-35.19,0-63.34,16.28-80.76,29.94a23.24,23.24,0,0,0-1.63,35.21,51,51,0,0,1,0,74.17,23.25,23.25,0,0,0,1.63,35.22c17.42,13.66,45.57,29.94,80.76,29.94s62.67-16.28,79.55-29.93a23.22,23.22,0,0,0,1.35-35,51.33,51.33,0,0,1,0-74.66,23.23,23.23,0,0,0-1.35-35C240.13,75.94,212.62,59.67,177.45,59.67Z"/><path class="cls-4" d="M98.83,203a17.76,17.76,0,0,0,1.26,26.89c15.85,12.43,43.18,28.76,77.36,28.76s60.74-16.27,76.09-28.69a17.75,17.75,0,0,0,1-26.71h0a56.82,56.82,0,0,1,0-82.67h0a17.73,17.73,0,0,0-1-26.7c-15.35-12.42-42-28.7-76.09-28.7s-61.51,16.34-77.36,28.77a17.75,17.75,0,0,0-1.26,26.88h0a56.47,56.47,0,0,1,0,82.17Z"/><path class="cls-5" d="M177.45,260c-34,0-61.28-15.8-78.18-29.05A19.07,19.07,0,0,1,97.92,202h0a55.16,55.16,0,0,0,0-80.25,19.07,19.07,0,0,1,1.35-28.89c16.9-13.25,44.18-29,78.18-29s60.57,15.77,76.93,29a19.06,19.06,0,0,1,1.11,28.7,55.48,55.48,0,0,0,0,80.73A19.07,19.07,0,0,1,254.38,231C238,244.21,211.4,260,177.45,260ZM99.74,204a16.43,16.43,0,0,0,1.16,24.87c16.58,13,43.31,28.49,76.55,28.49s59.24-15.45,75.26-28.41a16.42,16.42,0,0,0,1-24.71,58.14,58.14,0,0,1,0-84.59,16.42,16.42,0,0,0-1-24.71c-16-13-42.09-28.4-75.26-28.4S117.48,82,100.91,95a16.43,16.43,0,0,0-1.17,24.87,57.8,57.8,0,0,1,0,84.11Z"/><path class="cls-1" d="M203.59,113.2a2.27,2.27,0,0,1-1.52-.59c-11-10.06-22.66-13.18-34.75-9.25A41.51,41.51,0,0,0,152,112.52a2.25,2.25,0,0,1-3.23-3.14,45.36,45.36,0,0,1,16.95-10.25c9.5-3.13,24-3.91,39.37,10.16a2.25,2.25,0,0,1-1.53,3.91Z"/><path class="cls-1" d="M167.41,113.2a2.29,2.29,0,0,1-1.56-.62c-5.38-5.15-4.51-17.55-4.39-19A2.25,2.25,0,1,1,166,94h0c-.26,3.2-.24,12.2,3,15.31a2.25,2.25,0,0,1,.07,3.18A2.21,2.21,0,0,1,167.41,113.2Z"/><path class="cls-1" d="M186.6,113.2a2.25,2.25,0,0,1-1.56-3.88c3.26-3.11,3.28-12.11,3-15.31a2.25,2.25,0,1,1,4.49-.38c.11,1.4,1,13.8-4.39,19A2.29,2.29,0,0,1,186.6,113.2Z"/><path class="cls-1" d="M197.36,134.13a2.44,2.44,0,0,1-.66-.09c-21.75-6.62-36.32-.18-36.47-.11a2.25,2.25,0,0,1-2-.09c-7.09-4-5.34-12.15-3.43-15.88a2.25,2.25,0,0,1,.86-.92c21.13-12.43,44.64-.57,45.63-.06a2.29,2.29,0,0,1,.81.7,10.61,10.61,0,0,1,2.08,8.39c-1,4.8-5.39,7.61-5.58,7.72A2.22,2.22,0,0,1,197.36,134.13Zm-20.11-7.62a70.56,70.56,0,0,1,19.66,2.89,8,8,0,0,0,2.81-4.25,5.93,5.93,0,0,0-1-4.4c-3.35-1.56-22.94-9.86-40.17-.18-.67,1.61-2.17,6.17,1.05,8.78A51.65,51.65,0,0,1,177.25,126.51Z"/><path class="cls-1" d="M195.6,160a2.26,2.26,0,0,1-.67-4.41c6.15-1.91,8.39-10.28,9.09-14.05-18.07-4.88-31.17-4.31-39.08-2.92a43.45,43.45,0,0,0-12.06,3.75c1.86,9.71,8.93,12.65,9.25,12.78a2.25,2.25,0,0,1-1.64,4.2c-.43-.17-10.58-4.24-12.31-17.89a2.25,2.25,0,0,1,1-2.15c.78-.52,19.4-12.62,58-1.57a2.26,2.26,0,0,1,1.63,2.38c-.07.67-1.71,16.41-12.53,19.78A2.27,2.27,0,0,1,195.6,160Z"/><path class="cls-1" d="M177.8,149.81a2.26,2.26,0,0,1-2.26-2.25V113.68a2.26,2.26,0,0,1,4.51,0v33.88A2.25,2.25,0,0,1,177.8,149.81Z"/><path class="cls-1" d="M178.71,152.35a52,52,0,0,1-15.62-2.67,2.25,2.25,0,0,1,1.5-4.25c.23.08,15.29,5.28,24.31.17a2.25,2.25,0,1,1,2.22,3.92A25.28,25.28,0,0,1,178.71,152.35Z"/><path class="cls-1" d="M193.5,154.17a2.26,2.26,0,0,1-1.83-.94l-6.43-9a2.26,2.26,0,1,1,3.67-2.63l6.42,9a2.27,2.27,0,0,1-.52,3.15A2.29,2.29,0,0,1,193.5,154.17Z"/><path class="cls-1" d="M192.2,125.78a2.27,2.27,0,0,1-1.07-.27c-11.58-6.27-26.74-.27-26.89-.21a2.26,2.26,0,0,1-1.7-4.18c.7-.28,17.26-6.87,30.73.43a2.25,2.25,0,0,1-1.07,4.23Z"/><path class="cls-1" d="M204.68,183.11a2.26,2.26,0,0,1-1.53-.6c-11-10.06-22.66-13.17-34.75-9.24a41.62,41.62,0,0,0-15.29,9.16,2.26,2.26,0,1,1-3.23-3.15,45.51,45.51,0,0,1,17-10.24c9.5-3.13,24-3.91,39.37,10.15a2.26,2.26,0,0,1-1.52,3.92Z"/><path class="cls-1" d="M205.47,200.12a2.27,2.27,0,0,1-1.52-.59c-11-10.06-22.66-13.18-34.76-9.25a41.62,41.62,0,0,0-15.29,9.16,2.25,2.25,0,0,1-3.23-3.14,45.45,45.45,0,0,1,17-10.25c9.49-3.13,24-3.91,39.36,10.16a2.25,2.25,0,0,1-1.52,3.91Z"/><path class="cls-1" d="M168.49,183.11a2.25,2.25,0,0,1-1.56-.63c-5.38-5.14-4.5-17.54-4.39-18.94a2.27,2.27,0,0,1,2.44-2.06,2.24,2.24,0,0,1,2.05,2.43c-.26,3.21-.24,12.21,3,15.32a2.25,2.25,0,0,1-1.56,3.88Z"/><path class="cls-1" d="M187.68,183.11a2.25,2.25,0,0,1-1.55-3.88c3.25-3.11,3.27-12.11,3-15.32a2.25,2.25,0,0,1,4.49-.37c.12,1.4,1,13.8-4.39,18.94A2.25,2.25,0,0,1,187.68,183.11Z"/><path class="cls-1" d="M154,224.57a2.26,2.26,0,0,1-1.51-3.93C167.6,207,167.2,188.1,167.19,187.91a2.26,2.26,0,0,1,4.51-.13c0,.85.45,21.17-16.23,36.21A2.29,2.29,0,0,1,154,224.57Z"/><path class="cls-1" d="M177.61,187.9a2.26,2.26,0,0,1-2.25-2.26V180a2.25,2.25,0,0,1,4.5,0v5.63A2.25,2.25,0,0,1,177.61,187.9Z"/><path class="cls-1" d="M186.55,231.07a2.23,2.23,0,0,1-1.19-.35c-.05,0-4.77-2.9-9.34-1.78a2.26,2.26,0,0,1-1.08-4.38c4.75-1.16,9.3.57,11.48,1.63,8.78-6.39,8.67-17.78,8.4-21.29-15.23-8.12-25.68-1.13-25.79-1.05a2.25,2.25,0,0,1-2.56-3.71c.54-.38,13.38-9,31.59,1.39a2.28,2.28,0,0,1,1.11,1.61c.12.76,2.74,18.67-11.42,27.58A2.24,2.24,0,0,1,186.55,231.07Z"/><rect class="cls-1" x="176.39" y="67.65" width="1.06" height="15.86"/><rect class="cls-1" x="141.16" y="82.24" width="1.06" height="15.88" transform="translate(-22.27 126.6) rotate(-45)"/><rect class="cls-1" x="204.21" y="89.66" width="15.89" height="1.06" transform="translate(-1.63 176.45) rotate(-45)"/><rect class="cls-1" x="130.17" y="98.87" width="1.06" height="15.88" transform="translate(-17.22 188.11) rotate(-68.05)"/><rect class="cls-1" x="187.6" y="78.66" width="15.87" height="1.06" transform="translate(49.07 231.02) rotate(-68.08)"/><rect class="cls-1" x="156.86" y="71.63" width="1.06" height="15.86" transform="translate(-18.59 68) rotate(-23.06)"/><rect class="cls-1" x="214.82" y="105.36" width="15.88" height="1.06" transform="translate(-23.68 95.76) rotate(-23.07)"/><rect class="cls-1" x="131.32" y="111.45" width="0.92" height="8.59" transform="translate(-8.99 220.37) rotate(-77.91)"/><rect class="cls-1" x="182.32" y="79.78" width="8.56" height="0.92" transform="translate(68.89 245.78) rotate(-77.85)"/><rect class="cls-1" x="151.37" y="82.36" width="0.92" height="8.57" transform="translate(-22.71 96.39) rotate(-32.91)"/><rect class="cls-1" x="211.39" y="99.87" width="8.6" height="0.92" transform="translate(-19.92 133.15) rotate(-32.88)"/><rect class="cls-1" x="138.19" y="95.29" width="0.92" height="8.58" transform="translate(-21.42 158.88) rotate(-56.02)"/><rect class="cls-1" x="198.48" y="86.67" width="8.57" height="0.92" transform="translate(17.07 206.39) rotate(-55.97)"/><rect class="cls-1" x="167.66" y="75.79" width="0.92" height="8.56" transform="translate(-12.17 33.48) rotate(-10.98)"/><rect class="cls-1" x="217.93" y="116.16" width="8.62" height="0.92" transform="translate(-18.12 44.38) rotate(-10.96)"/><rect class="cls-1" x="176.39" y="240.3" width="1.06" height="15.86"/><rect class="cls-1" x="133.75" y="233.1" width="15.88" height="1.06" transform="translate(-123.7 168.62) rotate(-45)"/><rect class="cls-1" x="211.62" y="225.68" width="1.06" height="15.89" transform="translate(-103.06 218.42) rotate(-45)"/><rect class="cls-1" x="122.76" y="216.48" width="15.88" height="1.06" transform="translate(-71.64 64.59) rotate(-21.95)"/><rect class="cls-1" x="195.01" y="236.69" width="1.06" height="15.87" transform="translate(-77.19 90.69) rotate(-21.92)"/><rect class="cls-1" x="149.46" y="243.73" width="15.86" height="1.06" transform="translate(-128.99 293.41) rotate(-66.94)"/><rect class="cls-1" x="222.23" y="209.98" width="1.06" height="15.88" transform="translate(-65.02 337.47) rotate(-66.93)"/><rect class="cls-1" x="127.48" y="207.61" width="8.59" height="0.92" transform="translate(-40.64 32.2) rotate(-12.09)"/><rect class="cls-1" x="186.13" y="239.29" width="0.92" height="8.56" transform="translate(-47.07 44.71) rotate(-12.15)"/><rect class="cls-1" x="147.55" y="236.71" width="8.57" height="0.92" transform="translate(-129.77 235.79) rotate(-57.09)"/><rect class="cls-1" x="215.22" y="219.18" width="0.92" height="8.6" transform="translate(-89.08 283.31) rotate(-57.12)"/><rect class="cls-1" x="134.36" y="223.77" width="8.58" height="0.92" transform="translate(-101.66 115.8) rotate(-33.98)"/><rect class="cls-1" x="202.3" y="232.39" width="0.92" height="8.57" transform="matrix(0.83, -0.56, 0.56, 0.83, -97.73, 154.02)"/><rect class="cls-1" x="163.84" y="243.28" width="8.56" height="0.92" transform="translate(-103.17 362.37) rotate(-79.02)"/><rect class="cls-1" x="221.77" y="202.88" width="0.92" height="8.62" transform="translate(-23.43 385.99) rotate(-79.04)"/><path class="cls-2" d="M37,162.35c-.5,0-1.13-.08-1.26-.44l-.23-.67c-.09-.26-.18-.56-.28-.88s-.2-.66-.29-1-.16-.67-.22-1a.29.29,0,0,0-.27-.23h0a.28.28,0,0,0-.27.23c-.07.33-.15.69-.25,1s-.21.73-.31,1.07l-.49,1.58a1.65,1.65,0,0,1-.42.19,2.62,2.62,0,0,1-.79.1,3,3,0,0,1-1-.15.77.77,0,0,1-.45-.35,6.55,6.55,0,0,1-.37-1.07c-.15-.51-.29-1.07-.43-1.68s-.28-1.22-.41-1.85-.2-1.06-.27-1.5a2.7,2.7,0,0,1,.38-.21,1.73,1.73,0,0,1,.69-.13,1.32,1.32,0,0,1,.73.18.79.79,0,0,1,.29.59c.1.75.19,1.37.26,1.86l.28,1.91c0,.17.06.31.08.41a.27.27,0,0,0,.26.23.35.35,0,0,0,.33-.23c0-.16.08-.38.16-.67s.47-1.83.59-2.29l.3-1.21a2.65,2.65,0,0,1,.44-.17,2.51,2.51,0,0,1,.67-.08,2.14,2.14,0,0,1,.81.14.51.51,0,0,1,.33.33c.12.42.24.84.35,1.25l.55,2.07q.1.41.15.63a.27.27,0,0,0,.26.23c.14,0,.33-.1.35-.24.11-.77.22-1.56.33-2.38s.19-1.56.28-2.36a2.24,2.24,0,0,1,.39-.14,2.51,2.51,0,0,1,.55-.06,1.37,1.37,0,0,1,.74.18c.09.06.22.17.22.52a6.2,6.2,0,0,1-.07.66c0,.31-.12.66-.2,1s-.17.8-.28,1.24-.21.85-.32,1.25-.21.76-.3,1.09-.15.49-.21.65a1.72,1.72,0,0,1-.5.2A4.09,4.09,0,0,1,37,162.35Z"/><path class="cls-2" d="M43.77,162.41a6.7,6.7,0,0,1-1.4-.14,3.31,3.31,0,0,1-1-.41,1.83,1.83,0,0,1-.62-.65,2,2,0,0,1-.21-.92,1.69,1.69,0,0,1,.52-1.35,3.27,3.27,0,0,1,1.79-.62l2-.2a.29.29,0,0,0,.25-.29v-.11a.94.94,0,0,0-.55-.88,2.93,2.93,0,0,0-1.23-.21,5.93,5.93,0,0,0-1.19.12,6.13,6.13,0,0,0-.88.26,1,1,0,0,1-.25-.65.64.64,0,0,1,.12-.42,1.25,1.25,0,0,1,.48-.32,5.13,5.13,0,0,1,1-.22,11,11,0,0,1,1.1-.07,5.91,5.91,0,0,1,1.45.16,3.2,3.2,0,0,1,1.06.45,1.92,1.92,0,0,1,.65.74,2.38,2.38,0,0,1,.23,1.07v3.32a.61.61,0,0,1-.15.43,1.91,1.91,0,0,1-.46.37A5.34,5.34,0,0,1,43.77,162.41Zm-.08-3.13a2.23,2.23,0,0,0-.8.21.77.77,0,0,0-.43.71.87.87,0,0,0,.35.71,1.49,1.49,0,0,0,1,.24,3.52,3.52,0,0,0,.62-.05,1.79,1.79,0,0,0,.55-.17.29.29,0,0,0,.14-.26v-1.18a.33.33,0,0,0-.08-.22.27.27,0,0,0-.19-.08Z"/><path class="cls-2" d="M54.85,162.29a3.2,3.2,0,0,1-.56,0,.81.81,0,0,1-.34-.13.62.62,0,0,1-.19-.25,1.19,1.19,0,0,1-.07-.47v-3.5a1.08,1.08,0,0,0-.38-.91,1.36,1.36,0,0,0-.88-.27,3,3,0,0,0-.67.08,2.05,2.05,0,0,0-.6.26.33.33,0,0,0-.12.25v4.9l-.24,0a4.54,4.54,0,0,1-.65,0,3.28,3.28,0,0,1-.56,0,.86.86,0,0,1-.34-.13.52.52,0,0,1-.18-.25,1.17,1.17,0,0,1-.08-.47V157a.85.85,0,0,1,.12-.48,1.9,1.9,0,0,1,.41-.38,4.26,4.26,0,0,1,1.23-.55,6.23,6.23,0,0,1,1.68-.21,4,4,0,0,1,2.49.68,2.14,2.14,0,0,1,.82,1.8v4.4l-.24,0A4.63,4.63,0,0,1,54.85,162.29Z"/><path class="cls-2" d="M60.1,162.39a3,3,0,0,1-1.9-.53,2.06,2.06,0,0,1-.61-1.69v-6.11l.25,0a3.05,3.05,0,0,1,.62-.05,1.76,1.76,0,0,1,.91.19c.15.1.23.34.23.72v1a.28.28,0,0,0,.28.29h1.83c0,.06,0,.13.08.21a1.23,1.23,0,0,1,.07.44.76.76,0,0,1-.15.54.61.61,0,0,1-.45.15H59.88a.28.28,0,0,0-.28.29V160a.89.89,0,0,0,.39.8,1.59,1.59,0,0,0,.85.2,3.08,3.08,0,0,0,.51,0l.28,0a1,1,0,0,1,.1.17.69.69,0,0,1,.07.34.85.85,0,0,1-.33.69A2.24,2.24,0,0,1,60.1,162.39Z"/><path class="cls-2" d="M69,162.29a3.13,3.13,0,0,1-.56,0,.81.81,0,0,1-.34-.13.62.62,0,0,1-.19-.25,1.19,1.19,0,0,1-.07-.47v-6.14a2.73,2.73,0,0,1,.23-1.16,2.37,2.37,0,0,1,.64-.79,2.82,2.82,0,0,1,1-.46,5,5,0,0,1,1.25-.16,3.44,3.44,0,0,1,1.54.26.74.74,0,0,1,.38.73.79.79,0,0,1-.09.38,1,1,0,0,1-.12.19l-.49-.1a5.58,5.58,0,0,0-.76-.05,2.27,2.27,0,0,0-1.16.25,1.06,1.06,0,0,0-.5,1v.48a.28.28,0,0,0,.27.29h2.34l.08.21a1.5,1.5,0,0,1,.07.44.76.76,0,0,1-.15.54.63.63,0,0,1-.45.15H70.14a.28.28,0,0,0-.28.29v4.46l-.24,0A4.49,4.49,0,0,1,69,162.29Z"/><path class="cls-2" d="M77.48,162.41a6,6,0,0,1-1.45-.17,3.15,3.15,0,0,1-1.11-.51,2.19,2.19,0,0,1-.69-.84A3.1,3.1,0,0,1,74,159.6v-4l.24,0a4.48,4.48,0,0,1,.64,0,3.06,3.06,0,0,1,.56,0,.69.69,0,0,1,.34.13.52.52,0,0,1,.19.24,1.22,1.22,0,0,1,.07.48v3.18a1.38,1.38,0,0,0,.41,1.1,1.62,1.62,0,0,0,1.06.32,2.28,2.28,0,0,0,.63-.07,2.19,2.19,0,0,0,.39-.13.29.29,0,0,0,.16-.27v-5l.25,0a4.37,4.37,0,0,1,.64,0,3.06,3.06,0,0,1,.56,0,.69.69,0,0,1,.34.13.52.52,0,0,1,.19.24,1.22,1.22,0,0,1,.07.48v4.5a.92.92,0,0,1-.5.86,3.85,3.85,0,0,1-1.2.46A6.81,6.81,0,0,1,77.48,162.41Z"/><path class="cls-2" d="M88.31,162.29a3.13,3.13,0,0,1-.56,0,.81.81,0,0,1-.34-.13.62.62,0,0,1-.19-.25,1.19,1.19,0,0,1-.07-.47v-3.5a1.11,1.11,0,0,0-.38-.91,1.37,1.37,0,0,0-.89-.27,3,3,0,0,0-.66.08,2.05,2.05,0,0,0-.6.26.3.3,0,0,0-.12.25v4.9l-.24,0a4.63,4.63,0,0,1-.65,0,3.2,3.2,0,0,1-.56,0,.81.81,0,0,1-.34-.13.52.52,0,0,1-.18-.25,1.17,1.17,0,0,1-.08-.47V157a.85.85,0,0,1,.12-.48,1.9,1.9,0,0,1,.41-.38,4.26,4.26,0,0,1,1.23-.55,6.21,6.21,0,0,1,1.67-.21,4,4,0,0,1,2.5.68,2.14,2.14,0,0,1,.82,1.8v4.4l-.25,0A4.4,4.4,0,0,1,88.31,162.29Z"/><rect class="cls-2" x="28.96" y="166.17" width="60.23" height="2.28"/><circle class="cls-5" cx="93.41" cy="167.31" r="1.45"/><path class="cls-2" d="M93.41,169.33a2,2,0,1,1,2-2A2,2,0,0,1,93.41,169.33Zm0-2.9a.88.88,0,1,0,.87.88A.87.87,0,0,0,93.41,166.43Z"/><circle class="cls-5" cx="99.06" cy="167.31" r="1.45"/><path class="cls-2" d="M99.06,169.33a2,2,0,1,1,2-2A2,2,0,0,1,99.06,169.33Zm0-2.9a.88.88,0,1,0,.88.88A.87.87,0,0,0,99.06,166.43Z"/><path class="cls-2" d="M270.61,161.78c-.44,0-.67-.24-.67-.73v-4.23a12.84,12.84,0,0,1-2.45,2.25,12,12,0,0,1-2.84,1.57.86.86,0,0,1-.27.05.55.55,0,0,1-.42-.19.77.77,0,0,1-.16-.48.57.57,0,0,1,.13-.36.82.82,0,0,1,.38-.26,18,18,0,0,0,3-1.78,16.13,16.13,0,0,0,2.66-2.31v-4.43l-5.09,0c-.5,0-.76-.21-.76-.61s.26-.61.76-.61H270l0-1.06c0-.49.23-.73.67-.73s.67.24.67.73v1.09l5.1,0c.5,0,.75.21.75.61s-.25.61-.75.61h-5.13l0,4.49a15.55,15.55,0,0,0,2.57,2.15,18.35,18.35,0,0,0,3.29,1.75.63.63,0,0,1,.46.6.76.76,0,0,1-.22.55.56.56,0,0,1-.41.2,7,7,0,0,1-2.62-1.26,15.81,15.81,0,0,1-3.12-2.62l0,4.28C271.28,161.54,271.05,161.78,270.61,161.78Zm-6-5.5a.61.61,0,0,1-.42-.17.49.49,0,0,1-.14-.34,1,1,0,0,1,.31-.64,11.39,11.39,0,0,0,1.89-3.2.71.71,0,0,1,.68-.51.6.6,0,0,1,.61.58,3.25,3.25,0,0,1-.37,1.2,12.24,12.24,0,0,1,1.82,1.38.76.76,0,0,1,.27.53.57.57,0,0,1-.18.44.69.69,0,0,1-.46.16.61.61,0,0,1-.35-.11,2.61,2.61,0,0,1-.37-.31l-1.25-1.23a6.7,6.7,0,0,1-1.46,2A.82.82,0,0,1,264.64,156.28Zm11.83-.39a.66.66,0,0,1-.35-.11,1.94,1.94,0,0,1-.38-.33l-.25-.24c-.39-.4-.8-.8-1.22-1.18a4.9,4.9,0,0,1-1.26,1.56.76.76,0,0,1-.5.22.56.56,0,0,1-.4-.17.52.52,0,0,1-.18-.37.94.94,0,0,1,.28-.57,7.06,7.06,0,0,0,1-1.3,10.27,10.27,0,0,0,.76-1.59.62.62,0,0,1,.62-.46.6.6,0,0,1,.45.17.54.54,0,0,1,.17.39,3,3,0,0,1-.4,1.24,14.8,14.8,0,0,1,2.05,1.58.67.67,0,0,1,.27.54.61.61,0,0,1-.17.45A.68.68,0,0,1,276.47,155.89Z"/><path class="cls-2" d="M288.38,161.8q-.63,0-.63-.72v-3a1.59,1.59,0,0,1,.34-1.13,1.27,1.27,0,0,1,.93-.31h4.28l0-.7-3.36,0a1.42,1.42,0,0,1-1-.3,1.23,1.23,0,0,1-.29-1v-2.08a1.43,1.43,0,0,1,.3-1,1.11,1.11,0,0,1,.82-.27h8.17a1.39,1.39,0,0,1,1,.3,1.19,1.19,0,0,1,.26,1v2.08a1.5,1.5,0,0,1-.29,1,1.09,1.09,0,0,1-.8.28h-3.71l0,.7,4.27,0a1.57,1.57,0,0,1,1.14.34,1.37,1.37,0,0,1,.3,1.09v2.15a1.7,1.7,0,0,1-.37,1.22,1.39,1.39,0,0,1-1,.34h-1.14c-.42,0-.64-.2-.64-.59a.56.56,0,0,1,.64-.61h.71a.55.55,0,0,0,.42-.15.57.57,0,0,0,.15-.42v-1.77a.53.53,0,0,0-.14-.39.52.52,0,0,0-.38-.14h-4l0,1.26,2-.18a.71.71,0,0,1-.24-.46c0-.29.17-.43.5-.43s.5.29.89.89a4.23,4.23,0,0,1,.6,1.09.52.52,0,0,1-.14.4.64.64,0,0,1-.44.12c-.24,0-.5-.26-.77-.79l-6.38.76h-.17a.68.68,0,0,1-.44-.13.66.66,0,0,1-.2-.52c0-.27.09-.45.27-.51a4.77,4.77,0,0,1,1.28-.12l2.14-.1,0-1.32-3.73,0a.47.47,0,0,0-.53.53v2.87C289,161.56,288.81,161.8,288.38,161.8Zm6-6.84,3.09,0c.33,0,.48-.15.48-.47v-.39l-3.57,0Zm-4.57-.5a.45.45,0,0,0,.13.35.47.47,0,0,0,.34.12h3l0-.86-3.44,0Zm4.57-1.32,3.6,0,0-.32c0-.32-.15-.47-.48-.47h-3.09Zm-4.1-.82a.42.42,0,0,0-.47.47v.35l3.46,0,0-.82Zm5.93-1.23c-.42,0-.63-.23-.63-.68v-.29l-3.48,0,0,.26c0,.45-.21.68-.62.68s-.62-.23-.62-.68v-.29l-3.19,0c-.43,0-.65-.2-.65-.58s.22-.58.65-.58H291l0-.45a.58.58,0,0,1,.64-.66q.6,0,.6.66V149l3.48,0,0-.45q0-.66.63-.66c.41,0,.62.22.62.66V149l3.28,0c.45,0,.68.2.68.58s-.23.58-.68.58h-3.31l0,.26C296.86,150.86,296.65,151.09,296.24,151.09Z"/><path class="cls-2" d="M311.05,161.71a.6.6,0,0,1-.67-.69c0-.29.26-.54.78-.72a5.11,5.11,0,0,0,3.54-4.72c0-.46.07-.94.09-1.42l-3.68,0c-.48,0-.73-.2-.73-.59s.25-.6.73-.6h5.38l0-1.23c0-.43.21-.65.62-.65a.66.66,0,0,1,.48.15.71.71,0,0,1,.16.5V153l5.57,0c.49,0,.73.2.73.6s-.24.59-.73.59h-7.23V155c0,.34-.05.61-.07.81l5,0c.86,0,1.3.37,1.3,1.1a10.54,10.54,0,0,1-.42,3,2.24,2.24,0,0,1-1,1.37,5.49,5.49,0,0,1-2.54.43c-.58,0-.87-.25-.87-.74s.3-.64.88-.64a6.94,6.94,0,0,0,1.32-.09,1.09,1.09,0,0,0,1-.87,7.25,7.25,0,0,0,.18-.84c0-.23.07-.58.11-1.06a.49.49,0,0,0-.11-.4.52.52,0,0,0-.42-.14h-4.53a6.32,6.32,0,0,1-2.72,3.94A4.51,4.51,0,0,1,311.05,161.71Zm8.63-9.77a.59.59,0,0,1-.48-.18.82.82,0,0,1-.14-.53v-.73l-3.94,0,0,.7c0,.47-.21.71-.62.71s-.62-.24-.62-.71v-.73l-2.85,0q-.69,0-.69-.6t.69-.57h2.87l0-.75c0-.47.21-.71.62-.71s.62.24.62.71v.78l3.93,0,0-.75c0-.47.2-.71.62-.71s.6.24.6.71v.78l3,0q.72,0,.72.57t-.72.6h-3.07l0,.7a.82.82,0,0,1-.14.53A.56.56,0,0,1,319.68,151.94Z"/><rect class="cls-2" x="263.8" y="165.31" width="60.23" height="2.27"/><circle class="cls-5" cx="253.99" cy="166.44" r="1.44"/><path class="cls-2" d="M254,168.45a2,2,0,1,1,2-2A2,2,0,0,1,254,168.45Zm0-2.88a.87.87,0,1,0,.88.87A.87.87,0,0,0,254,165.57Z"/><circle class="cls-5" cx="259.62" cy="166.44" r="1.44"/><path class="cls-2" d="M259.62,168.45a2,2,0,1,1,2-2A2,2,0,0,1,259.62,168.45Zm0-2.88a.87.87,0,1,0,.87.87A.87.87,0,0,0,259.62,165.57Z"/></svg>