<svg id="圖層_1" data-name="圖層 1" xmlns="http://www.w3.org/2000/svg" viewBox="0 0 353 353"><defs><style>.cls-1,.cls-2{fill:#0c1533;}.cls-2{fill-rule:evenodd;}</style></defs><path class="cls-1" d="M82,241.91l1.64,1.28v4.11s0,1.1.91,1.1h8.58s1.52.08,1.52-1.08,0-3.84,0-3.84-.08-.88-1.29-.88H84.73l-1-1.65h9.86s2.62-.08,2.62,2,0,5,0,5.45c0,1.06-1.11,1.67-2.57,1.67H84.2S82,250,82,248.14Z"/><polygon class="cls-1" points="84.07 244.63 84.99 246.26 93.98 246.26 92.87 244.63 84.07 244.63"/><polygon class="cls-1" points="83.65 253.18 88.1 253.18 88.1 250.77 89.74 251.46 89.74 253.18 95.08 253.18 96.19 254.82 89.7 254.82 89.7 257.6 93.6 257.6 94.38 259.24 89.7 259.24 89.68 261.96 96.38 261.96 97.33 263.61 81.61 263.61 80.32 261.96 88.14 261.96 88.14 259.24 85.15 259.24 83.84 257.6 88.13 257.6 88.14 254.83 82.41 254.81 83.65 253.18"/><polygon class="cls-1" points="85.09 251.33 83.24 251.33 80.32 255.91 82.14 255.91 85.09 251.33"/><path class="cls-1" d="M245.43,243.24h-7l-1.4-2.12h-2l1.4,2.12h-5a1.84,1.84,0,0,0-1.56,1.52s0,0,0,0v.07s0,.06,0,.1v.15c-.29,5.14-1.69,19-1.69,19,2.07-2.49,3.06-14.5,3.32-18.22,0-.87.67-1,1.26-1h11.94Z"/><path class="cls-1" d="M234.28,245.84l1.66.86v5.1l5.8-4,3,0-8.8,6v1.53H243a1.12,1.12,0,0,1,1.07,1.1v5.52s.06,1.72-1.51,1.72h-9s-1.41-.08-1.41-1.88v-5.62l1.65,1v3.72s-.11,1.13.95,1.13h7s.7,0,.7-1.13v-3.26s0-.67-.91-.66c-1.09,0-6,0-6,0s-1.31-.13-1.29-1.31C234.32,254.1,234.28,245.84,234.28,245.84Z"/><polygon class="cls-1" points="186.63 258.68 187.93 260.04 193.9 260.04 192.51 258.68 186.63 258.68"/><polygon class="cls-1" points="178.75 241.31 180.63 241.31 184.04 246.61 182.21 246.61 178.75 241.31"/><polygon class="cls-1" points="178.75 248.09 180.6 248.09 184.02 253.4 182.2 253.4 178.75 248.09"/><path class="cls-1" d="M194.23,246.14c-1.66,0-2.28,0-2.28,0l-.07-3.41h3.79l-1-1.64H184.19l1.28,1.64h2.44l-.07,3.41h-3l1,1.65h2s-.17,7.59-1,9.52a9.86,9.86,0,0,0,1.81-4.51,31.6,31.6,0,0,0,.62-5h1.36v7.89c0,1.09.7,1.35,1.06,1.35h2.11l-.77-1.64h-.9l0-7.61h1.64s.89-.14.89,1.18v11.56s0,1.52-1,1.51h-6.57s-1.08.09-1.15-1.5,0-11.43,0-11.43L184.31,248s0,13,0,13.42a2.32,2.32,0,0,0,2.58,2.24h8s1.36,0,1.36-1.84V247.73S196.28,246.13,194.23,246.14Zm-3.57,0h-1.39c0-1.14.07-3.41.07-3.41h1.28Z"/><polygon class="cls-1" points="179.22 263.71 179.22 261.18 183.69 255.34 183.7 257.89 179.22 263.71"/><path class="cls-1" d="M146,241.18H133.35s-3.34.09-3.72,2.68-.19,20.24-.19,20.24a16,16,0,0,0,1.05-2.08,11.63,11.63,0,0,0,.55-3.45c.17-4.25.31-11.44.31-11.44a9.87,9.87,0,0,1,.36-2.88c.51-1,1.49-1.4,2.92-1.42s10.44,0,10.44,0Z"/><polygon class="cls-1" points="134.08 245.42 135.45 247.06 144.59 247.06 143.11 245.42 134.08 245.42"/><path class="cls-1" d="M142.54,254.06,139.26,257l-2.92-2.93H135c0-.89,0-1.42,0-1.62,0-1,.61-.91,1.2-.91h8.07l1.09-1.64H133.39s-.39,12.6-.39,13c0,1.09,1,1,1.46.73.09-.05.58-.48,1.19-1h0l1.12-1,1.55-1.4h0l1.11-.93,4.92,4.44h2.56l-6.36-5.66,4.58-4Zm-4.39,4.06-3.41,3.12c0-1.34.09-4.1.16-6Z"/><path class="cls-2" d="M167.26,129.79c.33,3.56,3,5.57,6.69,5.88,11.33,1,36.88,3.26,38.24,4.21q-15.19,1.26-30.37,2.55c-2.71.23-5.42.46-8.11.76-3.89.43-6.26,2.87-6.59,6.86-1.08,12.5-3.29,90.11-4,90.53-.46-4.8-2.63-82.54-3.51-90.64-.5-4.62-2.73-6.42-7.4-6.82-12.54-1.1-25.08-2.19-37.67-4.09,4.56-.41,30.13-2.66,38.36-3.4,4.08-.35,6.37-2.59,6.75-6.65,1-10.82,3.39-37.57,3.65-40.13C163.52,88.85,166,116.16,167.26,129.79Z"/><path class="cls-2" d="M157.59,130.45l-2.73,2.72s-17.15-20.28-18.3-21.69C136.66,111.36,157.59,130.45,157.59,130.45Z"/><path class="cls-2" d="M171.7,133.18,169,130.45s20.28-17.16,21.68-18.3C190.78,112.25,171.7,133.18,171.7,133.18Z"/><path class="cls-2" d="M169.3,148.05l2.73-2.72s17.16,20.28,18.3,21.69C190.23,167.14,169.3,148.05,169.3,148.05Z"/><polygon class="cls-1" points="35.67 203.1 35.67 224.44 32.2 224.44 32.2 215.54 23.55 215.54 23.55 224.44 20.08 224.44 20.08 203.1 23.55 203.1 23.55 211.94 32.2 211.94 32.2 203.1 35.67 203.1"/><polygon class="cls-1" points="91.38 206.36 86.89 206.36 86.89 224.44 83.36 224.44 83.36 206.36 77.84 206.36 78.88 203.1 92.47 203.1 91.38 206.36"/><polygon class="cls-1" points="107.66 206.67 107.66 212 115.52 212 116.53 215.54 107.66 215.54 107.66 220.87 118.34 220.87 117.29 224.44 104.09 224.44 104.09 203.1 118.34 203.1 117.31 206.67 107.66 206.67"/><polygon class="cls-1" points="144.43 220.87 144.43 224.44 132.97 224.44 132.97 203.1 136.54 203.1 136.54 220.87 144.43 220.87"/><path class="cls-1" d="M193.28,219.1l2.5,2.54a10.63,10.63,0,0,1-7.53,3.11c-5.88,0-10.7-4.27-10.7-11,0-6.44,4.45-11,10.7-11a10.53,10.53,0,0,1,7.53,3.14l-2.5,2.5a7.12,7.12,0,0,0-5-2.07c-4.39,0-7.08,3.11-7.08,7.41,0,4.57,3.15,7.41,7.08,7.41A7.09,7.09,0,0,0,193.28,219.1Z"/><polygon class="cls-1" points="210.81 206.36 210.81 221.18 214.21 221.18 213.32 224.44 204.08 224.44 204.99 221.18 207.25 221.18 207.25 206.36 204.08 206.36 205.11 203.1 214.21 203.1 213.2 206.36 210.81 206.36"/><polygon class="cls-1" points="237.28 206.36 232.81 206.36 232.81 224.44 229.27 224.44 229.27 206.36 223.69 206.36 224.79 203.1 238.35 203.1 237.28 206.36"/><polygon class="cls-1" points="253.15 206.36 253.15 221.18 256.69 221.18 255.65 224.44 246.43 224.44 247.37 221.18 249.58 221.18 249.58 206.36 246.43 206.36 247.49 203.1 256.69 203.1 255.52 206.36 253.15 206.36"/><polygon class="cls-1" points="278.91 224.44 267.51 224.44 274.64 206.67 267.48 206.67 268.68 203.1 279.89 203.1 272.78 220.87 279.92 220.87 278.91 224.44"/><polygon class="cls-1" points="295.19 206.67 295.19 212 303.04 212 304.07 215.54 295.19 215.54 295.19 220.87 305.87 220.87 304.59 224.44 291.63 224.44 291.63 203.1 305.87 203.1 304.83 206.67 295.19 206.67"/><polygon class="cls-1" points="332.92 224.44 329.54 224.44 319.62 209.26 319.62 224.44 316.28 224.44 316.28 203.1 319.64 203.1 329.61 218.28 329.61 203.1 332.92 203.1 332.92 224.44"/><path class="cls-1" d="M58.27,203.1a10.58,10.58,0,1,0,10.58,10.57A10.62,10.62,0,0,0,58.27,203.1Zm0,17.64a7.06,7.06,0,1,1,7-7.07A7.07,7.07,0,0,1,58.27,220.74Z"/></svg>