<svg id="圖層_1" data-name="圖層 1" xmlns="http://www.w3.org/2000/svg" viewBox="0 0 353 353"><defs><style>.cls-1{fill:#57b8a9;}.cls-2{fill:#f0b264;}.cls-3{fill:none;}</style></defs><path class="cls-1" d="M224.75,276.64V264.39c16.31,0,25.66-11.24,25.66-30.84h12.24c0,12.85-3.47,23.64-10,31.21C245.88,272.53,236.24,276.64,224.75,276.64Z"/><path class="cls-1" d="M276.33,221.85V209.6c15.37,0,15.37-10,15.37-13.35H304C304,212,293.37,221.85,276.33,221.85Z"/><path class="cls-2" d="M252.27,221.85V209.6c-15.38,0-15.38-10-15.38-13.35H224.65C224.65,212,235.23,221.85,252.27,221.85Z"/><path class="cls-1" d="M183.59,170.84H171.41c0,12.6-17.49,32.1-39.74,41.26l5.68,10.11A145.69,145.69,0,0,0,159,210.12c8-5.36,14.3-13.16,18.51-19.46,4.21,6.3,10.48,14.1,18.5,19.46a146.71,146.71,0,0,0,21.64,12.09l5.68-10.11C201.08,202.94,183.59,183.44,183.59,170.84Z"/><path class="cls-2" d="M294.15,265.48H283.63c-2.28,0-3.82-.38-4.56-1.13-2.34-2.38-2.18-11.24-2-20.61,0-1.66.05-3.35.07-5.1l29.27-.1V224.39l-36,.12V193.87H258.18v30.68l-35.22.11v14.15l41.93-.13c0,1.65-.05,3.26-.08,4.84-.24,13.57-.41,23.37,5.53,29.42,3.17,3.22,7.52,4.79,13.29,4.79H306.4V252.45H294.15Z"/><path class="cls-2" d="M136.4,242.67l-.2-12.17c-5.94,0-11.72,0-17.06-.06-.53-3.33-1.11-6.32-1.61-8.71,8-5.92,11.4-18.47,12.1-21.36l1.84-7.55-36.54-.12,0,12.25L115,205c-1.82,3.88-4.07,7-6,7.53l-5.9,1.48,1.45,5.92c.76,3.12,1.49,6.7,2.12,10.45l-16.76-.1-.1,12.16c.15,0,7.49.06,18.37.11.68,8.74.31,16.71-2.09,20.32l-.12.2c-.51.77-1.62,1.84-2.33,1.88-.55,0-2-.59-4-3.08l-9.44,7.79c4.12,5,8.62,7.54,13.38,7.54.34,0,.67,0,1,0,7-.52,11-6.4,11.8-7.6,4.2-6.43,4.83-16.93,4.16-26.95Z"/><path class="cls-3" d="M67.27,229.31c-.56,2.94-1.1,5.6-1.66,8.1l5,4.21a66.62,66.62,0,0,0,2.9-12.28Z"/><path class="cls-1" d="M80.54,250.35a75.39,75.39,0,0,0,5.22-21h7.12l-.2-12.24-6.21,0c0-3,0-6.12,0-6.57v-6.19H74.38v6.7c0,1.26-.05,3.68-.09,6l-4.87,0,1.11-6.8c.8-5.18,1.48-10.69,2-16.38l.11-1.21-12.77-.54-.07,1.13c-.29,4.79-.84,10.31-1.65,16.4l-.28,2c-.2,1.4-.49,3.37-.78,5.28l-10.41-.07-.09,12.25,8.25.05c-.82,4-1.74,8-2.68,11.48l-.18.69.53.47c3.82,3.4,8.2,7.37,12.43,11.25a53.24,53.24,0,0,1-14.09,14.31l-1.34.95,1.34.94A37.59,37.59,0,0,1,58,276.39l.68.94.94-.69A61.62,61.62,0,0,0,74.11,262,108.93,108.93,0,0,1,82,270.77l.91,1.17,8.37-10.64-.59-.72A127.85,127.85,0,0,0,80.54,250.35ZM65.61,237.41c.56-2.5,1.1-5.16,1.66-8.1l6.23,0a66.62,66.62,0,0,1-2.9,12.28Z"/><path class="cls-2" d="M193.93,126.32a6.67,6.67,0,0,0-3.22-4,6.79,6.79,0,0,0,3.25-4.13,1,1,0,0,0-.69-1.19,9,9,0,0,0-1.83-.38,9.37,9.37,0,0,0,.58-1.78,1,1,0,0,0-.68-1.19,9.17,9.17,0,0,0-1.83-.38,9.15,9.15,0,0,0,.58-1.78,1,1,0,0,0-.69-1.19l-.08,0A7.17,7.17,0,0,0,184,111q0-.34,0-.69a6.73,6.73,0,0,0-1.92-4.21,1,1,0,0,0-1.37,0,8.9,8.9,0,0,0-1.25,1.4,8.9,8.9,0,0,0-1.25-1.4,1,1,0,0,0-1.36,0,8.43,8.43,0,0,0-1.25,1.4,10,10,0,0,0-1.25-1.4,1,1,0,0,0-1.38,0,7.11,7.11,0,0,0-2,4,6.94,6.94,0,0,0-.05.91,7.43,7.43,0,0,0-.69-.35,7,7,0,0,0-4.66-.41,1,1,0,0,0-.69,1.18,10.14,10.14,0,0,0,.58,1.78,9.32,9.32,0,0,0-1.83.38,1,1,0,0,0-.68,1.19,9.6,9.6,0,0,0,.58,1.78,9.21,9.21,0,0,0-1.82.38,1,1,0,0,0-.68,1.19,7,7,0,0,0,3.18,4.21,6.75,6.75,0,0,0-3.16,4,1,1,0,0,0,.66,1.27,9.8,9.8,0,0,0,1.83.39,9.07,9.07,0,0,0-.58,1.77,1,1,0,0,0,.68,1.19,9.32,9.32,0,0,0,1.83.38,10.14,10.14,0,0,0-.58,1.78,1,1,0,0,0,.78,1.21,7.12,7.12,0,0,0,5.33-.83,6.89,6.89,0,0,0,0,.79,6.75,6.75,0,0,0,1.86,4.14,1,1,0,0,0,1.44.07,8.9,8.9,0,0,0,1.25-1.4,8.9,8.9,0,0,0,1.25,1.4,1,1,0,0,0,1.36,0,8.9,8.9,0,0,0,1.25-1.4,8.9,8.9,0,0,0,1.25,1.4,1,1,0,0,0,1.43-.06,6.89,6.89,0,0,0,1.89-5,7.14,7.14,0,0,0,5.3.81,1,1,0,0,0,.78-1.21,10.14,10.14,0,0,0-.58-1.78,9.32,9.32,0,0,0,1.83-.38,1,1,0,0,0,.68-1.19,9.37,9.37,0,0,0-.58-1.78,9.13,9.13,0,0,0,1.84-.38,1,1,0,0,0,.66-1.27Zm-10.77-11.89a5.15,5.15,0,0,1,4.78-2.43,3.7,3.7,0,0,1-1.65,2,1,1,0,1,0,1,1.67,3.69,3.69,0,0,1,2.64-.41,3.67,3.67,0,0,1-1.68,2.09,1,1,0,1,0,1,1.67,3.67,3.67,0,0,1,2.55-.43,5.28,5.28,0,0,1-4.74,2.75h-4.77a4.91,4.91,0,0,0-1.53-2.64c.1-.17,2.38-4.15,2.46-4.27Zm-8.57,7.88h0a2.9,2.9,0,1,1,5.8,0h0a2.9,2.9,0,1,1-5.8,0Zm-.9-14.1a3.91,3.91,0,0,1,.91,2.5,1,1,0,0,0,1.93,0,3.86,3.86,0,0,1,1-2.56,3.86,3.86,0,0,1,1,2.56,1,1,0,0,0,1,1h0a1,1,0,0,0,1-1,3.9,3.9,0,0,1,.9-2.49,5.44,5.44,0,0,1,0,5.54l-2.29,4a4.92,4.92,0,0,0-1.54-.25,4.79,4.79,0,0,0-1.52.24l-2.47-4.27A5,5,0,0,1,173.69,108.21Zm-6.07,13.13a4.9,4.9,0,0,1-4.39-2.78,3.62,3.62,0,0,1,2.55.42,1,1,0,0,0,1.32-.35.94.94,0,0,0,.13-.48,1,1,0,0,0-.48-.84,3.67,3.67,0,0,1-1.68-2.09,3.72,3.72,0,0,1,2.65.41,1,1,0,1,0,1-1.67,3.66,3.66,0,0,1-1.64-2,5.55,5.55,0,0,1,5,2.72l2.3,4a4.89,4.89,0,0,0-1.54,2.65Zm-.57,11.27a3.7,3.7,0,0,1,1.64-2,1,1,0,1,0-1-1.67,3.72,3.72,0,0,1-2.65.41,3.67,3.67,0,0,1,1.68-2.09,1,1,0,1,0-1-1.67,3.64,3.64,0,0,1-2.54.43,5.25,5.25,0,0,1,4.73-2.75h4.77a4.89,4.89,0,0,0,1.54,2.65l-2.29,4A5.55,5.55,0,0,1,167.05,132.61Zm14.25,3.78a3.89,3.89,0,0,1-.9-2.48,1,1,0,1,0-1.93,0,3.85,3.85,0,0,1-1,2.55,3.85,3.85,0,0,1-1-2.55,1,1,0,1,0-1.93,0,3.89,3.89,0,0,1-.9,2.48,5.44,5.44,0,0,1,0-5.54L176,126.9a4.85,4.85,0,0,0,1.53.24,5,5,0,0,0,1.56-.25c1.16,2,2.17,3.8,2.27,4A5.44,5.44,0,0,1,181.3,136.39Zm7.88-10.83a1,1,0,0,0-1.32.35,1,1,0,0,0-.13.49,1,1,0,0,0,.48.83,3.7,3.7,0,0,1,1.68,2.09,3.72,3.72,0,0,1-2.65-.41,1,1,0,0,0-1.32.35,1,1,0,0,0-.13.48,1,1,0,0,0,.49.84,3.66,3.66,0,0,1,1.64,2,5.55,5.55,0,0,1-4.95-2.71l-2.26-4a4.84,4.84,0,0,0,1.52-2.63H187a5.28,5.28,0,0,1,4.74,2.71,3.72,3.72,0,0,1-2.55-.43Z"/><rect class="cls-2" x="223.69" y="119.2" width="58.1" height="7.99" transform="translate(505.48 246.39) rotate(-180)"/><polygon class="cls-1" points="250.24 152.71 250.24 145.41 242.18 145.41 242.18 152.71 231.02 152.71 231.02 142.87 222.96 142.87 222.96 152.71 211.76 152.71 211.76 145.41 203.7 145.41 203.7 152.71 203.7 160.77 211.76 160.77 222.96 160.77 231.02 160.77 242.18 160.77 250.24 160.77 250.28 160.77 250.28 152.71 250.24 152.71"/><rect class="cls-3" x="221.54" y="93.6" width="46.26" height="3.41"/><rect class="cls-3" x="221.54" y="105" width="46.26" height="2.78"/><path class="cls-2" d="M273.39,129.32v0H221.54V117.05h55.53V84.33H250.74c1.26-2,3.08-5.15,5.07-9H241.23a74.3,74.3,0,0,1-6.28,9H221.54v-.11h-12v54.39h61.17c-3.4,9.55-7.67,14.57-10.52,14.57v12.25c13.06,0,21.71-15.8,25.67-36.11Zm-51.85-21.54V105H267.8v2.78ZM267.8,93.6V97H221.54V93.6Z"/><polygon class="cls-2" points="99.98 75.27 90.71 75.27 90.71 81.17 67.85 81.17 67.85 90.44 90.71 90.44 90.71 97.64 99.98 97.64 99.98 90.44 107.04 90.44 107.04 81.17 99.98 81.17 99.98 75.27"/><polygon class="cls-2" points="150.84 81.17 127.97 81.17 127.97 75.27 118.7 75.27 118.7 81.17 111.65 81.17 111.65 90.44 118.7 90.44 118.7 97.64 127.97 97.64 127.97 90.44 150.84 90.44 150.84 81.17"/><path class="cls-1" d="M87,156.84H75.55c0-12.6,7.85-20.13,21-20.13v11.43C88.61,148.14,87,151.62,87,156.84Z"/><path class="cls-1" d="M90.88,126.55c-1.36-1.89-5.17-5.8-8.27-5.8V111c9,0,15.55,8.92,16.26,9.94l-8,5.65,4-2.83Z"/><path class="cls-1" d="M118.6,127.22l-8-5.6c.29-.43,7.36-10.43,19.82-10.43V121C123.14,121,118.78,127,118.6,127.22Z"/><path class="cls-1" d="M130.29,153.86H118.86c0-3.1-3.26-5.72-7.12-5.72V136.71C122,136.71,130.29,144.4,130.29,153.86Z"/><path class="cls-2" d="M148.08,99.89H90a30.18,30.18,0,0,0,.73-5.26H78.8s-.21,9.27-11,17.06v13.49a45.13,45.13,0,0,0,17.39-14.54h52.62a121.07,121.07,0,0,1-5.55,26.59c-4.51,13.1-8.87,15.77-9.79,15.77v12.25c8.57,0,16-8.31,21.37-24a134.25,134.25,0,0,0,6.77-41.33Z"/><polygon class="cls-2" points="133.27 126.47 109.85 126.47 109.85 113.98 98.42 113.98 98.42 126.47 73.25 126.47 73.25 135.23 98.42 135.23 98.42 161.07 109.85 161.07 109.85 135.23 133.27 135.23 133.27 126.47"/><rect class="cls-3" x="159.64" y="218.12" width="36.62" height="2.53"/><rect class="cls-3" x="159.64" y="229.92" width="36.62" height="2.53"/><polygon class="cls-3" points="180.74 248.61 195.96 241.72 168.91 241.72 180.74 248.61"/><polygon class="cls-3" points="165.56 241.72 159.64 241.72 159.64 254.19 159.64 258.14 167.33 254.67 165.56 253.63 165.56 241.72"/><path class="cls-2" d="M220.49,271.76l-26.31-15.32,7-3.29,4.38-2.21V237.38l0,0V208.85H182.26c1.21-1.92,3.35-5.46,5.72-10.1H173.4a75.25,75.25,0,0,1-7.16,10.1H147.63v62.89h13.9L181,262.62l15.67,9.14Zm-39.76-23.15-11.82-6.89H196Zm-21.09-16.16v-2.53h36.61v2.53Zm36.61-14.33v2.53H159.64v-2.53Zm-36.61,40V241.72h5.92v11.92l1.77,1Z"/></svg>