<svg id="圖層_1" data-name="圖層 1" xmlns="http://www.w3.org/2000/svg" xmlns:xlink="http://www.w3.org/1999/xlink" viewBox="0 0 353 353"><defs><style>.cls-1{fill:#fcd227;}.cls-2{fill:url(#未命名漸層_11);}.cls-3{fill:#4285f4;}.cls-4{fill:url(#未命名漸層_11-2);}.cls-5{fill:#ffda2a;}.cls-6{fill:url(#未命名漸層_11-3);}.cls-7{fill:url(#未命名漸層_11-4);}.cls-8{fill:url(#未命名漸層_11-5);}.cls-9{fill:#de7403;}.cls-10{fill:url(#未命名漸層_11-6);}.cls-11{fill:url(#未命名漸層_7);}.cls-12{fill:url(#未命名漸層_11-7);}.cls-13{fill:url(#未命名漸層_11-8);}.cls-14{fill:url(#未命名漸層_11-9);}.cls-15{fill:url(#未命名漸層_11-10);}</style><linearGradient id="未命名漸層_11" x1="92.3" y1="252.84" x2="131.1" y2="109.97" gradientTransform="matrix(1, 0, 0, -1, 0, 353)" gradientUnits="userSpaceOnUse"><stop offset="0" stop-color="#de7403"/><stop offset="1" stop-color="#ffda2a"/></linearGradient><linearGradient id="未命名漸層_11-2" x1="-89.56" y1="1098.09" x2="-39.25" y2="1098.09" gradientTransform="matrix(0.97, 0.24, 0.24, -0.97, -157.13, 1267.42)" xlink:href="#未命名漸層_11"/><linearGradient id="未命名漸層_11-3" x1="-41.24" y1="1172.2" x2="8.83" y2="1121.95" gradientTransform="matrix(0.97, 0.24, 0.24, -0.97, -157.13, 1267.42)" xlink:href="#未命名漸層_11"/><linearGradient id="未命名漸層_11-4" x1="-91.23" y1="1149.06" x2="-40.92" y2="1149.06" gradientTransform="matrix(0.97, 0.24, 0.24, -0.97, -157.13, 1267.42)" xlink:href="#未命名漸層_11"/><linearGradient id="未命名漸層_11-5" x1="304.95" y1="119.16" x2="105.53" y2="119.16" xlink:href="#未命名漸層_11"/><linearGradient id="未命名漸層_11-6" x1="153.3" y1="148.62" x2="182.44" y2="148.62" xlink:href="#未命名漸層_11"/><linearGradient id="未命名漸層_7" x1="229.19" y1="148.71" x2="250.43" y2="148.71" gradientTransform="matrix(1, 0, 0, -1, 0, 353)" gradientUnits="userSpaceOnUse"><stop offset="0" stop-color="#de7403"/><stop offset="0.41" stop-color="#df7604"/><stop offset="0.57" stop-color="#e17d06"/><stop offset="0.7" stop-color="#e5890b"/><stop offset="0.8" stop-color="#eb9b12"/><stop offset="0.89" stop-color="#f2b21b"/><stop offset="0.97" stop-color="#fbce25"/><stop offset="1" stop-color="#ffda2a"/></linearGradient><linearGradient id="未命名漸層_11-7" x1="244.71" y1="148.71" x2="273.23" y2="148.71" xlink:href="#未命名漸層_11"/><linearGradient id="未命名漸層_11-8" x1="163.31" y1="195.32" x2="178.68" y2="195.32" xlink:href="#未命名漸層_11"/><linearGradient id="未命名漸層_11-9" x1="187.64" y1="142.58" x2="203.02" y2="142.58" xlink:href="#未命名漸層_11"/><linearGradient id="未命名漸層_11-10" x1="279.44" y1="142.58" x2="294.81" y2="142.58" xlink:href="#未命名漸層_11"/></defs><path class="cls-1" d="M98.59,248.15h0c-.24-.12-.36-.42-.24-.84.24-1.19.66-3.69-.65-5.24-2.33-2.8-2.39-4.83-1.37-7.21s2.62-3.7,6.19-3.88c2-.12,3.58-2.08,4.29-3.09.24-.3.54-.48.78-.36h0c.24.12.36.41.24.83-.24,1.19-.66,3.7.65,5.25,2.33,2.8,2.39,4.82,1.37,7.21s-2.62,3.69-6.19,3.87c-2,.12-3.58,2.09-4.3,3.1a.78.78,0,0,1-.77.36Z"/><path class="cls-2" d="M97.52,236.41a5.54,5.54,0,1,0,11.08,0,5.7,5.7,0,0,0-1.19-3.4c1.13-2.38,2.26-4.65,3.4-7,1.72-3.46,3.27-4.29,7.39-3.94a64,64,0,0,0,10.25.36c4.88-.3,7.33-2.86,7.27-7.63a8.38,8.38,0,0,0-.06-1.19,12,12,0,0,1,.59-3.63l.24-1.08c.3-1.19.66-2.38.95-3.57a50.17,50.17,0,0,0,1.55-6.2c0-.12.06-.24.06-.36v-.12a8,8,0,0,1,.3-1.37l.6-.17a5.33,5.33,0,0,0,4.17-2.81,5.54,5.54,0,0,0-.3-5c-.54-1-1.07-2-1.55-3-.77-1.49-1.49-2.86-2.14-4.29-.3-.66-.54-1.31-.78-1.91a11.09,11.09,0,0,1-.59-2.8,6.66,6.66,0,0,1,.17-2.5,31,31,0,0,0,1.61-6.44,33.14,33.14,0,0,0,.18-6,30,30,0,0,0-3.39-11.32,32.2,32.2,0,0,0-1.79-3c-.72-1.07-1.31-2-2-2.8-6.61-8.46-15.73-13.23-27-14.12a74.13,74.13,0,0,0-12.1.06c-6.68.71-11.8,1.78-11.38,2.8.35.77,2.32,1.49,3.93.77s1.85,1.37,7.09,1.07a63.78,63.78,0,0,1,12-.12c10,.78,18,4.95,23.84,12.4.59.72,1.13,1.55,1.78,2.5s1.08,1.73,1.55,2.62a25.32,25.32,0,0,1,2.92,9.6,22.86,22.86,0,0,1-.12,4.95,26.64,26.64,0,0,1-1.37,5.48,10.47,10.47,0,0,0-.47,4.41,17.64,17.64,0,0,0,.83,3.93c.24.78.6,1.49.9,2.27.71,1.55,1.48,3.09,2.26,4.58.54,1,1,1.91,1.49,2.92a2.32,2.32,0,0,1,.3,1,4.55,4.55,0,0,1-.84.3c-3.93.71-4.35,3.51-4.65,5.36v.12a.25.25,0,0,1-.05.18v.12a42.39,42.39,0,0,1-1.44,5.72c-.35,1.19-.71,2.44-1,3.75l-.24,1a15.65,15.65,0,0,0-.71,5.13c0,.3.06.6.06.89,0,2.21-.42,2.92-3,3a62,62,0,0,1-9.48-.36c-5.9-.59-9.35,1.32-11.92,6.44-1.13,2.33-2.26,4.59-3.33,6.91h-.3A5.33,5.33,0,0,0,97.52,236.41Z"/><path class="cls-3" d="M44.18,158h0a1,1,0,0,1-1.19-.36c-1.19-1.31-4-3.93-6.91-3.63-5.37.48-7.93-1.19-9.9-4.47s-2.32-6.32.54-10.85c1.55-2.5.54-6.13-.12-7.8a1.1,1.1,0,0,1,.18-1.25h0A1,1,0,0,1,28,130c1.19,1.31,4,3.94,6.92,3.64,5.36-.48,7.92,1.19,9.89,4.47s2.32,6.32-.54,10.84c-1.55,2.51-.53,6.14.12,7.81.24.6.12,1.07-.18,1.25Z"/><path class="cls-3" d="M71.48,141.36h0a1,1,0,0,1-1.2-.36c-1.19-1.31-4-3.93-6.91-3.64-5.36.48-7.93-1.19-9.89-4.47s-2.33-6.31.53-10.84c1.55-2.5.54-6.14-.11-7.81a1.13,1.13,0,0,1,.17-1.25h0a1,1,0,0,1,1.2.36c1.19,1.31,4,3.93,6.91,3.63,5.36-.47,7.92,1.19,9.89,4.47s2.33,6.32-.53,10.85c-1.55,2.5-.54,6.14.11,7.8.24.6.18,1.08-.17,1.26Z"/><path class="cls-4" d="M57.05,213.82c-.59-1.67-1.66-5.3-.12-7.81,2.87-4.52,2.57-7.62.54-10.84s-4.59-4.95-9.89-4.47c-2.92.24-5.72-2.32-6.91-3.64-.18-.17-.84-1.19-1.61-2.32A24.71,24.71,0,0,1,37.63,182c-.6-1.67-1.67-5.31-.12-7.81,2.86-4.53,2.56-7.63.53-10.84s-4.58-4.95-9.89-4.47c-2.92.23-5.72-2.33-6.91-3.64-.36-.42-.9-.59-1.19-.36a1,1,0,0,0-.18,1.26c.59,1.66,1.67,5.3.12,7.8-2.86,4.53-2.57,7.63-.54,10.85s4.59,4.94,9.89,4.47c2.92-.24,5.72,2.32,6.92,3.63.12.18.89,1.25,1.72,2.51a27.93,27.93,0,0,1,1.32,2.5c.59,1.67,1.66,5.3.11,7.81-2.86,4.52-2.56,7.62-.53,10.84s4.59,4.95,9.89,4.47c2.92-.24,5.72,2.32,6.91,3.64.36.41.9.59,1.2.35S57.23,214.36,57.05,213.82Z"/><path class="cls-5" d="M89.53,201.72h0a1,1,0,0,1-1.19-.35c-1.19-1.31-4-3.94-6.91-3.64-5.37.48-7.93-1.19-9.89-4.47s-2.33-6.32.53-10.84c1.55-2.51.54-6.14-.12-7.81a1.11,1.11,0,0,1,.18-1.25h0a1,1,0,0,1,1.19.36c1.19,1.31,4,3.93,6.92,3.63,5.36-.48,7.92,1.19,9.89,4.47s2.32,6.32-.54,10.85c-1.55,2.5-.53,6.13.12,7.8a1,1,0,0,1-.18,1.25Z"/><path class="cls-6" d="M115.69,178c-.59-1.67-1.67-5.31-.12-7.81,2.86-4.53,2.57-7.63.54-10.85s-4.59-4.94-9.89-4.47c-2.92.24-5.72-2.32-6.91-3.63-.18-.18-.84-1.19-1.61-2.33a24.71,24.71,0,0,1-1.43-2.74c-.6-1.67-1.67-5.3-.12-7.8,2.86-4.53,2.56-7.63.53-10.85s-4.59-5-9.89-4.47c-2.92.24-5.72-2.32-6.91-3.63-.36-.42-.9-.6-1.19-.36a1,1,0,0,0-.18,1.25c.59,1.67,1.67,5.3.12,7.81-2.86,4.53-2.57,7.62-.54,10.84s4.59,4.95,9.89,4.47c2.92-.24,5.72,2.33,6.92,3.64.11.18.89,1.25,1.72,2.5a24.35,24.35,0,0,1,1.31,2.5c.6,1.67,1.67,5.31.12,7.81-2.86,4.53-2.56,7.63-.53,10.85s4.59,4.94,9.89,4.47c2.92-.24,5.72,2.32,6.91,3.63.36.42.9.6,1.19.36A.93.93,0,0,0,115.69,178Z"/><path class="cls-7" d="M67.42,163.88c-.59-1.67-1.67-5.3-.12-7.8,2.86-4.53,2.57-7.63.54-10.85s-4.59-4.95-9.89-4.47c-2.92.24-5.72-2.32-6.91-3.63-.18-.18-.84-1.2-1.61-2.33A24.71,24.71,0,0,1,48,132.06c-.6-1.67-1.67-5.3-.12-7.81,2.86-4.53,2.56-7.62.53-10.84s-4.59-5-9.89-4.47c-2.92.24-5.72-2.33-6.91-3.64-.36-.41-.9-.59-1.19-.35a1,1,0,0,0-.18,1.25c.59,1.67,1.67,5.3.12,7.8-2.86,4.53-2.57,7.63-.54,10.85s4.59,5,9.89,4.47c2.92-.24,5.72,2.32,6.92,3.63.11.18.89,1.26,1.72,2.51a26.76,26.76,0,0,1,1.31,2.5c.6,1.67,1.67,5.3.12,7.81-2.86,4.53-2.56,7.62-.53,10.84s4.59,4.95,9.89,4.47c2.92-.24,5.72,2.33,6.91,3.64.36.41.9.59,1.19.35S67.6,164.42,67.42,163.88Z"/><path class="cls-3" d="M88.22,228.6c-.59-1.67-1.67-5.3-.12-7.81,2.86-4.53,2.56-7.62.54-10.84s-4.59-4.95-9.89-4.47c-2.92.24-5.73-2.33-6.92-3.64l-.12-.12-8.22-13.46c0-.06,0-.06-.06-.12-.6-1.67-1.67-5.31-.12-7.81,2.86-4.53,2.56-7.63.54-10.85S59.26,164.54,54,165c-2.92.24-5.73-2.32-6.92-3.63-.36-.42-.89-.6-1.19-.36a1,1,0,0,0-.18,1.25c.6,1.67,1.67,5.31.12,7.81-2.86,4.53-2.56,7.63-.54,10.85s4.59,4.94,9.9,4.47c2.92-.24,5.72,2.32,6.91,3.63h0c.12.12.24.3.36.42l7.8,12.75a2.13,2.13,0,0,1,.24.54h0c.6,1.67,1.67,5.3.12,7.8-2.86,4.53-2.56,7.63-.53,10.85s4.58,5,9.89,4.47c2.92-.24,5.72,2.32,6.91,3.63.36.42.89.6,1.19.36S88.4,229.14,88.22,228.6Z"/><path class="cls-3" d="M115.51,211.91c-.59-1.66-1.66-5.3-.11-7.8,2.86-4.53,2.56-7.63.53-10.85s-4.59-4.94-9.89-4.47c-2.92.24-5.72-2.32-6.91-3.63L99,185l-8.23-13.47c0-.06,0-.06-.06-.12-.59-1.67-1.66-5.3-.12-7.81,2.87-4.53,2.57-7.62.54-10.84s-4.59-5-9.89-4.47c-2.92.24-5.72-2.33-6.91-3.64-.36-.41-.9-.59-1.2-.35a1,1,0,0,0-.17,1.25c.59,1.67,1.66,5.3.11,7.8-2.86,4.53-2.56,7.63-.53,10.85s4.59,4.95,9.89,4.47c2.92-.24,5.72,2.32,6.91,3.63h0c.12.12.24.3.36.42l7.81,12.75a2.13,2.13,0,0,1,.24.54h0c.59,1.67,1.66,5.3.12,7.81-2.87,4.53-2.57,7.63-.54,10.84s4.59,5,9.89,4.47c2.92-.24,5.72,2.33,6.91,3.64.36.42.9.59,1.2.36h0A1,1,0,0,0,115.51,211.91Z"/><path class="cls-8" d="M109.73,232.83a1.83,1.83,0,0,0,.6.78,6.76,6.76,0,0,1,1.13,1.25H305.38v-2Z"/><rect class="cls-9" x="191.91" y="133.55" width="9" height="9"/><rect class="cls-3" x="191.91" y="147.2" width="9" height="22.53"/><polygon class="cls-10" points="182.44 186.29 155.2 186.29 153.3 195.17 163.37 195.17 163.37 222.46 172.37 222.46 172.37 195.17 182.44 195.17 182.44 186.29"/><rect class="cls-9" x="216.23" y="186.29" width="9" height="9"/><rect class="cls-3" x="216.23" y="199.94" width="9" height="22.53"/><polygon class="cls-11" points="238.1 186.11 250.43 213.64 245.19 222.46 229.16 186.11 238.1 186.11"/><polygon class="cls-12" points="249.9 187.6 256.87 202.2 264.26 186.11 273.2 186.29 257.05 222.46 244.71 195.29 249.9 187.6"/><path class="cls-3" d="M317,222.46h-9V186.29h13.53a13,13,0,0,1,9.59,4,13.24,13.24,0,0,1,4,9.6v22.58h-9V199.88a4.15,4.15,0,0,0-1.31-3.16,4.52,4.52,0,0,0-3.16-1.37H317v27.11Z"/><rect class="cls-13" x="163.31" y="153.81" width="15.37" height="7.75"/><polygon class="cls-3" points="161.88 169.72 153.3 169.72 161.64 147.2 171.12 147.2 165.51 160.72 161.88 169.72"/><polyline class="cls-3" points="176.78 160.72 166.59 133.55 176 133.55 189.23 169.72 180.05 169.72 176.78 160.72"/><rect class="cls-14" x="187.62" y="206.55" width="15.37" height="7.75"/><polygon class="cls-3" points="186.19 222.46 177.61 222.46 185.95 199.94 195.43 199.94 189.89 213.46 186.19 222.46"/><polyline class="cls-3" points="201.09 213.46 190.9 186.29 200.31 186.29 213.54 222.46 204.37 222.46 201.09 213.46"/><rect class="cls-15" x="279.45" y="206.55" width="15.37" height="7.75"/><polygon class="cls-3" points="278.02 222.46 269.38 222.46 277.79 199.94 287.26 199.94 281.66 213.46 278.02 222.46"/><polyline class="cls-3" points="292.86 213.46 282.73 186.29 292.09 186.29 305.32 222.46 296.2 222.46 292.86 213.46"/></svg>