<svg id="圖層_1" data-name="圖層 1" xmlns="http://www.w3.org/2000/svg" viewBox="0 0 353 353"><defs><style>.cls-1{fill:#a56441;}</style></defs><path class="cls-1" d="M145.13,230.22c-8.94-.28-17.83-1-26.29-4.25-1.57-.61-3.08-1.36-4.58-2.11a1.73,1.73,0,0,1-.93-2.53,1.84,1.84,0,0,1,2.68-.84c5.8,3.13,12.16,4.19,18.55,5.22a56.81,56.81,0,0,0,12.75.92,15,15,0,0,0,10.2-4.46c2.47-2.55,2.44-5.48-.07-8-2.3-2.31-5.29-3.12-8.34-3.73a112,112,0,0,1-36.66-14.65c-7.77-4.77-11.82-12-13.2-20.84-1.52-9.78.09-19.28,2.93-28.62,1.57-5.16,3.35-10.25,4.88-15.42a16,16,0,0,0,.43-4.75c0-1.66-1.07-2.82-2.35-3.87A51.26,51.26,0,0,1,99.3,117c-3.11-3.42-3.5-7.68-3-12A12.88,12.88,0,0,1,101,95.83c3.22-2.54,7-3.21,11-2.85a25.6,25.6,0,0,1,12.1,4.76,45.15,45.15,0,0,0,4.25,2.51,10.07,10.07,0,0,0,8.2.54,120.42,120.42,0,0,1,25.55-5.38,139.06,139.06,0,0,1,22-.58,123.83,123.83,0,0,1,31.58,5.69c4.22,1.35,8,1,11.68-1.66a31.07,31.07,0,0,1,11.28-5.62,17,17,0,0,1,8.71,0c5.34,1.51,8.14,5.34,9.28,10.51,1.51,6.87-.78,12.4-6.23,16.72a28.28,28.28,0,0,1-2.33,1.79,5.48,5.48,0,0,0-2.49,4.66c-.17,2.94.81,5.64,1.74,8.34A136.37,136.37,0,0,1,253.92,161a43.29,43.29,0,0,1-1,18.29c-2.34,8-7.38,13.84-14.6,17.93-11.15,6.31-22.84,11.15-35.49,13.51a14.24,14.24,0,0,0-6.8,3c-3,2.51-3.21,5.66-.53,8.48a13.33,13.33,0,0,0,10,4.35c8.83-.05,17.62-.65,26-3.66,1.77-.63,3.46-1.46,5.16-2.25,1.33-.62,2.34-.43,2.92.66s.26,2-1.06,2.67A46.11,46.11,0,0,1,225,228.42c-6.21,1.18-12.42,2.26-18.77,2A19.83,19.83,0,0,1,193,225c-4.78-4.5-4.15-10.87,1.39-14.88a23.48,23.48,0,0,1,9.79-3.74c12.21-2.28,23.4-7.16,34-13.5,7.45-4.47,11.27-11.43,12.32-20a51.58,51.58,0,0,0-1.8-19.66c-2-7.44-4.22-14.81-6.32-22.23a20,20,0,0,1-.59-3,9.31,9.31,0,0,1,3.73-8.77,59.09,59.09,0,0,0,4.75-4c4.29-4.29,3.87-13-.75-16.85-2.7-2.24-5.82-2.28-9-1.61a27.78,27.78,0,0,0-9.13,3.9c-1,.64-2.08,1.26-3.1,1.91a15.76,15.76,0,0,1-13.38,1.81c-6.29-1.72-12.64-3.27-19.06-4.44a127.54,127.54,0,0,0-14.25-1.4,111.53,111.53,0,0,0-20.42.76,108.82,108.82,0,0,0-23.12,5,14.27,14.27,0,0,1-12.6-1.38A79.46,79.46,0,0,0,117,98.27a21.44,21.44,0,0,0-6.86-1.77c-5.08-.43-8.75,2.46-9.89,7.45-1.18,5.18-.1,9.64,4.33,13,1,.73,1.89,1.54,2.84,2.29a9.48,9.48,0,0,1,3.51,10.69c-1.52,5.66-3.2,11.28-4.9,16.9a71,71,0,0,0-3.56,20.51c0,7.11,1.26,13.89,5.72,19.71,2.74,3.57,6.42,5.94,10.3,8.05a122.4,122.4,0,0,0,33.09,12,16.56,16.56,0,0,1,8.3,4.14c4.15,4,4.28,9.46.39,13.74-3.12,3.42-7.13,4.84-11.6,5.22C147.49,230.3,146.31,230.22,145.13,230.22Z"/><path class="cls-1" d="M142.91,254.57A61.41,61.41,0,0,1,118.53,257c.37,5.93-2.67,11.09-4,16.67-2,8.22,2.59,20.11,13.6,22.1,7.11,1.29,13.43-.63,19-5,4.28-3.37,6.88-8,9.1-12.82,10.16-22.12,19.57-44.57,28.68-67.15,2-5,4.09-10,7.45-14.34s7.45-7.62,13-8.7A14.37,14.37,0,0,1,217,190.36a2,2,0,0,1,.56,2.9,1.58,1.58,0,0,1-2.44.4c-5.24-3.85-10.81-2.74-15.49.87a27.5,27.5,0,0,0-8.52,11.21c-3.42,8-6.62,16.15-10,24.18q-9.27,21.84-18.69,43.6a89.61,89.61,0,0,1-6.2,12.49,29.27,29.27,0,0,1-21.79,13.85c-11.56,1.46-21.31-5.95-23.66-17.42-1.14-5.57,0-10.79,1.79-16,.74-2.18,1.49-4.37,2-6.6a4.56,4.56,0,0,0-1.78-5.35,6.34,6.34,0,0,1-.6-9.63c2.35-2.47,5.39-3.74,8.53-4.75a49,49,0,0,1,17.13-2.39,20.86,20.86,0,0,1,7.66,1.62c3.22,1.44,5.11,4,4.8,7.08a15.08,15.08,0,0,1-1.55,4.08,21.85,21.85,0,0,0-1.09,2.16c-1.32,4.39-3.59,8.31-5.88,12.25a25.29,25.29,0,0,0-1.77,4.29c-.11.32.17.78.27,1.17.39-.12.92-.11,1.15-.38a23.79,23.79,0,0,0,3.21-4c3.3-6.05,6.46-12.18,9.67-18.28.69-1.31,1.33-1.68,2.37-1.32a1.94,1.94,0,0,1,1.09,2.94c-2.49,4.88-4.94,9.78-7.55,14.6a86.67,86.67,0,0,1-4.78,7.66,6.48,6.48,0,0,1-4.11,2.74,4.17,4.17,0,0,1-5.22-4,11.19,11.19,0,0,1,1.64-6.27c1.64-2.89,3.21-5.82,4.81-8.75C142.69,255.17,142.75,255,142.91,254.57Zm-18.92-1,.05.32c4.68-.6,9.39-1.1,14-1.85a12.91,12.91,0,0,0,7.08-3.17c2-1.93,1.9-4.29-.56-5.61a14.32,14.32,0,0,0-5.41-1.66,43.79,43.79,0,0,0-19.66,3.06,16.08,16.08,0,0,0-4.22,2.46c-1.9,1.55-1.51,3.76.59,5C118.44,253.63,121.23,253.49,124,253.56Z"/><path class="cls-1" d="M176.39,135c9.29.21,17.84,2.55,25.21,8.38a23.85,23.85,0,0,1,9.05,13.9c1.56,7.38-.71,13.71-5.67,19.15-5.35,5.87-12.23,9.08-19.89,10.55A42.91,42.91,0,0,1,157,183.35a27.67,27.67,0,0,1-12.47-11.76c-4.67-8.88-2.64-19.52,5-26.61A36.51,36.51,0,0,1,169,135.76C171.47,135.37,173.94,135.27,176.39,135Zm.91,49.07c1.25-.12,3.53-.23,5.77-.58a33.12,33.12,0,0,0,17.74-8.21c6.1-5.62,8.08-13.3,5.21-20.24-2.23-5.41-6.37-9-11.41-11.71A39.13,39.13,0,0,0,169,139.63a31.86,31.86,0,0,0-16.46,7.74c-3.68,3.36-6.19,7.38-6.58,12.46-.52,6.79,2.26,12.22,7.36,16.48C159.92,181.85,167.77,184,177.3,184.1Z"/><path class="cls-1" d="M221.29,267.73c-.33-2.24-.66-4.51-1-6.91L207.65,267c.58,3.94,1.19,7.84,1.73,11.74a8.67,8.67,0,0,1,0,2.92,4.41,4.41,0,0,1-4.45,3.61,5,5,0,0,1-4.41-4.49c-.22-3.08,1-4.73,4.49-5.7-.27-1.9-.54-3.83-.82-5.75-.43-2.9-.89-5.8-1.29-8.7-.22-1.59.08-2.06,1.54-2.77l15-7.31c2.07-1,3.2-.37,3.52,1.86.9,6.32,1.86,12.62,2.75,18.93a9.51,9.51,0,0,1,0,3.15,4.35,4.35,0,0,1-4.44,3.46,5,5,0,0,1-4.43-4.73C216.58,270.43,217.91,268.79,221.29,267.73Zm-2.07-12.8a2.11,2.11,0,0,0-.43.12c-3.65,1.79-7.29,3.57-10.93,5.37-1.19.58-1.33,1.19-.54,2.48l11.14-5.43C219.85,256.79,220,256.44,219.22,254.93Zm3,18.11-1-1.29c-.23.34-.7.74-.64,1a4.39,4.39,0,0,0,.83,1.3ZM206,280.44l-1-1.36c-.23.34-.68.71-.64,1s.48.84.74,1.27Z"/><path class="cls-1" d="M236.57,76.22a10.43,10.43,0,0,1-7.29.92c-4.85-1.11-7.84-5.63-7.35-11,.38-4.28,4.47-8.09,9-8.37a9.66,9.66,0,0,1,10.66,9.44c.12,3.21.07,6.43-.05,9.65a9.56,9.56,0,0,1-6.68,8.39,10,10,0,0,1-10.42-2.72c-1.11-1.32-1.1-2.75,0-3.76s2.43-.91,3.65.31a4.74,4.74,0,0,0,5.15,1.35A4.93,4.93,0,0,0,236.57,76.22Zm-4.83-13.48a4.82,4.82,0,1,0,4.79,4.87A4.73,4.73,0,0,0,231.74,62.74Z"/><path class="cls-1" d="M258.91,76.23a10.38,10.38,0,0,1-8.23.67,9.86,9.86,0,0,1-6.56-9c0-2.47,0-4.94,0-7.41a2.46,2.46,0,0,1,2.54-2.75c1.54,0,2.45,1,2.47,2.77,0,2.55-.07,5.11.15,7.64a4.64,4.64,0,0,0,5.22,4.26,4.93,4.93,0,0,0,4.39-4.85c0-2.39,0-4.78,0-7.18a2.5,2.5,0,1,1,5,0c0,5.46,0,10.91,0,16.36a9.82,9.82,0,0,1-7,8.84A10.05,10.05,0,0,1,246,81.9a2.48,2.48,0,0,1,.45-3.56,2.44,2.44,0,0,1,3.53.48,4.78,4.78,0,0,0,5.3,1.86C257.42,80.09,258.54,78.59,258.91,76.23Z"/><path class="cls-1" d="M103.59,71.58c.88.49,1.74.94,2.58,1.43a2.32,2.32,0,0,1,1.08,3.19,2.53,2.53,0,0,1-3.48.88q-3.75-2.31-7.46-4.71a2.52,2.52,0,0,1,1.47-4.68c1.91.07,3.66-.16,5-1.76A4.67,4.67,0,0,0,98,58.45a4.45,4.45,0,0,0-3.45,4.24c0,3.81,0,7.62,0,11.42a5.26,5.26,0,0,1-.38,2A2.52,2.52,0,0,1,89.41,75c0-4.51-.11-9,.21-13.52.26-3.68,2.57-6.2,5.94-7.52a9.2,9.2,0,0,1,9.55,1.35A9.61,9.61,0,0,1,106,69.86,19.63,19.63,0,0,1,103.59,71.58Z"/><path class="cls-1" d="M142.44,76.18c-5.52,2.75-10.88.78-13.53-3.54a9.9,9.9,0,0,1,7.7-14.92,9.78,9.78,0,0,1,10.71,10c0,2.16,0,4.32,0,6.48,0,1.32-.24,2.42-1.52,3C144.75,77.74,143.62,77.37,142.44,76.18Zm-5.07-3.8a4.82,4.82,0,1,0-4.81-4.87A4.91,4.91,0,0,0,137.37,72.38Z"/><path class="cls-1" d="M155.28,70.08c0,1.62,0,3.07,0,4.51a2.6,2.6,0,0,1-2,2.79,2.54,2.54,0,0,1-3.1-2.64c0-1.76,0-3.53,0-5.29q0-6.59,0-13.18c0-1.91.95-3,2.57-3s2.52,1.05,2.55,2.88c0,2.43,0,4.86,0,7.29V65.2a27.59,27.59,0,0,0,5-.52c2-.58,3-2.27,3.17-4.37.15-1.8,1.18-2.73,2.79-2.59a2.58,2.58,0,0,1,2.25,3,9.88,9.88,0,0,1-3.27,6.81,10,10,0,0,1,3.27,6.9,2.56,2.56,0,0,1-2.45,3,2.3,2.3,0,0,1-2.54-2.21,5.12,5.12,0,0,0-5.84-5.15C156.94,70.13,156.2,70.08,155.28,70.08Z"/><path class="cls-1" d="M210.5,77.44a9.94,9.94,0,0,1-9.81-10.38,10,10,0,0,1,10.12-9.38,9.88,9.88,0,0,1-.31,19.76Zm4.88-9.84a4.7,4.7,0,0,0-4.79-4.86,4.82,4.82,0,1,0-.06,9.64A4.67,4.67,0,0,0,215.38,67.6Z"/><path class="cls-1" d="M190.25,67.54a9.87,9.87,0,1,1-9.95-9.83A9.74,9.74,0,0,1,190.25,67.54Zm-5.06.06a4.81,4.81,0,1,0-4.87,4.78A4.75,4.75,0,0,0,185.19,67.6Z"/><path class="cls-1" d="M112.92,100.88a11.33,11.33,0,0,1,6.61,3,3.38,3.38,0,0,1,1,4.06,54,54,0,0,1-3.85,6.94,3.3,3.3,0,0,1-3.88,1.2,9.5,9.5,0,0,1-7.29-7.43C104.87,104.25,107.81,100.87,112.92,100.88Z"/><path class="cls-1" d="M248.86,107.52c0,4.22-4,8.5-8.23,8.65a3.79,3.79,0,0,1-2.62-1,16.53,16.53,0,0,1-4.36-7.9,3.87,3.87,0,0,1,.53-2.65c1.93-3,7.49-4.59,10.77-3.22A6.12,6.12,0,0,1,248.86,107.52Z"/><path class="cls-1" d="M236.7,248.92c-.67-4.52-1.32-9-2-13.42-.32-2.11.36-3,2.48-2.95a14.73,14.73,0,0,1,2.8.31,4.82,4.82,0,0,1,4.09,4.65,2.34,2.34,0,0,0,1.93,2.41,1.46,1.46,0,0,1,1,2.05,1.82,1.82,0,0,1-2,1.4,4.78,4.78,0,0,1-4.24-4.35c-.33-2.24-.52-2.48-2.23-2.65.24,1.75.46,3.48.72,5.19.58,3.87,1.2,7.73,1.77,11.6a4.69,4.69,0,0,1-3.77,5.29c-2.32.33-4.51-1.66-4.88-4.4a4.53,4.53,0,0,1,3.85-5.05Zm.11,6a1.39,1.39,0,0,0,.14-2.09c-.08-.11-.65-.09-.72,0C235.74,253.66,236,254.32,236.81,254.92Z"/><path class="cls-1" d="M206.15,113.12a7.09,7.09,0,0,1,7.2,7.3,7.17,7.17,0,0,1-7.23,7.3,7.3,7.3,0,1,1,0-14.6Z"/><path class="cls-1" d="M147,113.12a7.36,7.36,0,0,1,7.23,7.31,7.33,7.33,0,1,1-7.23-7.31Z"/><path class="cls-1" d="M119.76,65.34c0-3.06,0-6.12,0-9.17,0-1.69.93-2.78,2.32-2.87,1.67-.11,2.79,1,2.8,2.85,0,2.94,0,5.88,0,8.82,0,3.17,0,6.35,0,9.52,0,1.85-1,3-2.62,2.94s-2.5-1.12-2.51-2.92C119.75,71.45,119.76,68.39,119.76,65.34Z"/><path class="cls-1" d="M198,65.33c0,3.13,0,6.27,0,9.4a2.4,2.4,0,0,1-2.41,2.71A2.49,2.49,0,0,1,193,74.73q0-9.35,0-18.69a2.45,2.45,0,0,1,2.52-2.74c1.57,0,2.47,1,2.47,2.74C198,59.14,198,62.23,198,65.33Z"/><path class="cls-1" d="M194.9,265.57a1.64,1.64,0,0,1-2.54,1.54c-2.29-1.18-3.61-.75-4.71,1.59-.5,1.06-.84,2.2-1.31,3.27-2.51,5.69-8.2,5-11.57,2.92a1.75,1.75,0,0,1-.45-2.49,1.61,1.61,0,0,1,2.25-.58,17.29,17.29,0,0,0,2,.79,3.45,3.45,0,0,0,4.6-2.1c.49-1.07.8-2.21,1.28-3.28,1.82-4,5.78-5.47,9.28-3.52C194.45,264.14,195,264.68,194.9,265.57Z"/><path class="cls-1" d="M170.52,210.7a5.76,5.76,0,0,1,1.66-4.14,4.74,4.74,0,0,1,7.31.33,6.32,6.32,0,0,1,.24,7.54,4.79,4.79,0,0,1-5.58,1.91A5.7,5.7,0,0,1,170.52,210.7Zm3.76.09c.09.9.27,1.72,1.32,1.83.82.08,1.59-.87,1.48-1.88-.09-.84-.37-1.65-1.41-1.72C174.86,209,174.28,209.77,174.28,210.79Z"/><path class="cls-1" d="M161.77,243.18c-3.55,0-6.08-3.84-5-7.53.91-3,3.6-4.62,6.3-3.83s4.42,4.14,3.67,7C166.08,241.53,164.16,243.18,161.77,243.18Zm1.36-5.74c0-1-.6-1.81-1.41-1.81s-1.4.75-1.36,1.84c0,.87.29,1.66,1.32,1.78C162.44,239.33,163.13,238.43,163.13,237.44Z"/><path class="cls-1" d="M169.45,217.92c3.69,0,6.24,4.15,4.81,7.87-1.15,3-3.8,4.38-6.5,3.36s-4.22-4.58-3.12-7.58A5.1,5.1,0,0,1,169.45,217.92Zm1.4,5.79c0-1-.64-1.92-1.41-1.85-1,.09-1.33.84-1.38,1.73-.06,1.07.52,1.86,1.32,1.89S170.84,224.76,170.85,223.71Z"/><path class="cls-1" d="M116.24,68.4c0,2.11,0,4.23,0,6.35a2.4,2.4,0,0,1-2.45,2.68,2.43,2.43,0,0,1-2.54-2.72q0-6.34,0-12.69a2.44,2.44,0,0,1,2.52-2.63,2.41,2.41,0,0,1,2.47,2.66C116.25,64.16,116.24,66.28,116.24,68.4Z"/><path class="cls-1" d="M113.8,58.3a2.5,2.5,0,0,1-2.56-2.5,2.43,2.43,0,0,1,2.41-2.5,2.39,2.39,0,0,1,2.59,2.42A2.43,2.43,0,0,1,113.8,58.3Z"/><path class="cls-1" d="M178.52,163.1c1.3,1.93,3,2.27,4.78,2.54.46.07.94.07,1.39.17a1.89,1.89,0,0,1,1.61,2.2,1.71,1.71,0,0,1-2,1.51,11.92,11.92,0,0,1-7.8-2.87,11.74,11.74,0,0,1-7.43,2.86c-1.48.08-2.27-.45-2.4-1.61s.7-2,2.09-2.21a17.73,17.73,0,0,0,3.32-.65,15,15,0,0,0,2.57-1.63c-1.5-1.45-2.8-2.68-4.07-3.94a3.85,3.85,0,0,1-1.28-3.82,3.51,3.51,0,0,1,3.23-3,46.9,46.9,0,0,1,7.95,0,3.75,3.75,0,0,1,2.26,6.41C181.45,160.52,180,161.75,178.52,163.1Zm-2.19-3.63L180,156.4h-6.8Z"/></svg>