<svg id="圖層_1" data-name="圖層 1" xmlns="http://www.w3.org/2000/svg" viewBox="0 0 353 353"><defs><style>.cls-1{font-size:15.23px;fill:#191b1b;font-family:Biko-Bold, Biko;font-weight:700;}.cls-2{letter-spacing:-0.01em;}.cls-3{font-family:AdobeMingStd-Light-B5pc-H, Adobe Ming Std;font-weight:400;}.cls-4{letter-spacing:0em;}.cls-5{letter-spacing:0.02em;}.cls-6{letter-spacing:-0.02em;}.cls-7{letter-spacing:0.01em;}.cls-8{letter-spacing:-0.02em;}.cls-9{letter-spacing:-0.02em;}.cls-10{letter-spacing:-0.01em;}.cls-11{letter-spacing:0em;}.cls-12{letter-spacing:0.01em;}.cls-13{letter-spacing:-0.02em;}.cls-14{letter-spacing:-0.02em;}.cls-15{fill:#181a19;}.cls-16{fill:#db5424;}</style></defs><text class="cls-1" transform="translate(56.91 234.98)">U<tspan class="cls-2" x="10.58" y="0">k</tspan><tspan x="18.71" y="0">ulele</tspan><tspan class="cls-3" x="50.19" y="0">．</tspan><tspan class="cls-4" x="65.42" y="0">Gu</tspan><tspan class="cls-5" x="85.53" y="0">i</tspan><tspan class="cls-6" x="90.15" y="0">t</tspan><tspan class="cls-7" x="95.76" y="0">a</tspan><tspan x="104.47" y="0">r</tspan><tspan class="cls-3" x="109.9" y="0">．</tspan><tspan class="cls-8" x="125.12" y="0">R</tspan><tspan x="135.13" y="0">e</tspan><tspan class="cls-9" x="142.88" y="0">c</tspan><tspan class="cls-10" x="150.42" y="0">o</tspan><tspan class="cls-11" x="158.62" y="0">r</tspan><tspan class="cls-12" x="163.98" y="0">d</tspan><tspan x="172.71" y="0">s</tspan><tspan class="cls-3" x="179.35" y="0">．</tspan><tspan x="194.57" y="0">C</tspan><tspan class="cls-13" x="206.12" y="0">o</tspan><tspan class="cls-10" x="214.22" y="0">f</tspan><tspan class="cls-14" x="220.17" y="0">f</tspan><tspan x="225.94" y="0">ee</tspan></text><polygon class="cls-15" points="163.11 172.09 121.95 172.09 121.95 166.37 98.46 166.37 98.46 172.09 57.3 172.09 57.3 192.88 68.55 192.88 57.3 207.62 81.36 207.62 91.68 192.88 98.46 192.88 98.46 207.62 121.95 207.62 121.95 192.88 128.72 192.88 139.05 207.62 163.11 207.62 151.86 192.88 163.11 192.88 163.11 172.09"/><polygon class="cls-15" points="124.03 126.64 137.3 114.37 162.54 114.37 138.07 139.2 165.76 166.37 140.39 166.37 124.03 150.45 124.03 126.64"/><polygon class="cls-15" points="96.38 126.64 83.11 114.37 57.87 114.37 82.34 139.2 54.65 166.37 80.02 166.37 96.38 150.45 96.38 126.64"/><polygon class="cls-15" points="109.88 120.45 115.7 114.23 104.4 114.23 98.52 120.45 98.46 120.45 98.46 157.97 121.95 157.97 121.95 120.45 109.88 120.45"/><polyline class="cls-15" points="289.24 141.55 249.73 141.55 291.91 207.67 266.28 207.67 237.45 160.42 209.42 207.67 181.39 207.67 223.3 141.55 183.91 141.55 183.91 120.64 223.3 120.64 223.3 113.97 248.93 113.97 248.93 120.64 289.21 120.64 289.24 139.33"/><polygon class="cls-16" points="237.5 166.2 262.93 207.88 212.77 207.88 237.5 166.2"/></svg>