<svg id="圖層_1" data-name="圖層 1" xmlns="http://www.w3.org/2000/svg" viewBox="0 0 353 353"><defs><style>.cls-1{fill:#1384c7;}.cls-2{fill:#15983f;}</style></defs><path class="cls-1" d="M291.84,170.26l5.08-14c2.29-6.27-4-11.65-4.25-11.87l-1.2-1-9.78,26.86h-18c-6.68,0-9.59,7.73-9.71,8.06l-.54,1.47h24.74l-4.89,13.46c-2.29,6.27,4,11.65,4.25,11.88l1.2,1,9.59-26.35h18.15c6.68,0,9.59-7.73,9.71-8.06l.54-1.47Z"/><path class="cls-2" d="M220.93,160l-7,19.09H211.6c-6,0-8.68,7.34-8.68,7.34h0l-6.58,18.12h29.71l0,0c2-.16,7.5-1,9.18-5.6l7.15-19.83H221.79c.59-1.62,1.25-3.45,1.84-5h13.45c6,0,8.67-7.34,8.67-7.34H225.12C224.33,162.86,220.93,160,220.93,160Zm7.12,37.21H206.8l3.87-10.78H232Z"/><path class="cls-2" d="M223.54,143.76l-3.06,8.37H200.4l-19.08,52.4s7.82,0,9.87-5.63c.82-2.25,10.34-28.43,14.35-39.43h36.75c6,0,8.68-7.34,8.68-7.34H227.89C228,147.5,223.54,143.76,223.54,143.76Z"/><path class="cls-2" d="M140.75,185.72l-.23-.19a67.28,67.28,0,0,0,8.1-20.28c4.74-1.23,6.9-7.1,6.9-7.1h-6.21c-.81-4.91-5.88-7.2-5.88-7.2l-1,7.2h-4.88l.72-2c2-5.62-3.93-10.66-3.93-10.66l-4.6,12.64H128.7c-6,0-8.67,7.33-8.67,7.33h7.07l-.65,1.79h0l-4.57,12.55,8.73,7.16q-.9,1.33-1.89,2.67L126,193c-.16.2-.3.4-.44.61l0,0h0c-3,4.59.45,10.72.45,10.72l4.42-5.26q2.49-2.73,4.56-5.43l.19-.22h0c.44-.57.87-1.15,1.28-1.72l6.31,5.17S145.35,189.54,140.75,185.72Zm-10.16-8.28,3.16-8.7c.07-.19.13-.37.18-.56.27-.73.61-1.67,1-2.7h5.77a79.16,79.16,0,0,1-6.19,15.13Z"/><path class="cls-2" d="M171.71,171.56h-.79c.1-.85.18-1.71.25-2.6.05-.57.1-1.16.14-1.75l11-11,2.66-7.34H163.59c-6,0-8.63,7.34-8.63,7.34h17L164.14,164h0s-.22,3.14-.9,7.56h-6c-6,0-8.68,7.34-8.68,7.34h13.29l-.21.89c-1.26,5.09-3.14,10.55-5.91,14.6-4.25-2.8-10.2,0-10.2,0l10.12,10,.13-.06v.06l.17-.15A16.77,16.77,0,0,0,161.5,199c2.07-2.86,4.06-7.44,6-12.84a68.23,68.23,0,0,0,2.16-7.3h5.73c6,0,8.67-7.34,8.67-7.34Z"/><path class="cls-2" d="M100.46,167.35l.67-1.85a3.52,3.52,0,0,0-1.23-3.7l-1.32-1.11-2.42,6.66H92.81c-2.1,0-3,2.17-3.06,2.42l-.59,1.61h5.53l-.63,1.73a3.52,3.52,0,0,0,1.24,3.71l1.31,1.11L99,171.38h3.39a3.51,3.51,0,0,0,3.06-2.42l.59-1.61Z"/><path class="cls-1" d="M98.5,185.83v-6.3s-5.13,1.88-5.14,6.06v.24a15.46,15.46,0,0,1-.84,5l-.12.35a.42.42,0,0,0,0,.1C89.4,199,80.4,204.54,70.22,204.54c-12.76,0-23.15-8.41-23.15-18.75a15.6,15.6,0,0,1,.64-4.39,2.55,2.55,0,0,0-.4-2.28,2.6,2.6,0,0,0-2.07-1h-3a.84.84,0,0,1-.81-.53.87.87,0,0,1,.19-1L69.6,148.71a.87.87,0,0,1,1.23,0l7.37,7.34,6.13,6.13a2.39,2.39,0,0,0,.23.22l0,0a2.53,2.53,0,0,0,.7.49c3,1.75,7-.09,7-.09l-3.73-3.74a2.69,2.69,0,0,0-.27-.32L74.48,145.05a6,6,0,0,0-8.53,0L38,172.94a6,6,0,0,0,4.06,10.31,19.58,19.58,0,0,0-.16,2.54c0,13.19,12.7,23.92,28.31,23.92a31.61,31.61,0,0,0,18.25-5.63,23.33,23.33,0,0,0,9.68-14.37c0-.12,0-.23,0-.34a20.68,20.68,0,0,0,.31-3.53h0Z"/></svg>